SplineFontDB: 3.0
FontName: Economica-Bold
FullName: Economica Bold
FamilyName: Economica
Weight: Bold
Copyright: Copyright (c) 2012, Vicente Lamonaca (produccion.taller@gmail.com www.tipografia-montevideo.info www.tipotype.com)
Version: 1.100
ItalicAngle: 0
UnderlinePosition: -25
UnderlineWidth: 24
Ascent: 800
Descent: 200
sfntRevision: 0x00011999
LayerCount: 2
Layer: 0 1 "Back"  1
Layer: 1 1 "Fore"  0
XUID: [1021 31 1787126547 16370864]
FSType: 0
OS2Version: 2
OS2_WeightWidthSlopeOnly: 0
OS2_UseTypoMetrics: 1
CreationTime: 1330105206
ModificationTime: 1330123050
PfmFamily: 17
TTFWeight: 700
TTFWidth: 5
LineGap: 0
VLineGap: 0
Panose: 2 0 5 6 3 0 0 2 0 4
OS2TypoAscent: 149
OS2TypoAOffset: 1
OS2TypoDescent: 0
OS2TypoDOffset: 1
OS2TypoLinegap: 0
OS2WinAscent: 12
OS2WinAOffset: 1
OS2WinDescent: 9
OS2WinDOffset: 1
HheadAscent: 12
HheadAOffset: 1
HheadDescent: -9
HheadDOffset: 1
OS2SubXSize: 700
OS2SubYSize: 650
OS2SubXOff: 0
OS2SubYOff: 140
OS2SupXSize: 700
OS2SupYSize: 650
OS2SupXOff: 0
OS2SupYOff: 477
OS2StrikeYSize: 50
OS2StrikeYPos: 250
OS2FamilyClass: 2050
OS2CodePages: 20000001.00000000
OS2UnicodeRanges: 800000af.4000204a.00000000.00000000
Lookup: 4 0 1 "'liga' Standard Ligatures in Latin lookup 0"  {"'liga' Standard Ligatures in Latin lookup 0 subtable"  } ['liga' ('latn' <'dflt' > ) ]
Lookup: 258 0 0 "'kern' Horizontal Kerning in Latin lookup 0"  {"'kern' Horizontal Kerning in Latin lookup 0 subtable"  } ['kern' ('latn' <'dflt' > ) ]
DEI: 91125
TtTable: prep
PUSHW_1
 511
SCANCTRL
PUSHB_1
 4
SCANTYPE
EndTTInstrs
ShortTable: maxp 16
  1
  0
  257
  76
  5
  70
  4
  2
  0
  1
  1
  0
  64
  0
  2
  1
EndShort

StartChar: exclam
Encoding: 33 33 4
Width: 243
GlyphClass: 2
Flags: W
LayerCount: 2
Fore
SplineSet
137 98.5 m 128,-1,1
 153 79 153 79 153 58 c 0,2,3
 153 31 153 31 134 15.5 c 128,-1,4
 115 0 115 0 94 0 c 0,5,6
 67 0 67 0 50.5 19 c 128,-1,7
 34 38 34 38 34 61.5 c 128,-1,8
 34 85 34 85 53.5 101.5 c 128,-1,9
 73 118 73 118 97 118 c 128,-1,0
 121 118 121 118 137 98.5 c 128,-1,1
109 171 m 1,10,-1
 63 175 l 1,11,-1
 77 651 l 2,12,13
 78 693 78 693 94 701 c 0,14,15
 105 706 105 706 128 706 c 128,-1,16
 151 706 151 706 176 704 c 1,17,-1
 153 226 l 2,18,19
 151 205 151 205 151 200.5 c 128,-1,20
 151 196 151 196 146.5 185.5 c 128,-1,21
 142 175 142 175 140 175 c 2,22,-1
 109 171 l 1,10,-1
EndSplineSet
EndChar

StartChar: quotedbl
Encoding: 34 34 5
Width: 347
GlyphClass: 2
Flags: W
LayerCount: 2
Fore
SplineSet
50 632 m 1,0,-1
 41 673 l 1,1,2
 41 698 41 698 59 715 c 128,-1,3
 77 732 77 732 102 732 c 0,4,5
 156 732 156 732 156 678 c 0,6,7
 156 658 156 658 137.5 613 c 128,-1,8
 119 568 119 568 100 534 c 1,9,-1
 82 499 l 1,10,-1
 33 527 l 1,11,-1
 28 544 l 1,12,13
 50 600 50 600 50 632 c 1,0,-1
209 632 m 1,14,-1
 200 673 l 1,15,16
 200 698 200 698 218 715 c 128,-1,17
 236 732 236 732 261 732 c 0,18,19
 315 732 315 732 315 678 c 0,20,21
 315 658 315 658 296.5 613 c 128,-1,22
 278 568 278 568 260 534 c 2,23,-1
 241 499 l 1,24,-1
 192 527 l 1,25,-1
 187 544 l 1,26,27
 209 600 209 600 209 632 c 1,14,-1
EndSplineSet
EndChar

StartChar: numbersign
Encoding: 35 35 6
Width: 644
GlyphClass: 2
Flags: W
LayerCount: 2
Fore
SplineSet
59 508 m 1,0,-1
 236 508 l 1,1,-1
 323 726 l 1,2,-1
 405 726 l 1,3,-1
 319 508 l 1,4,-1
 443 508 l 1,5,-1
 530 726 l 1,6,-1
 612 726 l 1,7,-1
 525 508 l 1,8,-1
 627 508 l 1,9,-1
 627 431 l 1,10,-1
 493 431 l 1,11,-1
 445 309 l 1,12,-1
 586 309 l 1,13,-1
 586 232 l 1,14,-1
 414 232 l 1,15,-1
 321 0 l 1,16,-1
 239 0 l 1,17,-1
 331 232 l 1,18,-1
 207 232 l 1,19,-1
 114 0 l 1,20,-1
 32 0 l 1,21,-1
 124 232 l 1,22,-1
 18 232 l 1,23,-1
 18 309 l 1,24,-1
 155 309 l 1,25,-1
 204 431 l 1,26,-1
 59 431 l 1,27,-1
 59 508 l 1,0,-1
287 431 m 1,28,-1
 238 309 l 1,29,-1
 362 309 l 1,30,-1
 411 431 l 1,31,-1
 287 431 l 1,28,-1
EndSplineSet
EndChar

StartChar: dollar
Encoding: 36 36 7
Width: 392
GlyphClass: 2
Flags: W
LayerCount: 2
Fore
SplineSet
57 82 m 1,0,1
 137 72 137 72 166 72 c 128,-1,2
 195 72 195 72 204.5 77 c 128,-1,3
 214 82 214 82 219 87.5 c 128,-1,4
 224 93 224 93 226 107 c 0,5,6
 229 128 229 128 229 153 c 128,-1,7
 229 178 229 178 200.5 208 c 128,-1,8
 172 238 172 238 137.5 264 c 128,-1,9
 103 290 103 290 74.5 326.5 c 128,-1,10
 46 363 46 363 46 393.5 c 128,-1,11
 46 424 46 424 46.5 437.5 c 128,-1,12
 47 451 47 451 52.5 472.5 c 128,-1,13
 58 494 58 494 68 505 c 0,14,15
 94 534 94 534 150 541 c 1,16,-1
 151 626 l 1,17,18
 206 626 206 626 215 619 c 128,-1,19
 224 612 224 612 224 568 c 1,20,-1
 225 529 l 1,21,-1
 285 517 l 1,22,23
 276 468 276 468 269 460.5 c 128,-1,24
 262 453 262 453 251 453 c 128,-1,25
 240 453 240 453 230 455 c 2,26,-1
 191 462 l 2,27,28
 180 464 180 464 171.5 464 c 128,-1,29
 163 464 163 464 153.5 461.5 c 128,-1,30
 144 459 144 459 139 448 c 0,31,32
 131 429 131 429 131 402.5 c 128,-1,33
 131 376 131 376 160.5 346.5 c 128,-1,34
 190 317 190 317 225.5 294 c 128,-1,35
 261 271 261 271 290.5 238 c 128,-1,36
 320 205 320 205 320 171 c 128,-1,37
 320 137 320 137 318 116.5 c 128,-1,38
 316 96 316 96 308 68 c 0,39,40
 294 14 294 14 229 -2 c 1,41,-1
 228 -115 l 1,42,43
 173 -115 173 -115 164 -107.5 c 128,-1,44
 155 -100 155 -100 154 -57 c 2,45,-1
 153 -3 l 1,46,47
 137 0 137 0 105 4 c 128,-1,48
 73 8 73 8 57 11 c 1,49,-1
 57 82 l 1,0,1
EndSplineSet
EndChar

StartChar: percent
Encoding: 37 37 8
Width: 636
GlyphClass: 2
Flags: W
LayerCount: 2
Fore
SplineSet
65 569 m 128,-1,1
 65 657 65 657 86 689 c 128,-1,2
 107 721 107 721 154.5 721 c 128,-1,3
 202 721 202 721 221.5 689 c 128,-1,4
 241 657 241 657 241 568.5 c 128,-1,5
 241 480 241 480 221 446 c 128,-1,6
 201 412 201 412 154.5 412 c 128,-1,7
 108 412 108 412 86.5 446.5 c 128,-1,0
 65 481 65 481 65 569 c 128,-1,1
171.5 654 m 128,-1,9
 165 660 165 660 154.5 660 c 128,-1,10
 144 660 144 660 137.5 654 c 128,-1,11
 131 648 131 648 128 633 c 0,12,13
 125 612 125 612 125 576.5 c 128,-1,14
 125 541 125 541 125.5 529 c 128,-1,15
 126 517 126 517 128.5 502 c 128,-1,16
 131 487 131 487 137.5 481.5 c 128,-1,17
 144 476 144 476 155 476 c 128,-1,18
 166 476 166 476 172 481.5 c 128,-1,19
 178 487 178 487 180 502 c 0,20,21
 184 523 184 523 184 558.5 c 128,-1,22
 184 594 184 594 183.5 606 c 128,-1,23
 183 618 183 618 180.5 633 c 128,-1,8
 178 648 178 648 171.5 654 c 128,-1,9
381 157 m 128,-1,25
 381 245 381 245 402 277 c 128,-1,26
 423 309 423 309 470.5 309 c 128,-1,27
 518 309 518 309 537.5 277 c 128,-1,28
 557 245 557 245 557 156.5 c 128,-1,29
 557 68 557 68 537 34 c 128,-1,30
 517 0 517 0 470.5 0 c 128,-1,31
 424 0 424 0 402.5 34.5 c 128,-1,24
 381 69 381 69 381 157 c 128,-1,25
487.5 242 m 128,-1,33
 481 248 481 248 470.5 248 c 128,-1,34
 460 248 460 248 453.5 242 c 128,-1,35
 447 236 447 236 444 221 c 0,36,37
 441 200 441 200 441 164.5 c 128,-1,38
 441 129 441 129 441.5 117 c 128,-1,39
 442 105 442 105 444.5 90 c 128,-1,40
 447 75 447 75 453.5 69.5 c 128,-1,41
 460 64 460 64 471 64 c 128,-1,42
 482 64 482 64 488 69.5 c 128,-1,43
 494 75 494 75 496 90 c 0,44,45
 500 111 500 111 500 146.5 c 128,-1,46
 500 182 500 182 499.5 194 c 128,-1,47
 499 206 499 206 496.5 221 c 128,-1,32
 494 236 494 236 487.5 242 c 128,-1,33
503 720 m 1,48,-1
 215 0 l 1,49,-1
 115 0 l 1,50,-1
 404 720 l 1,51,-1
 503 720 l 1,48,-1
EndSplineSet
EndChar

StartChar: ampersand
Encoding: 38 38 9
Width: 551
GlyphClass: 2
Flags: W
LayerCount: 2
Fore
SplineSet
429 211 m 2,0,1
 429 101 429 101 383 47 c 128,-1,2
 337 -7 337 -7 234.5 -7 c 128,-1,3
 132 -7 132 -7 86 46.5 c 128,-1,4
 40 100 40 100 40 210 c 128,-1,5
 40 320 40 320 112 388 c 1,6,7
 86 410 86 410 72.5 438 c 128,-1,8
 59 466 59 466 59 517 c 0,9,10
 59 692 59 692 206 692 c 1,11,-1
 335 682 l 1,12,13
 335 636 335 636 328 624.5 c 128,-1,14
 321 613 321 613 291 612 c 2,15,-1
 206 610 l 2,16,17
 177 610 177 610 162 591.5 c 128,-1,18
 147 573 147 573 147 517 c 128,-1,19
 147 461 147 461 166 446 c 128,-1,20
 185 431 185 431 234 431 c 1,21,-1
 234 346 l 1,22,23
 189 344 189 344 158.5 307.5 c 128,-1,24
 128 271 128 271 128 207 c 0,25,26
 128 75 128 75 234.5 75 c 128,-1,27
 341 75 341 75 341 211 c 2,28,-1
 341 319 l 1,29,-1
 346 346 l 1,30,-1
 295 346 l 1,31,-1
 295 426 l 1,32,-1
 346 426 l 1,33,-1
 341 447 l 1,34,-1
 341 491 l 1,35,36
 404 491 404 491 416.5 482.5 c 128,-1,37
 429 474 429 474 429 428 c 1,38,-1
 518 426 l 1,39,40
 518 400 518 400 516.5 388.5 c 128,-1,41
 515 377 515 377 506.5 365 c 128,-1,42
 498 353 498 353 480 349.5 c 128,-1,43
 462 346 462 346 429 346 c 2,44,-1
 416 346 l 1,45,-1
 429 317 l 1,46,-1
 429 211 l 2,0,1
EndSplineSet
EndChar

StartChar: quotesingle
Encoding: 39 39 10
Width: 184
GlyphClass: 2
Flags: W
LayerCount: 2
Fore
SplineSet
49 632 m 1,0,-1
 40 673 l 1,1,2
 40 698 40 698 58 715 c 128,-1,3
 76 732 76 732 101 732 c 0,4,5
 155 732 155 732 155 678 c 0,6,7
 155 658 155 658 136.5 613 c 128,-1,8
 118 568 118 568 100 534 c 2,9,-1
 81 499 l 1,10,-1
 32 527 l 1,11,-1
 27 544 l 1,12,13
 49 600 49 600 49 632 c 1,0,-1
EndSplineSet
EndChar

StartChar: parenleft
Encoding: 40 40 11
Width: 271
GlyphClass: 2
Flags: W
LayerCount: 2
Fore
SplineSet
36 203 m 0,0,1
 35 240 35 240 35 327 c 128,-1,2
 35 414 35 414 36 457.5 c 128,-1,3
 37 501 37 501 43 563 c 128,-1,4
 49 625 49 625 62 651.5 c 128,-1,5
 75 678 75 678 98.5 707.5 c 128,-1,6
 122 737 122 737 158.5 747 c 128,-1,7
 195 757 195 757 248 757 c 1,8,9
 248 699 248 699 240 689 c 128,-1,10
 232 679 232 679 184 679 c 0,11,12
 146 679 146 679 137 604.5 c 128,-1,13
 128 530 128 530 128 333 c 0,14,15
 128 325 128 325 128 321 c 0,16,17
 128 90 128 90 139.5 31.5 c 128,-1,18
 151 -27 151 -27 184 -27 c 0,19,20
 232 -27 232 -27 240 -37 c 128,-1,21
 248 -47 248 -47 248 -105 c 1,22,23
 171 -105 171 -105 113 -74 c 0,24,25
 79 -55 79 -55 52 28 c 0,26,27
 37 74 37 74 36 203 c 0,0,1
EndSplineSet
EndChar

StartChar: parenright
Encoding: 41 41 12
Width: 269
GlyphClass: 2
Flags: W
LayerCount: 2
Fore
SplineSet
234 321 m 128,-1,1
 234 228 234 228 233 185.5 c 128,-1,2
 232 143 232 143 226 82 c 128,-1,3
 220 21 220 21 207.5 -4 c 128,-1,4
 195 -29 195 -29 171.5 -58 c 128,-1,5
 148 -87 148 -87 111.5 -96 c 128,-1,6
 75 -105 75 -105 22 -105 c 1,7,8
 22 -47 22 -47 30 -37 c 128,-1,9
 38 -27 38 -27 86 -27 c 0,10,11
 124 -27 124 -27 132.5 45.5 c 128,-1,12
 141 118 141 118 141 338 c 128,-1,13
 141 558 141 558 129.5 618.5 c 128,-1,14
 118 679 118 679 86 679 c 0,15,16
 38 679 38 679 30 689 c 128,-1,17
 22 699 22 699 22 757 c 1,18,19
 74 757 74 757 111 747 c 128,-1,20
 148 737 148 737 171 707.5 c 128,-1,21
 194 678 194 678 207 651.5 c 128,-1,22
 220 625 220 625 226 563 c 128,-1,23
 232 501 232 501 233 457.5 c 128,-1,0
 234 414 234 414 234 321 c 128,-1,1
EndSplineSet
EndChar

StartChar: asterisk
Encoding: 42 42 13
Width: 321
GlyphClass: 2
Flags: W
LayerCount: 2
Fore
SplineSet
195 460 m 1,0,-1
 161 536 l 1,1,-1
 125 462 l 1,2,-1
 53 502 l 1,3,-1
 108 566 l 1,4,-1
 27 556 l 1,5,-1
 27 638 l 1,6,-1
 109 628 l 1,7,-1
 53 694 l 1,8,-1
 124 735 l 1,9,-1
 161 660 l 1,10,-1
 194 736 l 1,11,-1
 266 695 l 1,12,-1
 213 628 l 1,13,-1
 293 638 l 1,14,-1
 294 556 l 1,15,-1
 211 566 l 1,16,-1
 268 500 l 1,17,-1
 195 460 l 1,0,-1
EndSplineSet
EndChar

StartChar: plus
Encoding: 43 43 14
Width: 270
GlyphClass: 2
Flags: W
LayerCount: 2
Fore
SplineSet
175 194 m 1,0,-1
 94 194 l 1,1,-1
 94 260 l 1,2,-1
 99 285 l 1,3,-1
 18 285 l 1,4,-1
 18 359 l 1,5,-1
 99 359 l 1,6,-1
 94 384 l 1,7,-1
 94 449 l 1,8,-1
 175 449 l 1,9,-1
 175 384 l 1,10,-1
 169 359 l 1,11,-1
 252 359 l 1,12,-1
 252 285 l 1,13,-1
 169 285 l 1,14,-1
 175 262 l 1,15,-1
 175 194 l 1,0,-1
EndSplineSet
EndChar

StartChar: comma
Encoding: 44 44 15
Width: 173
GlyphClass: 2
Flags: W
LayerCount: 2
Fore
SplineSet
48 19 m 1,0,-1
 39 60 l 1,1,2
 39 85 39 85 57 102 c 128,-1,3
 75 119 75 119 100 119 c 0,4,5
 154 119 154 119 154 65 c 0,6,7
 154 45 154 45 135.5 0.5 c 128,-1,8
 117 -44 117 -44 98 -79 c 2,9,-1
 80 -114 l 1,10,-1
 31 -86 l 1,11,-1
 26 -69 l 1,12,13
 48 -13 48 -13 48 19 c 1,0,-1
EndSplineSet
EndChar

StartChar: hyphen
Encoding: 45 45 16
Width: 326
GlyphClass: 2
Flags: W
LayerCount: 2
Fore
SplineSet
45 363 m 1,0,-1
 280 363 l 1,1,-1
 280 281 l 1,2,-1
 45 281 l 1,3,-1
 45 363 l 1,0,-1
EndSplineSet
EndChar

StartChar: period
Encoding: 46 46 17
Width: 182
GlyphClass: 2
Flags: W
LayerCount: 2
Fore
SplineSet
49 18 m 128,-1,1
 31 36 31 36 31 60.5 c 128,-1,2
 31 85 31 85 49 102 c 128,-1,3
 67 119 67 119 91 119 c 128,-1,4
 115 119 115 119 133 102 c 128,-1,5
 151 85 151 85 151 60.5 c 128,-1,6
 151 36 151 36 133 18 c 128,-1,7
 115 0 115 0 91 0 c 128,-1,0
 67 0 67 0 49 18 c 128,-1,1
EndSplineSet
EndChar

StartChar: slash
Encoding: 47 47 18
Width: 398
GlyphClass: 2
Flags: W
LayerCount: 2
Fore
SplineSet
388 720 m 1,0,-1
 101 -187 l 1,1,-1
 6 -187 l 1,2,-1
 292 720 l 1,3,-1
 388 720 l 1,0,-1
EndSplineSet
EndChar

StartChar: zero
Encoding: 48 48 19
Width: 410
GlyphClass: 2
Flags: W
LayerCount: 2
Fore
SplineSet
61 244 m 128,-1,1
 60 280 60 280 60 367 c 128,-1,2
 60 454 60 454 61.5 495.5 c 128,-1,3
 63 537 63 537 70.5 592 c 128,-1,4
 78 647 78 647 95 668 c 0,5,6
 139 720 139 720 223 720 c 0,7,8
 263 720 263 720 291 712.5 c 128,-1,9
 319 705 319 705 337 680.5 c 128,-1,10
 355 656 355 656 365 635 c 128,-1,11
 375 614 375 614 379 562 c 0,12,13
 385 484 385 484 385 374.5 c 128,-1,14
 385 265 385 265 383.5 223 c 128,-1,15
 382 181 382 181 374.5 125 c 128,-1,16
 367 69 367 69 350 48 c 0,17,18
 307 -7 307 -7 223 -7 c 0,19,20
 183 -7 183 -7 154.5 1 c 128,-1,21
 126 9 126 9 108 34.5 c 128,-1,22
 90 60 90 60 80 81.5 c 128,-1,23
 70 103 70 103 66 155.5 c 128,-1,0
 62 208 62 208 61 244 c 128,-1,1
164 574 m 128,-1,25
 153 516 153 516 153 396 c 128,-1,26
 153 276 153 276 154 239 c 128,-1,27
 155 202 155 202 161.5 157.5 c 128,-1,28
 168 113 168 113 182.5 97 c 128,-1,29
 197 81 197 81 223 81 c 0,30,31
 270 81 270 81 281 141.5 c 128,-1,32
 292 202 292 202 292 322 c 128,-1,33
 292 442 292 442 291 478.5 c 128,-1,34
 290 515 290 515 283.5 558.5 c 128,-1,35
 277 602 277 602 262.5 617 c 128,-1,36
 248 632 248 632 223 632 c 0,37,24
 175 632 175 632 164 574 c 128,-1,25
EndSplineSet
EndChar

StartChar: one
Encoding: 49 49 20
Width: 410
GlyphClass: 2
Flags: W
LayerCount: 2
Fore
SplineSet
265 648 m 2,0,-1
 265 103 l 1,1,-1
 259 89 l 1,2,-1
 373 89 l 1,3,-1
 373 0 l 1,4,-1
 60 0 l 1,5,6
 60 64 60 64 69.5 76.5 c 128,-1,7
 79 89 79 89 132 89 c 2,8,-1
 178 89 l 1,9,-1
 172 103 l 1,10,-1
 172 622 l 1,11,-1
 112 612 l 1,12,-1
 112 697 l 1,13,-1
 187 708 l 1,14,-1
 194 708 l 2,15,16
 246 708 246 708 255.5 700.5 c 128,-1,17
 265 693 265 693 265 648 c 2,0,-1
EndSplineSet
EndChar

StartChar: two
Encoding: 50 50 21
Width: 410
GlyphClass: 2
Flags: W
LayerCount: 2
Fore
SplineSet
371 87 m 1,0,-1
 371 0 l 1,1,-1
 62 0 l 1,2,-1
 62 231 l 2,3,4
 62 298 62 298 136 368 c 0,5,6
 167 398 167 398 198 427 c 0,7,8
 272 496 272 496 272 554 c 0,9,10
 272 592 272 592 263.5 607 c 128,-1,11
 255 622 255 622 237.5 627 c 128,-1,12
 220 632 220 632 191 632 c 2,13,-1
 125 632 l 2,14,15
 76 632 76 632 68 642 c 128,-1,16
 60 652 60 652 60 709 c 1,17,-1
 194 720 l 1,18,19
 285 720 285 720 318 698 c 1,20,21
 338 686 338 686 349 674.5 c 128,-1,22
 360 663 360 663 364 638 c 0,23,24
 371 603 371 603 371 557 c 128,-1,25
 371 511 371 511 349 475 c 128,-1,26
 327 439 327 439 296 409 c 128,-1,27
 265 379 265 379 234 350 c 0,28,29
 159 280 159 280 159 224 c 2,30,-1
 159 93 l 1,31,-1
 158 87 l 1,32,-1
 371 87 l 1,0,-1
EndSplineSet
EndChar

StartChar: three
Encoding: 51 51 22
Width: 410
GlyphClass: 2
Flags: W
LayerCount: 2
Fore
SplineSet
60 88 m 1,0,1
 140 78 140 78 188 78 c 128,-1,2
 236 78 236 78 244.5 106.5 c 128,-1,3
 253 135 253 135 253 243 c 128,-1,4
 253 351 253 351 244.5 377.5 c 128,-1,5
 236 404 236 404 193 404 c 2,6,-1
 122 404 l 1,7,-1
 214 624 l 1,8,-1
 61 624 l 1,9,-1
 61 708 l 1,10,-1
 346 708 l 1,11,-1
 253 485 l 1,12,13
 301 478 301 478 326 448 c 0,14,15
 343 428 343 428 346 354 c 0,16,17
 347 329 347 329 347 278 c 2,18,-1
 347 243 l 2,19,20
 347 81 347 81 325.5 37 c 128,-1,21
 304 -7 304 -7 198 -7 c 0,22,23
 161 -7 161 -7 117.5 0.5 c 128,-1,24
 74 8 74 8 60 10 c 1,25,-1
 60 88 l 1,0,1
EndSplineSet
EndChar

StartChar: four
Encoding: 52 52 23
Width: 410
GlyphClass: 2
Flags: W
LayerCount: 2
Fore
SplineSet
367 232 m 1,0,-1
 323 232 l 1,1,2
 323 225 323 225 329 219 c 1,3,-1
 327 0 l 1,4,5
 262 0 262 0 250.5 7.5 c 128,-1,6
 239 15 239 15 239 60 c 2,7,-1
 239 217 l 1,8,-1
 245 232 l 1,9,-1
 10 232 l 1,10,-1
 232 708 l 1,11,-1
 329 708 l 1,12,-1
 329 330 l 1,13,-1
 323 316 l 1,14,-1
 367 316 l 1,15,-1
 367 232 l 1,0,-1
239 330 m 1,16,-1
 239 531 l 1,17,-1
 148 316 l 1,18,-1
 245 316 l 1,19,-1
 239 330 l 1,16,-1
EndSplineSet
EndChar

StartChar: five
Encoding: 53 53 24
Width: 410
GlyphClass: 2
Flags: W
LayerCount: 2
Fore
SplineSet
223 487 m 2,0,1
 264 487 264 487 280 480 c 128,-1,2
 296 473 296 473 304.5 468.5 c 128,-1,3
 313 464 313 464 320 452.5 c 128,-1,4
 327 441 327 441 331.5 433 c 128,-1,5
 336 425 336 425 339 406 c 128,-1,6
 342 387 342 387 343.5 375.5 c 128,-1,7
 345 364 345 364 346 337 c 128,-1,8
 347 310 347 310 347 294 c 2,9,-1
 347 186 l 2,10,11
 347 124 347 124 344 106.5 c 128,-1,12
 341 89 341 89 337.5 69 c 128,-1,13
 334 49 334 49 328.5 42.5 c 128,-1,14
 323 36 323 36 314.5 24 c 128,-1,15
 306 12 306 12 296 8 c 2,16,-1
 270 0 l 2,17,18
 249 -7 249 -7 197 -7 c 1,19,-1
 60 0 l 1,20,-1
 60 78 l 1,21,-1
 193 78 l 2,22,23
 236 78 236 78 245 106.5 c 128,-1,24
 254 135 254 135 254 243 c 128,-1,25
 254 351 254 351 245.5 377.5 c 128,-1,26
 237 404 237 404 193 404 c 2,27,-1
 60 404 l 1,28,-1
 60 709 l 1,29,-1
 337 708 l 1,30,-1
 337 624 l 1,31,-1
 148 624 l 1,32,33
 148 617 148 617 154 611 c 1,34,-1
 154 502 l 1,35,-1
 149 487 l 1,36,-1
 223 487 l 2,0,1
EndSplineSet
EndChar

StartChar: six
Encoding: 54 54 25
Width: 410
GlyphClass: 2
Flags: W
LayerCount: 2
Fore
SplineSet
216 84 m 0,0,1
 260 84 260 84 269 112 c 128,-1,2
 278 140 278 140 278 245 c 128,-1,3
 278 350 278 350 268.5 379.5 c 128,-1,4
 259 409 259 409 220 410 c 1,5,-1
 154 391 l 1,6,-1
 153 295 l 2,7,8
 153 291 153 291 153 256 c 128,-1,9
 153 221 153 221 154 194.5 c 128,-1,10
 155 168 155 168 160.5 136.5 c 128,-1,11
 166 105 166 105 179.5 94.5 c 128,-1,12
 193 84 193 84 216 84 c 0,0,1
371 250 m 2,13,-1
 371 194 l 2,14,15
 371 132 371 132 368 113.5 c 128,-1,16
 365 95 365 95 361 76 c 128,-1,17
 357 57 357 57 351.5 49.5 c 128,-1,18
 346 42 346 42 337 30.5 c 128,-1,19
 328 19 328 19 317 15.5 c 128,-1,20
 306 12 306 12 291 7 c 0,21,22
 270 0 270 0 228.5 0 c 128,-1,23
 187 0 187 0 165 4 c 128,-1,24
 143 8 143 8 127 19 c 128,-1,25
 111 30 111 30 99.5 40.5 c 128,-1,26
 88 51 88 51 80.5 73.5 c 128,-1,27
 73 96 73 96 69 114 c 128,-1,28
 65 132 65 132 63 166 c 0,29,30
 60 217 60 217 60 279 c 2,31,-1
 60 365 l 2,32,33
 60 452 60 452 63.5 483 c 128,-1,34
 67 514 67 514 71 546.5 c 128,-1,35
 75 579 75 579 81.5 597 c 128,-1,36
 88 615 88 615 97 638 c 128,-1,37
 106 661 106 661 118.5 673.5 c 128,-1,38
 131 686 131 686 146 698 c 0,39,40
 175 720 175 720 228 720 c 1,41,-1
 357 708 l 1,42,43
 357 652 357 652 349 642 c 128,-1,44
 341 632 341 632 293 632 c 2,45,-1
 228 632 l 2,46,47
 197 632 197 632 183.5 597.5 c 128,-1,48
 170 563 170 563 162 479 c 1,49,-1
 211 494 l 1,50,51
 325 494 325 494 348 452 c 128,-1,52
 371 410 371 410 371 250 c 2,13,-1
EndSplineSet
EndChar

StartChar: seven
Encoding: 55 55 26
Width: 410
GlyphClass: 2
Flags: W
LayerCount: 2
Fore
SplineSet
66 624 m 1,0,-1
 66 708 l 1,1,-1
 378 708 l 1,2,-1
 378 641 l 1,3,-1
 136 0 l 1,4,-1
 40 0 l 1,5,-1
 271 624 l 1,6,-1
 66 624 l 1,0,-1
EndSplineSet
EndChar

StartChar: eight
Encoding: 56 56 27
Width: 410
GlyphClass: 2
Flags: W
LayerCount: 2
Fore
SplineSet
198 -7 m 128,-1,1
 123 -7 123 -7 76.5 50 c 128,-1,2
 30 107 30 107 30 214 c 128,-1,3
 30 321 30 321 103 388 c 1,4,5
 49 448 49 448 49 544 c 128,-1,6
 49 640 49 640 91.5 683.5 c 128,-1,7
 134 727 134 727 198 727 c 128,-1,8
 262 727 262 727 305 683 c 128,-1,9
 348 639 348 639 348 541 c 128,-1,10
 348 443 348 443 296 381 c 1,11,12
 366 316 366 316 366 212 c 128,-1,13
 366 108 366 108 319.5 50.5 c 128,-1,0
 273 -7 273 -7 198 -7 c 128,-1,1
198 81 m 128,-1,15
 232 81 232 81 252 115 c 128,-1,16
 272 149 272 149 272 210 c 128,-1,17
 272 271 272 271 248.5 307 c 128,-1,18
 225 343 225 343 197.5 343 c 128,-1,19
 170 343 170 343 146.5 306.5 c 128,-1,20
 123 270 123 270 123 209.5 c 128,-1,21
 123 149 123 149 143.5 115 c 128,-1,14
 164 81 164 81 198 81 c 128,-1,15
198 432 m 0,22,23
 255 432 255 432 255 536 c 128,-1,24
 255 640 255 640 198 640 c 0,25,26
 143 640 143 640 143 536 c 128,-1,27
 143 432 143 432 198 432 c 0,22,23
EndSplineSet
EndChar

StartChar: nine
Encoding: 57 57 28
Width: 410
GlyphClass: 2
Flags: W
LayerCount: 2
Fore
SplineSet
162 608 m 128,-1,1
 153 580 153 580 153 476.5 c 128,-1,2
 153 373 153 373 164 342 c 128,-1,3
 175 311 175 311 214 310 c 1,4,-1
 277 334 l 1,5,-1
 278 424 l 1,6,7
 278 572 278 572 270 602 c 0,8,9
 260 636 260 636 215.5 636 c 128,-1,0
 171 636 171 636 162 608 c 128,-1,1
64.5 617.5 m 128,-1,11
 69 637 69 637 74 656 c 128,-1,12
 79 675 79 675 87 682 c 128,-1,13
 95 689 95 689 106 699 c 128,-1,14
 117 709 117 709 133 712 c 0,15,16
 176 720 176 720 210.5 720 c 128,-1,17
 245 720 245 720 266 718 c 128,-1,18
 287 716 287 716 304 707.5 c 128,-1,19
 321 699 321 699 331.5 691.5 c 128,-1,20
 342 684 342 684 350 663 c 128,-1,21
 358 642 358 642 362 626 c 128,-1,22
 366 610 366 610 368 573 c 0,23,24
 371 518 371 518 371 446 c 128,-1,25
 371 374 371 374 370.5 346.5 c 128,-1,26
 370 319 370 319 368.5 275.5 c 128,-1,27
 367 232 367 232 364 208 c 128,-1,28
 361 184 361 184 354.5 150.5 c 128,-1,29
 348 117 348 117 339 98 c 128,-1,30
 330 79 330 79 316.5 57.5 c 128,-1,31
 303 36 303 36 286 26 c 0,32,33
 243 0 243 0 191 0 c 1,34,-1
 64 12 l 1,35,-1
 64 87 l 1,36,-1
 193 87 l 2,37,38
 226 87 226 87 243.5 125.5 c 128,-1,39
 261 164 261 164 269 249 c 1,40,-1
 218 225 l 1,41,42
 106 225 106 225 83 267.5 c 128,-1,43
 60 310 60 310 60 454 c 128,-1,10
 60 598 60 598 64.5 617.5 c 128,-1,11
EndSplineSet
EndChar

StartChar: colon
Encoding: 58 58 29
Width: 192
GlyphClass: 2
Flags: W
LayerCount: 2
Fore
SplineSet
52 18 m 128,-1,1
 34 36 34 36 34 60.5 c 128,-1,2
 34 85 34 85 52 102 c 128,-1,3
 70 119 70 119 94 119 c 128,-1,4
 118 119 118 119 136 102 c 128,-1,5
 154 85 154 85 154 60.5 c 128,-1,6
 154 36 154 36 136 18 c 128,-1,7
 118 0 118 0 94 0 c 128,-1,0
 70 0 70 0 52 18 c 128,-1,1
58 436 m 128,-1,9
 40 454 40 454 40 478.5 c 128,-1,10
 40 503 40 503 58 520 c 128,-1,11
 76 537 76 537 100.5 537 c 128,-1,12
 125 537 125 537 143 520 c 128,-1,13
 161 503 161 503 161 478.5 c 128,-1,14
 161 454 161 454 142.5 436 c 128,-1,15
 124 418 124 418 100 418 c 128,-1,8
 76 418 76 418 58 436 c 128,-1,9
EndSplineSet
EndChar

StartChar: semicolon
Encoding: 59 59 30
Width: 189
GlyphClass: 2
Flags: W
LayerCount: 2
Fore
SplineSet
63 436 m 128,-1,1
 45 454 45 454 45 478.5 c 128,-1,2
 45 503 45 503 63 520 c 128,-1,3
 81 537 81 537 105.5 537 c 128,-1,4
 130 537 130 537 148 520 c 128,-1,5
 166 503 166 503 166 478.5 c 128,-1,6
 166 454 166 454 148 436 c 128,-1,7
 130 418 130 418 105.5 418 c 128,-1,0
 81 418 81 418 63 436 c 128,-1,1
48 19 m 1,8,-1
 39 60 l 1,9,10
 39 85 39 85 57 102 c 128,-1,11
 75 119 75 119 100 119 c 0,12,13
 154 119 154 119 154 65 c 0,14,15
 154 45 154 45 135.5 0.5 c 128,-1,16
 117 -44 117 -44 98 -79 c 2,17,-1
 80 -114 l 1,18,-1
 31 -86 l 1,19,-1
 26 -69 l 1,20,21
 48 -13 48 -13 48 19 c 1,8,-1
EndSplineSet
EndChar

StartChar: less
Encoding: 60 60 31
Width: 267
GlyphClass: 2
Flags: W
LayerCount: 2
Fore
SplineSet
12 282 m 1,0,-1
 12 316 l 1,1,-1
 143 537 l 1,2,-1
 235 537 l 1,3,-1
 95 299 l 1,4,-1
 236 53 l 1,5,-1
 143 53 l 1,6,-1
 12 282 l 1,0,-1
EndSplineSet
EndChar

StartChar: equal
Encoding: 61 61 32
Width: 368
GlyphClass: 2
Flags: W
LayerCount: 2
Fore
SplineSet
45 411 m 1,0,-1
 334 411 l 1,1,-1
 334 328 l 1,2,-1
 45 328 l 1,3,-1
 45 411 l 1,0,-1
45 279 m 1,4,-1
 334 279 l 1,5,-1
 334 196 l 1,6,-1
 45 196 l 1,7,-1
 45 279 l 1,4,-1
EndSplineSet
EndChar

StartChar: greater
Encoding: 62 62 33
Width: 265
GlyphClass: 2
Flags: W
LayerCount: 2
Fore
SplineSet
253 316 m 1,0,-1
 253 282 l 1,1,-1
 122 53 l 1,2,-1
 31 53 l 1,3,-1
 170 299 l 1,4,-1
 31 537 l 1,5,-1
 122 537 l 1,6,-1
 253 316 l 1,0,-1
EndSplineSet
EndChar

StartChar: question
Encoding: 63 63 34
Width: 340
GlyphClass: 2
Flags: W
LayerCount: 2
Fore
SplineSet
64 18 m 128,-1,1
 46 36 46 36 46 60.5 c 128,-1,2
 46 85 46 85 64 102 c 128,-1,3
 82 119 82 119 106 119 c 128,-1,4
 130 119 130 119 148 102 c 128,-1,5
 166 85 166 85 166 60.5 c 128,-1,6
 166 36 166 36 148 18 c 128,-1,7
 130 0 130 0 106 0 c 128,-1,0
 82 0 82 0 64 18 c 128,-1,1
63 188 m 1,8,-1
 63 231 l 1,9,10
 64 276 64 276 88 323 c 128,-1,11
 112 370 112 370 140.5 403.5 c 128,-1,12
 169 437 169 437 192.5 478.5 c 128,-1,13
 216 520 216 520 216 547 c 128,-1,14
 216 574 216 574 214 585.5 c 128,-1,15
 212 597 212 597 204 609 c 0,16,17
 189 632 189 632 130 632 c 2,18,-1
 94 632 l 2,19,20
 46 632 46 632 38 642 c 128,-1,21
 30 652 30 652 30 708 c 1,22,-1
 134 720 l 1,23,24
 206 720 206 720 230.5 710 c 128,-1,25
 255 700 255 700 267.5 694 c 128,-1,26
 280 688 280 688 288 673 c 128,-1,27
 296 658 296 658 300.5 649.5 c 128,-1,28
 305 641 305 641 307 618.5 c 128,-1,29
 309 596 309 596 309 586 c 2,30,-1
 309 547 l 2,31,32
 309 500 309 500 285.5 453.5 c 128,-1,33
 262 407 262 407 234 375 c 0,34,35
 158 288 158 288 153 231 c 1,36,-1
 153 188 l 1,37,-1
 63 188 l 1,8,-1
EndSplineSet
EndChar

StartChar: at
Encoding: 64 64 35
Width: 543
GlyphClass: 2
Flags: W
LayerCount: 2
Fore
SplineSet
292 331 m 1,0,-1
 249 327 l 1,1,-1
 238 264 l 1,2,3
 237 240 237 240 247 225 c 1,4,-1
 292 246 l 1,5,-1
 292 331 l 1,0,-1
369 409 m 1,6,-1
 369 227 l 1,7,-1
 371 227 l 2,8,9
 411 227 411 227 418.5 237 c 128,-1,10
 426 247 426 247 426 286 c 2,11,-1
 426 443 l 2,12,13
 426 462 426 462 408 462 c 0,14,15
 406 462 406 462 404 462 c 2,16,-1
 173 448 l 2,17,18
 150 447 150 447 138.5 438 c 128,-1,19
 127 429 127 429 125.5 420.5 c 128,-1,20
 124 412 124 412 124 393 c 0,21,22
 124 198 124 198 134 135.5 c 128,-1,23
 144 73 144 73 190 73 c 2,24,-1
 361 73 l 2,25,26
 406 73 406 73 415 57.5 c 128,-1,27
 424 42 424 42 424 -15 c 1,28,-1
 187 -15 l 2,29,30
 101 -15 101 -15 72 43 c 128,-1,31
 43 101 43 101 41 274 c 0,32,33
 41 307 41 307 41 385 c 128,-1,34
 41 463 41 463 64.5 494.5 c 128,-1,35
 88 526 88 526 172 531 c 2,36,-1
 400 544 l 2,37,38
 404 544 404 544 409 544 c 0,39,40
 465 544 465 544 486 518 c 128,-1,41
 507 492 507 492 507 438 c 2,42,-1
 507 288 l 2,43,44
 507 191 507 191 490 175 c 0,45,46
 466 153 466 153 436 151 c 128,-1,47
 406 149 406 149 371 149 c 2,48,-1
 361 149 l 2,49,50
 327 149 327 149 313 166 c 0,51,52
 308 172 308 172 302 183 c 1,53,-1
 252 144 l 1,54,55
 228 144 228 144 217 144.5 c 128,-1,56
 206 145 206 145 194.5 151 c 128,-1,57
 183 157 183 157 179 162.5 c 128,-1,58
 175 168 175 168 171.5 187.5 c 128,-1,59
 168 207 168 207 168 225 c 2,60,-1
 168 317 l 2,61,62
 168 407 168 407 311 409 c 1,63,-1
 369 409 l 1,6,-1
EndSplineSet
EndChar

StartChar: A
Encoding: 65 65 36
Width: 452
GlyphClass: 2
Flags: W
LayerCount: 2
Fore
SplineSet
399 0 m 2,0,1
 348 0 348 0 337.5 8 c 128,-1,2
 327 16 327 16 318 61 c 2,3,-1
 284 230 l 1,4,-1
 158 230 l 1,5,-1
 117 0 l 1,6,-1
 94 0 l 2,7,8
 46 0 46 0 33 5.5 c 128,-1,9
 20 11 20 11 20 31.5 c 128,-1,10
 20 52 20 52 172 720 c 1,11,-1
 268 720 l 1,12,-1
 432 0 l 1,13,-1
 399 0 l 2,0,1
215 538 m 1,14,-1
 178 343 l 1,15,-1
 170 326 l 1,16,-1
 273 326 l 1,17,18
 272 327 272 327 268 335.5 c 128,-1,19
 264 344 264 344 264 345 c 2,20,-1
 225 538 l 1,21,-1
 215 538 l 1,14,-1
EndSplineSet
EndChar

StartChar: B
Encoding: 66 66 37
Width: 443
GlyphClass: 2
Flags: W
LayerCount: 2
Fore
SplineSet
375 566 m 2,0,-1
 375 526 l 2,1,2
 375 472 375 472 370 446.5 c 128,-1,3
 365 421 365 421 348 397 c 1,4,5
 384 366 384 366 398.5 326.5 c 128,-1,6
 413 287 413 287 413 204 c 0,7,8
 413 119 413 119 407.5 100 c 128,-1,9
 402 81 402 81 395 64.5 c 128,-1,10
 388 48 388 48 378.5 39.5 c 128,-1,11
 369 31 369 31 354 20.5 c 128,-1,12
 339 10 339 10 320 5 c 0,13,14
 274 -7 274 -7 217 -7 c 1,15,-1
 60 1 l 1,16,-1
 60 721 l 1,17,-1
 197 732 l 1,18,19
 287 732 287 732 322 706 c 0,20,21
 336 696 336 696 344.5 688 c 128,-1,22
 353 680 353 680 359 663.5 c 128,-1,23
 365 647 365 647 368 636 c 0,24,25
 375 616 375 616 375 566 c 2,0,-1
196 428 m 2,26,27
 256 428 256 428 271 445 c 128,-1,28
 286 462 286 462 286 528 c 128,-1,29
 286 594 286 594 269.5 619.5 c 128,-1,30
 253 645 253 645 196 645 c 2,31,-1
 150 645 l 1,32,-1
 157 624 l 1,33,-1
 157 448 l 1,34,-1
 148 428 l 1,35,-1
 196 428 l 2,26,27
216 73 m 2,36,37
 287 73 287 73 306.5 99.5 c 128,-1,38
 326 126 326 126 326 180.5 c 128,-1,39
 326 235 326 235 323 259.5 c 128,-1,40
 320 284 320 284 310 308 c 0,41,42
 289 357 289 357 216 357 c 2,43,-1
 147 357 l 1,44,-1
 156 336 l 1,45,-1
 156 94 l 1,46,-1
 147 73 l 1,47,-1
 216 73 l 2,36,37
EndSplineSet
EndChar

StartChar: C
Encoding: 67 67 38
Width: 402
GlyphClass: 2
Flags: W
LayerCount: 2
Fore
SplineSet
148 366 m 128,-1,1
 148 293 148 293 149.5 258 c 128,-1,2
 151 223 151 223 158 178.5 c 128,-1,3
 165 134 165 134 182 116 c 128,-1,4
 199 98 199 98 228 98 c 128,-1,5
 257 98 257 98 307 102.5 c 128,-1,6
 357 107 357 107 372 108 c 1,7,-1
 372 11 l 1,8,9
 363 10 363 10 312.5 1.5 c 128,-1,10
 262 -7 262 -7 232 -7 c 128,-1,11
 202 -7 202 -7 178 -0.5 c 128,-1,12
 154 6 154 6 136 15.5 c 128,-1,13
 118 25 118 25 104 44.5 c 128,-1,14
 90 64 90 64 81 80 c 128,-1,15
 72 96 72 96 66 126.5 c 128,-1,16
 60 157 60 157 57 177 c 128,-1,17
 54 197 54 197 52 236.5 c 128,-1,18
 50 276 50 276 50 298 c 2,19,-1
 50 433 l 2,20,21
 50 505 50 505 55 538.5 c 128,-1,22
 60 572 60 572 66 602 c 128,-1,23
 72 632 72 632 81 647.5 c 128,-1,24
 90 663 90 663 104 682 c 128,-1,25
 118 701 118 701 136 710 c 0,26,27
 180 732 180 732 232 732 c 1,28,-1
 371 700 l 1,29,30
 363 642 363 642 341 628 c 0,31,32
 329 621 329 621 307 621 c 128,-1,33
 285 621 285 621 255 627 c 1,34,-1
 227 634 l 1,35,36
 199 634 199 634 182 616 c 128,-1,37
 165 598 165 598 158 553.5 c 128,-1,38
 151 509 151 509 149.5 474 c 128,-1,0
 148 439 148 439 148 366 c 128,-1,1
EndSplineSet
EndChar

StartChar: D
Encoding: 68 68 39
Width: 480
GlyphClass: 2
Flags: W
LayerCount: 2
Fore
SplineSet
428.5 485.5 m 128,-1,1
 430 447 430 447 430 384 c 2,2,-1
 430 298 l 2,3,4
 430 224 430 224 425 190.5 c 128,-1,5
 420 157 420 157 414 126.5 c 128,-1,6
 408 96 408 96 399 80 c 128,-1,7
 390 64 390 64 376.5 44.5 c 128,-1,8
 363 25 363 25 346 16 c 0,9,10
 304 -7 304 -7 250 -7 c 1,11,-1
 60 0 l 1,12,-1
 60 722 l 1,13,-1
 250 732 l 1,14,15
 302 732 302 732 337.5 711.5 c 128,-1,16
 373 691 373 691 391 665 c 128,-1,17
 409 639 409 639 418 581.5 c 128,-1,0
 427 524 427 524 428.5 485.5 c 128,-1,1
250 82 m 2,18,19
 283 82 283 82 299 105 c 0,20,21
 308 118 308 118 314.5 130 c 128,-1,22
 321 142 321 142 324.5 166 c 128,-1,23
 328 190 328 190 330.5 207 c 128,-1,24
 333 224 333 224 334 256.5 c 128,-1,25
 335 289 335 289 335 308 c 2,26,-1
 335 423 l 2,27,28
 335 493 335 493 331.5 515.5 c 128,-1,29
 328 538 328 538 324.5 561.5 c 128,-1,30
 321 585 321 585 314.5 596.5 c 128,-1,31
 308 608 308 608 299 620 c 0,32,33
 283 643 283 643 250 643 c 2,34,-1
 147 643 l 1,35,-1
 155 618 l 1,36,-1
 155 107 l 1,37,-1
 146 82 l 1,38,-1
 250 82 l 2,18,19
EndSplineSet
EndChar

StartChar: E
Encoding: 69 69 40
Width: 404
GlyphClass: 2
Flags: W
LayerCount: 2
Fore
SplineSet
374 89 m 1,0,-1
 374 0 l 1,1,-1
 60 0 l 1,2,-1
 60 720 l 1,3,-1
 364 720 l 1,4,-1
 364 635 l 1,5,-1
 149 635 l 1,6,-1
 158 610 l 1,7,-1
 158 457 l 1,8,-1
 149 432 l 1,9,-1
 352 432 l 1,10,-1
 352 343 l 1,11,-1
 150 343 l 1,12,-1
 158 320 l 1,13,-1
 158 114 l 1,14,-1
 149 89 l 1,15,-1
 374 89 l 1,0,-1
EndSplineSet
EndChar

StartChar: F
Encoding: 70 70 41
Width: 394
GlyphClass: 2
Flags: W
LayerCount: 2
Fore
SplineSet
352 432 m 1,0,-1
 352 343 l 1,1,-1
 150 343 l 1,2,-1
 158 320 l 1,3,-1
 158 0 l 1,4,-1
 133 0 l 2,5,6
 79 0 79 0 69.5 7.5 c 128,-1,7
 60 15 60 15 60 61 c 2,8,-1
 60 720 l 1,9,-1
 364 720 l 1,10,-1
 364 635 l 1,11,-1
 149 635 l 1,12,-1
 158 610 l 1,13,-1
 158 457 l 1,14,-1
 149 432 l 1,15,-1
 352 432 l 1,0,-1
EndSplineSet
EndChar

StartChar: G
Encoding: 71 71 42
Width: 459
GlyphClass: 2
Flags: W
LayerCount: 2
Fore
SplineSet
155 423 m 2,0,-1
 155 308 l 2,1,2
 155 238 155 238 158.5 214 c 128,-1,3
 162 190 162 190 165.5 166 c 128,-1,4
 169 142 169 142 175.5 130 c 128,-1,5
 182 118 182 118 191 105 c 128,-1,6
 200 92 200 92 212 87 c 128,-1,7
 224 82 224 82 240 82 c 0,8,9
 264 82 264 82 324 92 c 1,10,-1
 316 117 l 1,11,-1
 316 309 l 2,12,13
 316 364 316 364 323.5 373 c 128,-1,14
 331 382 331 382 376 382 c 2,15,-1
 409 382 l 1,16,-1
 409 10 l 1,17,18
 392 8 392 8 356 3 c 0,19,20
 286 -7 286 -7 248 -7 c 128,-1,21
 210 -7 210 -7 186 -0.5 c 128,-1,22
 162 6 162 6 144.5 15.5 c 128,-1,23
 127 25 127 25 113.5 44.5 c 128,-1,24
 100 64 100 64 91 80 c 128,-1,25
 82 96 82 96 76 126.5 c 128,-1,26
 70 157 70 157 67 177 c 128,-1,27
 64 197 64 197 62 236.5 c 128,-1,28
 60 276 60 276 60 298 c 2,29,-1
 60 366 l 2,30,31
 60 447 60 447 61.5 485.5 c 128,-1,32
 63 524 63 524 72 581.5 c 128,-1,33
 81 639 81 639 99 665 c 128,-1,34
 117 691 117 691 152.5 711.5 c 128,-1,35
 188 732 188 732 240 732 c 1,36,-1
 389 700 l 1,37,38
 381 643 381 643 362 633 c 0,39,40
 353 629 353 629 333.5 629 c 128,-1,41
 314 629 314 629 278 636 c 2,42,-1
 240 643 l 1,43,44
 207 643 207 643 191 620 c 0,45,46
 182 608 182 608 175.5 596.5 c 128,-1,47
 169 585 169 585 165.5 561.5 c 128,-1,48
 162 538 162 538 160 522 c 0,49,50
 155 493 155 493 155 423 c 2,0,-1
EndSplineSet
EndChar

StartChar: H
Encoding: 72 72 43
Width: 465
GlyphClass: 2
Flags: W
LayerCount: 2
Fore
SplineSet
153 61 m 2,0,1
 153 15 153 15 143.5 7.5 c 128,-1,2
 134 0 134 0 81 0 c 2,3,-1
 60 0 l 1,4,-1
 60 720 l 1,5,-1
 81 720 l 2,6,7
 134 720 134 720 143.5 712.5 c 128,-1,8
 153 705 153 705 153 659 c 2,9,-1
 153 457 l 1,10,-1
 149 432 l 1,11,-1
 314 432 l 1,12,-1
 311 457 l 1,13,-1
 311 720 l 1,14,-1
 333 720 l 2,15,16
 386 720 386 720 395.5 712.5 c 128,-1,17
 405 705 405 705 405 659 c 2,18,-1
 405 0 l 1,19,-1
 385 0 l 2,20,21
 330 0 330 0 320.5 7.5 c 128,-1,22
 311 15 311 15 311 61 c 2,23,-1
 311 322 l 1,24,-1
 319 343 l 1,25,-1
 145 343 l 1,26,-1
 153 320 l 1,27,-1
 153 61 l 2,0,1
EndSplineSet
EndChar

StartChar: I
Encoding: 73 73 44
Width: 215
GlyphClass: 2
Flags: W
LayerCount: 2
Fore
SplineSet
60 61 m 2,0,-1
 60 720 l 1,1,-1
 81 720 l 2,2,3
 136 720 136 720 145.5 712.5 c 128,-1,4
 155 705 155 705 155 659 c 2,5,-1
 155 0 l 1,6,-1
 132 0 l 2,7,8
 78 0 78 0 69 7.5 c 128,-1,9
 60 15 60 15 60 61 c 2,0,-1
EndSplineSet
EndChar

StartChar: J
Encoding: 74 74 45
Width: 214
GlyphClass: 2
Flags: W
LayerCount: 2
Fore
SplineSet
60 720 m 1,0,-1
 82 720 l 2,1,2
 136 720 136 720 145 712.5 c 128,-1,3
 154 705 154 705 154 659 c 2,4,-1
 154 90 l 2,5,6
 154 21 154 21 150 -5.5 c 128,-1,7
 146 -32 146 -32 141.5 -59 c 128,-1,8
 137 -86 137 -86 130 -99 c 128,-1,9
 123 -112 123 -112 112.5 -130 c 128,-1,10
 102 -148 102 -148 87.5 -157 c 128,-1,11
 73 -166 73 -166 55 -175 c 0,12,13
 23 -191 23 -191 -39 -191 c 1,14,-1
 -39 -112 l 1,15,16
 12 -112 12 -112 30 -78 c 0,17,18
 41 -58 41 -58 47.5 -40.5 c 128,-1,19
 54 -23 54 -23 56 14 c 0,20,21
 60 67 60 67 60 150 c 2,22,-1
 60 720 l 1,0,-1
EndSplineSet
EndChar

StartChar: K
Encoding: 75 75 46
Width: 464
GlyphClass: 2
Flags: W
LayerCount: 2
Fore
SplineSet
410 712 m 128,-1,1
 418 706 418 706 418 694.5 c 128,-1,2
 418 683 418 683 268 363 c 1,3,-1
 444 0 l 1,4,-1
 414 0 l 2,5,6
 365 0 365 0 346.5 9.5 c 128,-1,7
 328 19 328 19 312 55 c 2,8,-1
 167 363 l 1,9,-1
 335 720 l 1,10,-1
 350 720 l 2,11,12
 379 720 379 720 390.5 719 c 128,-1,0
 402 718 402 718 410 712 c 128,-1,1
153 659 m 2,13,-1
 153 61 l 2,14,15
 153 15 153 15 143.5 7.5 c 128,-1,16
 134 0 134 0 81 0 c 2,17,-1
 60 0 l 1,18,-1
 60 720 l 1,19,-1
 81 720 l 2,20,21
 134 720 134 720 143.5 712.5 c 128,-1,22
 153 705 153 705 153 659 c 2,13,-1
EndSplineSet
EndChar

StartChar: L
Encoding: 76 76 47
Width: 371
GlyphClass: 2
Flags: W
LayerCount: 2
Fore
SplineSet
278 89 m 2,0,1
 332 89 332 89 341.5 81 c 128,-1,2
 351 73 351 73 351 27 c 2,3,-1
 351 0 l 1,4,-1
 60 0 l 1,5,-1
 60 720 l 1,6,-1
 85 720 l 2,7,8
 139 720 139 720 148.5 712.5 c 128,-1,9
 158 705 158 705 158 659 c 2,10,-1
 158 114 l 1,11,-1
 149 89 l 1,12,-1
 278 89 l 2,0,1
EndSplineSet
EndChar

StartChar: M
Encoding: 77 77 48
Width: 556
GlyphClass: 2
Flags: W
LayerCount: 2
Fore
SplineSet
139 517 m 1,0,-1
 139 61 l 2,1,2
 139 15 139 15 129.5 7.5 c 128,-1,3
 120 0 120 0 67 0 c 2,4,-1
 45 0 l 1,5,-1
 45 720 l 1,6,-1
 68 720 l 2,7,8
 116 720 116 720 128 713 c 128,-1,9
 140 706 140 706 159 665 c 2,10,-1
 268 416 l 1,11,-1
 288 416 l 1,12,-1
 422 720 l 1,13,-1
 437 720 l 2,14,15
 491 720 491 720 500.5 712.5 c 128,-1,16
 510 705 510 705 510 659 c 2,17,-1
 510 0 l 1,18,-1
 488 0 l 2,19,20
 434 0 434 0 425 7.5 c 128,-1,21
 416 15 416 15 416 61 c 2,22,-1
 415 516 l 1,23,-1
 412 516 l 1,24,-1
 338 337 l 1,25,-1
 311 287 l 1,26,-1
 245 287 l 1,27,-1
 218 337 l 1,28,-1
 142 517 l 1,29,-1
 139 517 l 1,0,-1
EndSplineSet
EndChar

StartChar: N
Encoding: 78 78 49
Width: 436
GlyphClass: 2
Flags: W
LayerCount: 2
Fore
SplineSet
296 220 m 1,0,-1
 296 720 l 1,1,-1
 318 720 l 2,2,3
 372 720 372 720 381 712.5 c 128,-1,4
 390 705 390 705 390 659 c 2,5,-1
 390 0 l 1,6,-1
 360 0 l 2,7,8
 310 0 310 0 298 7.5 c 128,-1,9
 286 15 286 15 272 56 c 1,10,-1
 143 488 l 1,11,-1
 138 488 l 1,12,-1
 138 61 l 2,13,14
 138 15 138 15 129 7.5 c 128,-1,15
 120 0 120 0 66 0 c 2,16,-1
 45 0 l 1,17,-1
 45 720 l 1,18,-1
 67 720 l 2,19,20
 116 720 116 720 127 713 c 128,-1,21
 138 706 138 706 154 664 c 1,22,-1
 291 220 l 1,23,-1
 296 220 l 1,0,-1
EndSplineSet
EndChar

StartChar: O
Encoding: 79 79 50
Width: 487
GlyphClass: 2
Flags: W
LayerCount: 2
Fore
SplineSet
90.5 79 m 128,-1,1
 50 165 50 165 50 363 c 128,-1,2
 50 561 50 561 93 646.5 c 128,-1,3
 136 732 136 732 244.5 732 c 128,-1,4
 353 732 353 732 395 647 c 128,-1,5
 437 562 437 562 437 363 c 128,-1,6
 437 164 437 164 397.5 78.5 c 128,-1,7
 358 -7 358 -7 244.5 -7 c 128,-1,0
 131 -7 131 -7 90.5 79 c 128,-1,1
145 366 m 0,8,9
 145 223 145 223 167 152.5 c 128,-1,10
 189 82 189 82 244.5 82 c 128,-1,11
 300 82 300 82 322 152.5 c 128,-1,12
 344 223 344 223 344 365 c 0,13,14
 344 643 344 643 244.5 643 c 128,-1,15
 145 643 145 643 145 366 c 0,8,9
EndSplineSet
EndChar

StartChar: P
Encoding: 80 80 51
Width: 467
GlyphClass: 2
Flags: W
LayerCount: 2
Fore
SplineSet
154 61 m 2,0,1
 154 15 154 15 145 7.5 c 128,-1,2
 136 0 136 0 82 0 c 2,3,-1
 60 0 l 1,4,-1
 60 721 l 1,5,-1
 222 732 l 1,6,7
 322 732 322 732 360 706 c 0,8,9
 374 696 374 696 383.5 688 c 128,-1,10
 393 680 393 680 399.5 663.5 c 128,-1,11
 406 647 406 647 409.5 636.5 c 128,-1,12
 413 626 413 626 414 604 c 0,13,14
 417 566 417 566 417 527.5 c 128,-1,15
 417 489 417 489 416 469.5 c 128,-1,16
 415 450 415 450 409.5 422 c 128,-1,17
 404 394 404 394 392 380 c 128,-1,18
 380 366 380 366 359 352 c 0,19,20
 322 326 322 326 223 326 c 2,21,-1
 154 326 l 1,22,-1
 154 61 l 2,0,1
223 415 m 2,23,24
 272 415 272 415 299 431 c 0,25,26
 316 441 316 441 319 484 c 0,27,28
 320 498 320 498 320 528.5 c 128,-1,29
 320 559 320 559 319 572.5 c 128,-1,30
 318 586 318 586 313.5 603.5 c 128,-1,31
 309 621 309 621 299 627 c 0,32,33
 272 643 272 643 223 643 c 2,34,-1
 146 643 l 1,35,-1
 154 618 l 1,36,-1
 154 438 l 1,37,-1
 146 415 l 1,38,-1
 223 415 l 2,23,24
EndSplineSet
EndChar

StartChar: Q
Encoding: 81 81 52
Width: 485
GlyphClass: 2
Flags: W
LayerCount: 2
Fore
SplineSet
576 -142 m 2,0,1
 576 -174 576 -174 568 -179.5 c 128,-1,2
 560 -185 560 -185 523 -185 c 128,-1,3
 486 -185 486 -185 334 -163 c 128,-1,4
 182 -141 182 -141 155.5 -141 c 128,-1,5
 129 -141 129 -141 124 -142 c 1,6,-1
 102 -140 l 1,7,-1
 102 -116 l 2,8,9
 102 -88 102 -88 107.5 -78.5 c 128,-1,10
 113 -69 113 -69 123 -65 c 1,11,-1
 199 -2 l 1,12,13
 116 15 116 15 83 102.5 c 128,-1,14
 50 190 50 190 50 377 c 128,-1,15
 50 564 50 564 91.5 648 c 128,-1,16
 133 732 133 732 245 732 c 128,-1,17
 357 732 357 732 398 648 c 128,-1,18
 439 564 439 564 439 386.5 c 128,-1,19
 439 209 439 209 413.5 123.5 c 128,-1,20
 388 38 388 38 326 9 c 1,21,-1
 327 9 l 1,22,-1
 225 -64 l 1,23,24
 255 -67 255 -67 342 -78 c 0,25,26
 505 -97 505 -97 526.5 -97 c 128,-1,27
 548 -97 548 -97 553 -96 c 1,28,-1
 576 -98 l 1,29,-1
 576 -142 l 2,0,1
166 576.5 m 128,-1,31
 145 510 145 510 145 366.5 c 128,-1,32
 145 223 145 223 167 152.5 c 128,-1,33
 189 82 189 82 245 82 c 128,-1,34
 301 82 301 82 322.5 152 c 128,-1,35
 344 222 344 222 344 365 c 128,-1,36
 344 508 344 508 323 575.5 c 128,-1,37
 302 643 302 643 244.5 643 c 128,-1,30
 187 643 187 643 166 576.5 c 128,-1,31
EndSplineSet
EndChar

StartChar: R
Encoding: 82 82 53
Width: 470
GlyphClass: 2
Flags: W
LayerCount: 2
Fore
SplineSet
84 0 m 2,0,-1
 60 0 l 1,1,-1
 60 721 l 1,2,-1
 203 732 l 1,3,4
 293 732 293 732 327 706 c 0,5,6
 340 696 340 696 349 688 c 128,-1,7
 358 680 358 680 364 664 c 1,8,-1
 372 636 l 1,9,10
 379 617 379 617 379 586 c 2,11,-1
 379 528 l 2,12,13
 379 384 379 384 338 348 c 0,14,15
 320 332 320 332 291 329 c 1,16,-1
 450 0 l 1,17,-1
 417 0 l 2,18,19
 367 0 367 0 349 9.5 c 128,-1,20
 331 19 331 19 316 53 c 2,21,-1
 193 326 l 1,22,-1
 146 326 l 1,23,-1
 155 301 l 1,24,-1
 156 61 l 2,25,26
 156 15 156 15 147 7.5 c 128,-1,27
 138 0 138 0 84 0 c 2,0,-1
205 415 m 2,28,29
 259 415 259 415 270.5 437 c 128,-1,30
 282 459 282 459 282 509 c 128,-1,31
 282 559 282 559 281.5 572.5 c 128,-1,32
 281 586 281 586 277 603.5 c 128,-1,33
 273 621 273 621 265 627 c 0,34,35
 244 643 244 643 205 643 c 2,36,-1
 146 643 l 1,37,-1
 155 618 l 1,38,-1
 155 438 l 1,39,-1
 147 415 l 1,40,-1
 205 415 l 2,28,29
EndSplineSet
EndChar

StartChar: S
Encoding: 83 83 54
Width: 436
GlyphClass: 2
Flags: W
LayerCount: 2
Fore
SplineSet
40 99 m 1,0,1
 140 89 140 89 186 89 c 128,-1,2
 232 89 232 89 249.5 96 c 128,-1,3
 267 103 267 103 276 112.5 c 128,-1,4
 285 122 285 122 289 141 c 0,5,6
 294 165 294 165 294 200 c 128,-1,7
 294 235 294 235 277 261 c 128,-1,8
 260 287 260 287 245.5 300 c 128,-1,9
 231 313 231 313 193 346 c 128,-1,10
 155 379 155 379 139.5 393.5 c 128,-1,11
 124 408 124 408 96 439 c 0,12,13
 45 495 45 495 45 556 c 0,14,15
 45 662 45 662 67 686 c 0,16,17
 101 721 101 721 140 726.5 c 128,-1,18
 179 732 179 732 223 732 c 1,19,-1
 359 703 l 1,20,21
 351 646 351 646 336 636 c 1,22,23
 329 630 329 630 311.5 630 c 128,-1,24
 294 630 294 630 266 636 c 2,25,-1
 228 643 l 1,26,27
 169 643 169 643 156 619 c 0,28,29
 148 606 148 606 146.5 595 c 128,-1,30
 145 584 145 584 145 562 c 0,31,32
 145 521 145 521 246 436 c 1,33,34
 294 398 294 398 321 372 c 128,-1,35
 348 346 348 346 372 309 c 128,-1,36
 396 272 396 272 396 239 c 128,-1,37
 396 206 396 206 395.5 188.5 c 128,-1,38
 395 171 395 171 391.5 140.5 c 128,-1,39
 388 110 388 110 381 93 c 128,-1,40
 374 76 374 76 360 54 c 128,-1,41
 346 32 346 32 326 21 c 0,42,43
 275 -7 275 -7 204 -7 c 0,44,45
 164 -7 164 -7 111 2.5 c 128,-1,46
 58 12 58 12 40 14 c 1,47,-1
 40 99 l 1,0,1
EndSplineSet
EndChar

StartChar: T
Encoding: 84 84 55
Width: 363
GlyphClass: 2
Flags: W
LayerCount: 2
Fore
SplineSet
343 635 m 1,0,-1
 221 635 l 1,1,-1
 230 610 l 1,2,-1
 230 61 l 2,3,4
 230 15 230 15 220.5 7.5 c 128,-1,5
 211 0 211 0 157 0 c 2,6,-1
 133 0 l 1,7,-1
 133 610 l 1,8,-1
 140 635 l 1,9,-1
 20 635 l 1,10,-1
 20 720 l 1,11,-1
 343 720 l 1,12,-1
 343 635 l 1,0,-1
EndSplineSet
EndChar

StartChar: U
Encoding: 85 85 56
Width: 471
GlyphClass: 2
Flags: W
LayerCount: 2
Fore
SplineSet
324 300 m 2,0,-1
 324 720 l 1,1,-1
 349 720 l 2,2,3
 402 720 402 720 411.5 712.5 c 128,-1,4
 421 705 421 705 421 659 c 2,5,-1
 421 300 l 2,6,7
 421 146 421 146 413.5 119.5 c 128,-1,8
 406 93 406 93 397.5 69 c 128,-1,9
 389 45 389 45 376 34.5 c 128,-1,10
 363 24 363 24 344 12 c 0,11,12
 312 -7 312 -7 239 -7 c 0,13,14
 180 -7 180 -7 157.5 3 c 128,-1,15
 135 13 135 13 122 19.5 c 128,-1,16
 109 26 109 26 99 42 c 128,-1,17
 89 58 89 58 82.5 68 c 128,-1,18
 76 78 76 78 72 102.5 c 128,-1,19
 68 127 68 127 65.5 141 c 128,-1,20
 63 155 63 155 62 188.5 c 128,-1,21
 61 222 61 222 61 240 c 2,22,-1
 61 720 l 1,23,-1
 85 720 l 2,24,25
 139 720 139 720 148 712.5 c 128,-1,26
 157 705 157 705 157 659 c 2,27,-1
 157 268 l 2,28,29
 157 159 157 159 170.5 120.5 c 128,-1,30
 184 82 184 82 239 82 c 0,31,32
 260 82 260 82 274.5 86.5 c 128,-1,33
 289 91 289 91 298.5 106 c 128,-1,34
 308 121 308 121 313.5 133.5 c 128,-1,35
 319 146 319 146 321 178 c 0,36,37
 324 225 324 225 324 300 c 2,0,-1
EndSplineSet
EndChar

StartChar: V
Encoding: 86 86 57
Width: 446
GlyphClass: 2
Flags: W
LayerCount: 2
Fore
SplineSet
365 720 m 2,0,1
 404 720 404 720 415 715.5 c 128,-1,2
 426 711 426 711 426 693 c 128,-1,3
 426 675 426 675 272 0 c 1,4,-1
 182 0 l 1,5,-1
 20 720 l 1,6,-1
 56 720 l 2,7,8
 102 720 102 720 111 712.5 c 128,-1,9
 120 705 120 705 130 661 c 1,10,-1
 221 163 l 1,11,-1
 232 163 l 1,12,-1
 337 720 l 1,13,-1
 365 720 l 2,0,1
EndSplineSet
EndChar

StartChar: W
Encoding: 87 87 58
Width: 638
GlyphClass: 2
Flags: W
LayerCount: 2
Fore
SplineSet
546 720 m 2,0,1
 585 720 585 720 596.5 715.5 c 128,-1,2
 608 711 608 711 608 694 c 128,-1,3
 608 677 608 677 484 0 c 1,4,-1
 394 0 l 1,5,-1
 329 341 l 1,6,-1
 319 341 l 1,7,-1
 252 0 l 1,8,-1
 163 0 l 1,9,-1
 30 720 l 1,10,-1
 78 720 l 2,11,12
 124 720 124 720 133.5 712.5 c 128,-1,13
 143 705 143 705 152 661 c 1,14,-1
 211 185 l 1,15,-1
 218 185 l 1,16,-1
 254 425 l 1,17,-1
 276 507 l 1,18,-1
 372 507 l 1,19,-1
 392 425 l 1,20,-1
 429 187 l 1,21,-1
 437 187 l 1,22,-1
 505 720 l 1,23,-1
 546 720 l 2,0,1
EndSplineSet
EndChar

StartChar: X
Encoding: 88 88 59
Width: 422
GlyphClass: 2
Flags: W
LayerCount: 2
Fore
SplineSet
66 0 m 2,0,-1
 20 0 l 1,1,-1
 161 355 l 1,2,-1
 29 720 l 1,3,-1
 76 720 l 2,4,5
 116 720 116 720 125.5 713 c 128,-1,6
 135 706 135 706 150 663 c 1,7,-1
 216 435 l 1,8,-1
 232 435 l 1,9,-1
 312 720 l 1,10,-1
 332 720 l 2,11,12
 372 720 372 720 384.5 716 c 128,-1,13
 397 712 397 712 397 692 c 0,14,15
 397 682 397 682 270 356 c 1,16,-1
 402 0 l 1,17,-1
 358 0 l 2,18,19
 319 0 319 0 307 10 c 128,-1,20
 295 20 295 20 285 57 c 2,21,-1
 223 269 l 1,22,-1
 207 269 l 1,23,-1
 139 55 l 1,24,25
 123 14 123 14 114 7 c 128,-1,26
 105 0 105 0 66 0 c 2,0,-1
EndSplineSet
EndChar

StartChar: Y
Encoding: 89 89 60
Width: 409
GlyphClass: 2
Flags: W
LayerCount: 2
Fore
SplineSet
330 720 m 2,0,1
 366 720 366 720 377.5 716 c 128,-1,2
 389 712 389 712 389 696 c 128,-1,3
 389 680 389 680 258 345 c 1,4,-1
 258 0 l 1,5,-1
 236 0 l 2,6,7
 182 0 182 0 172.5 7.5 c 128,-1,8
 163 15 163 15 163 61 c 2,9,-1
 163 346 l 1,10,-1
 20 720 l 1,11,-1
 59 720 l 2,12,13
 102 720 102 720 112 713 c 128,-1,14
 122 706 122 706 138 664 c 1,15,-1
 204 463 l 1,16,-1
 219 463 l 1,17,-1
 304 720 l 1,18,-1
 330 720 l 2,0,1
EndSplineSet
EndChar

StartChar: Z
Encoding: 90 90 61
Width: 376
GlyphClass: 2
Flags: W
LayerCount: 2
Fore
SplineSet
271 89 m 2,0,1
 324 89 324 89 333.5 76.5 c 128,-1,2
 343 64 343 64 343 0 c 1,3,-1
 30 0 l 1,4,-1
 30 74 l 1,5,-1
 238 635 l 1,6,-1
 30 635 l 1,7,8
 30 698 30 698 37.5 708.5 c 128,-1,9
 45 719 45 719 90 719 c 2,10,-1
 346 720 l 1,11,-1
 346 652 l 1,12,-1
 133 89 l 1,13,-1
 271 89 l 2,0,1
EndSplineSet
EndChar

StartChar: bracketleft
Encoding: 91 91 62
Width: 226
GlyphClass: 2
Flags: W
LayerCount: 2
Fore
SplineSet
204 680 m 1,0,-1
 129 680 l 1,1,-1
 129 12 l 1,2,-1
 137 12 l 2,3,4
 187 12 187 12 195.5 2.5 c 128,-1,5
 204 -7 204 -7 204 -65 c 1,6,-1
 112 -65 l 2,7,8
 62 -65 62 -65 53.5 -57.5 c 128,-1,9
 45 -50 45 -50 45 -5 c 2,10,-1
 45 757 l 1,11,-1
 137 757 l 2,12,13
 187 757 187 757 195.5 747.5 c 128,-1,14
 204 738 204 738 204 680 c 1,0,-1
EndSplineSet
EndChar

StartChar: backslash
Encoding: 92 92 63
Width: 398
GlyphClass: 2
Flags: W
LayerCount: 2
Fore
SplineSet
291 -187 m 1,0,-1
 5 720 l 1,1,-1
 105 720 l 1,2,-1
 392 -187 l 1,3,-1
 291 -187 l 1,0,-1
EndSplineSet
EndChar

StartChar: bracketright
Encoding: 93 93 64
Width: 229
GlyphClass: 2
Flags: W
LayerCount: 2
Fore
SplineSet
98 680 m 1,0,-1
 22 680 l 1,1,2
 22 738 22 738 30.5 747.5 c 128,-1,3
 39 757 39 757 89 757 c 2,4,-1
 182 757 l 1,5,-1
 182 -5 l 2,6,7
 182 -50 182 -50 173.5 -57.5 c 128,-1,8
 165 -65 165 -65 115 -65 c 2,9,-1
 22 -65 l 1,10,11
 22 -7 22 -7 30.5 2.5 c 128,-1,12
 39 12 39 12 89 12 c 2,13,-1
 98 12 l 1,14,-1
 98 680 l 1,0,-1
EndSplineSet
EndChar

StartChar: asciicircum
Encoding: 94 94 65
Width: 411
GlyphClass: 2
Flags: W
LayerCount: 2
Fore
SplineSet
190 732 m 1,0,-1
 220 732 l 1,1,-1
 379 659 l 1,2,-1
 379 571 l 1,3,-1
 204 650 l 1,4,-1
 31 571 l 1,5,-1
 31 660 l 1,6,-1
 190 732 l 1,0,-1
EndSplineSet
EndChar

StartChar: underscore
Encoding: 95 95 66
Width: 585
GlyphClass: 2
Flags: W
LayerCount: 2
Fore
SplineSet
45 81 m 1,0,-1
 539 81 l 1,1,-1
 539 -1 l 1,2,-1
 45 -1 l 1,3,-1
 45 81 l 1,0,-1
EndSplineSet
EndChar

StartChar: grave
Encoding: 96 96 67
Width: 213
GlyphClass: 2
Flags: W
LayerCount: 2
Fore
SplineSet
37 713 m 2,0,1
 56 732 56 732 67.5 732 c 128,-1,2
 79 732 79 732 87 728 c 0,3,4
 99 721 99 721 123 695 c 2,5,-1
 198 612 l 1,6,-1
 142 554 l 1,7,-1
 10 686 l 1,8,-1
 37 713 l 2,0,1
EndSplineSet
EndChar

StartChar: a
Encoding: 97 97 68
Width: 362
GlyphClass: 2
Flags: W
LayerCount: 2
Fore
SplineSet
234 413 m 1,0,-1
 235 440 l 2,1,2
 235 454 235 454 232 455 c 128,-1,3
 229 456 229 456 225 459.5 c 128,-1,4
 221 463 221 463 214.5 461 c 128,-1,5
 208 459 208 459 199 460 c 1,6,-1
 145 453 l 2,7,8
 124 450 124 450 109 450 c 128,-1,9
 94 450 94 450 86 457 c 128,-1,10
 78 464 78 464 70 521 c 1,11,-1
 186 544 l 1,12,13
 257 544 257 544 275 533.5 c 128,-1,14
 293 523 293 523 301 516 c 128,-1,15
 309 509 309 509 312 488 c 1,16,17
 317 462 317 462 317 406 c 2,18,-1
 317 0 l 1,19,20
 259 0 259 0 244 6 c 128,-1,21
 229 12 229 12 228 35 c 1,22,-1
 145 -7 l 1,23,24
 117 -7 117 -7 103.5 -6.5 c 128,-1,25
 90 -6 90 -6 76.5 2 c 128,-1,26
 63 10 63 10 58.5 18 c 128,-1,27
 54 26 54 26 50 52 c 0,28,29
 45 83 45 83 45 179 c 2,30,-1
 45 248 l 2,31,32
 45 361 45 361 242 365 c 1,33,-1
 234 389 l 1,34,-1
 234 413 l 1,0,-1
139 78 m 0,35,36
 140 78 140 78 240 116 c 1,37,-1
 230 145 l 1,38,-1
 230 264 l 1,39,-1
 238 287 l 1,40,41
 197 286 197 286 166 279 c 128,-1,42
 135 272 135 272 135 260 c 2,43,-1
 134 128 l 2,44,45
 134 78 134 78 139 78 c 0,35,36
EndSplineSet
EndChar

StartChar: b
Encoding: 98 98 69
Width: 404
GlyphClass: 2
Flags: W
LayerCount: 2
Fore
SplineSet
55 0 m 1,0,-1
 55 726 l 1,1,2
 121 726 121 726 132 718.5 c 128,-1,3
 143 711 143 711 143 665 c 2,4,-1
 143 524 l 1,5,-1
 201 544 l 1,6,7
 265 544 265 544 286.5 531 c 128,-1,8
 308 518 308 518 319.5 509 c 128,-1,9
 331 500 331 500 338.5 479 c 128,-1,10
 346 458 346 458 350 442 c 128,-1,11
 354 426 354 426 356 393 c 0,12,13
 359 344 359 344 359 268.5 c 128,-1,14
 359 193 359 193 357.5 160.5 c 128,-1,15
 356 128 356 128 349 86.5 c 128,-1,16
 342 45 342 45 326 30 c 0,17,18
 283 -7 283 -7 204 -7 c 1,19,-1
 143 34 l 1,20,21
 142 10 142 10 128.5 5 c 128,-1,22
 115 0 115 0 55 0 c 1,0,-1
260.5 116 m 128,-1,24
 269 153 269 153 269 262.5 c 128,-1,25
 269 372 269 372 260 414 c 128,-1,26
 251 456 251 456 213 459 c 1,27,-1
 134 440 l 1,28,-1
 143 412 l 1,29,-1
 143 144 l 1,30,-1
 134 113 l 1,31,-1
 212 78 l 1,32,23
 252 79 252 79 260.5 116 c 128,-1,24
EndSplineSet
EndChar

StartChar: c
Encoding: 99 99 70
Width: 334
GlyphClass: 2
Flags: W
LayerCount: 2
Fore
SplineSet
134 271 m 128,-1,1
 134 208 134 208 135 181.5 c 128,-1,2
 136 155 136 155 141.5 125.5 c 128,-1,3
 147 96 147 96 159.5 87 c 128,-1,4
 172 78 172 78 192.5 78 c 128,-1,5
 213 78 213 78 230.5 81.5 c 128,-1,6
 248 85 248 85 269 90.5 c 128,-1,7
 290 96 290 96 304 98 c 1,8,-1
 304 20 l 1,9,10
 295 18 295 18 257 5.5 c 128,-1,11
 219 -7 219 -7 194.5 -7 c 128,-1,12
 170 -7 170 -7 150.5 -3.5 c 128,-1,13
 131 0 131 0 115.5 4.5 c 128,-1,14
 100 9 100 9 89 21.5 c 128,-1,15
 78 34 78 34 70.5 43 c 128,-1,16
 63 52 63 52 58 74 c 128,-1,17
 53 96 53 96 50.5 110 c 128,-1,18
 48 124 48 124 46.5 156.5 c 128,-1,19
 45 189 45 189 45 208 c 2,20,-1
 45 332 l 2,21,22
 45 400 45 400 49 421.5 c 128,-1,23
 53 443 53 443 58 465 c 128,-1,24
 63 487 63 487 70.5 495.5 c 128,-1,25
 78 504 78 504 89 516 c 128,-1,26
 100 528 100 528 116 532 c 0,27,28
 155 544 155 544 195 544 c 1,29,-1
 308 520 l 1,30,31
 300 463 300 463 292 456 c 128,-1,32
 284 449 284 449 269 449 c 128,-1,33
 254 449 254 449 233 452 c 2,34,-1
 195 459 l 1,35,36
 172 459 172 459 159.5 451 c 128,-1,37
 147 443 147 443 141.5 414.5 c 128,-1,38
 136 386 136 386 135 360 c 128,-1,0
 134 334 134 334 134 271 c 128,-1,1
EndSplineSet
EndChar

StartChar: d
Encoding: 100 100 71
Width: 403
GlyphClass: 2
Flags: W
LayerCount: 2
Fore
SplineSet
45 267 m 128,-1,1
 45 341 45 341 46.5 374 c 128,-1,2
 48 407 48 407 55.5 448.5 c 128,-1,3
 63 490 63 490 80 506 c 0,4,5
 120 544 120 544 203 544 c 1,6,-1
 259 524 l 1,7,-1
 259 720 l 1,8,9
 326 720 326 720 337 712.5 c 128,-1,10
 348 705 348 705 348 659 c 2,11,-1
 348 0 l 1,12,13
 288 0 288 0 274 5 c 128,-1,14
 260 10 260 10 259 34 c 1,15,-1
 198 -7 l 1,16,17
 119 -7 119 -7 78 30 c 0,18,19
 51 55 51 55 46 160 c 0,20,0
 45 193 45 193 45 267 c 128,-1,1
269 111 m 1,21,-1
 259 143 l 1,22,-1
 259 411 l 1,23,-1
 268 439 l 1,24,-1
 190 459 l 1,25,26
 152 456 152 456 143 417 c 128,-1,27
 134 378 134 378 134 262 c 128,-1,28
 134 146 134 146 143 116 c 0,29,30
 154 79 154 79 191 78 c 1,31,-1
 269 111 l 1,21,-1
EndSplineSet
EndChar

StartChar: e
Encoding: 101 101 72
Width: 379
GlyphClass: 2
Flags: W
LayerCount: 2
Fore
SplineSet
201 78 m 0,0,1
 269 78 269 78 339 88 c 1,2,-1
 339 10 l 1,3,4
 246 -7 246 -7 207 -7 c 128,-1,5
 168 -7 168 -7 144.5 -1.5 c 128,-1,6
 121 4 121 4 104 11.5 c 128,-1,7
 87 19 87 19 76 37 c 128,-1,8
 65 55 65 55 59 70.5 c 128,-1,9
 53 86 53 86 50 118 c 0,10,11
 46 161 46 161 46 209.5 c 128,-1,12
 46 258 46 258 46 291 c 2,13,-1
 46 343 l 2,14,15
 46 414 46 414 50 431.5 c 128,-1,16
 54 449 54 449 59 469.5 c 128,-1,17
 64 490 64 490 72 498.5 c 128,-1,18
 80 507 80 507 91.5 518.5 c 128,-1,19
 103 530 103 530 118 534 c 0,20,21
 165 544 165 544 202 544 c 128,-1,22
 239 544 239 544 265.5 532.5 c 128,-1,23
 292 521 292 521 306.5 504 c 128,-1,24
 321 487 321 487 329 456 c 0,25,26
 342 407 342 407 342 328 c 1,27,-1
 345 260 l 1,28,-1
 127 255 l 1,29,-1
 135 232 l 1,30,31
 135 133 135 133 144.5 105.5 c 128,-1,32
 154 78 154 78 201 78 c 0,0,1
242.5 438.5 m 128,-1,34
 233 459 233 459 197 459 c 128,-1,35
 161 459 161 459 150.5 441 c 128,-1,36
 140 423 140 423 140 363 c 1,37,-1
 132 341 l 1,38,-1
 263 341 l 1,39,-1
 253 363 l 1,40,33
 252 418 252 418 242.5 438.5 c 128,-1,34
EndSplineSet
EndChar

StartChar: f
Encoding: 102 102 73
Width: 262
GlyphClass: 2
Flags: W
LayerCount: 2
Fore
SplineSet
244 537 m 1,0,-1
 244 453 l 1,1,-1
 144 453 l 1,2,-1
 154 424 l 1,3,-1
 154 -117 l 1,4,5
 153 -170 153 -170 142.5 -178.5 c 128,-1,6
 132 -187 132 -187 65 -187 c 1,7,-1
 66 424 l 1,8,-1
 75 453 l 1,9,-1
 20 453 l 1,10,-1
 20 537 l 1,11,-1
 75 537 l 1,12,-1
 66 562 l 1,13,-1
 66 612 l 2,14,15
 66 627 66 627 69 649.5 c 128,-1,16
 72 672 72 672 75 678.5 c 128,-1,17
 78 685 78 685 88.5 696.5 c 128,-1,18
 99 708 99 708 109 710 c 128,-1,19
 119 712 119 712 141.5 716 c 128,-1,20
 164 720 164 720 186 720 c 2,21,-1
 246 720 l 1,22,-1
 246 649 l 1,23,24
 178 649 178 649 166.5 638 c 128,-1,25
 155 627 155 627 155 560 c 1,26,-1
 145 537 l 1,27,-1
 244 537 l 1,0,-1
EndSplineSet
EndChar

StartChar: g
Encoding: 103 103 74
Width: 426
GlyphClass: 2
Flags: W
LayerCount: 2
Fore
SplineSet
276 -91.5 m 128,-1,1
 287 -78 287 -78 287 -51.5 c 128,-1,2
 287 -25 287 -25 276.5 -16 c 128,-1,3
 266 -7 266 -7 230 -7 c 0,4,5
 92 -7 92 -7 68.5 6.5 c 128,-1,6
 45 20 45 20 45 101 c 0,7,8
 45 156 45 156 88 192 c 1,9,10
 65 213 65 213 55 242.5 c 128,-1,11
 45 272 45 272 45 325 c 128,-1,12
 45 378 45 378 45.5 394 c 128,-1,13
 46 410 46 410 47.5 435 c 128,-1,14
 49 460 49 460 53 470.5 c 128,-1,15
 57 481 57 481 64.5 497 c 128,-1,16
 72 513 72 513 83 519 c 128,-1,17
 94 525 94 525 110 532 c 0,18,19
 136 544 136 544 200 544 c 2,20,-1
 381 544 l 1,21,22
 381 496 381 496 372 480 c 128,-1,23
 363 464 363 464 336 462 c 1,24,25
 354 423 354 423 354 344 c 2,26,-1
 354 299 l 2,27,28
 354 250 354 250 350 233 c 128,-1,29
 346 216 346 216 340.5 199 c 128,-1,30
 335 182 335 182 327.5 175 c 128,-1,31
 320 168 320 168 308.5 158 c 128,-1,32
 297 148 297 148 282 144 c 0,33,34
 239 135 239 135 195.5 135 c 128,-1,35
 152 135 152 135 141 129 c 128,-1,36
 130 123 130 123 130 107 c 128,-1,37
 130 91 130 91 135 87 c 0,38,39
 146 78 146 78 233 78 c 128,-1,40
 320 78 320 78 346 57 c 128,-1,41
 372 36 372 36 372 -44.5 c 128,-1,42
 372 -125 372 -125 342.5 -156 c 128,-1,43
 313 -187 313 -187 227 -187 c 2,44,-1
 167 -187 l 2,45,46
 119 -187 119 -187 111 -177.5 c 128,-1,47
 103 -168 103 -168 103 -112 c 1,48,-1
 226 -105 l 1,49,0
 265 -105 265 -105 276 -91.5 c 128,-1,1
262 281.5 m 128,-1,51
 263 312 263 312 263 343.5 c 128,-1,52
 263 375 263 375 262.5 388.5 c 128,-1,53
 262 402 262 402 259 419.5 c 128,-1,54
 256 437 256 437 250 443 c 0,55,56
 232 459 232 459 193.5 459 c 128,-1,57
 155 459 155 459 145 436.5 c 128,-1,58
 135 414 135 414 135 343.5 c 128,-1,59
 135 273 135 273 146.5 245.5 c 128,-1,60
 158 218 158 218 195.5 218 c 128,-1,61
 233 218 233 218 247 234.5 c 128,-1,50
 261 251 261 251 262 281.5 c 128,-1,51
EndSplineSet
EndChar

StartChar: h
Encoding: 104 104 75
Width: 421
GlyphClass: 2
Flags: W
LayerCount: 2
Fore
SplineSet
149 60 m 2,0,1
 149 15 149 15 138 7.5 c 128,-1,2
 127 0 127 0 60 0 c 1,3,-1
 60 720 l 1,4,5
 126 720 126 720 137 712.5 c 128,-1,6
 148 705 148 705 148 659 c 2,7,-1
 148 517 l 1,8,-1
 226 544 l 1,9,10
 327 544 327 544 349 489 c 128,-1,11
 371 434 371 434 371 266 c 2,12,-1
 371 0 l 1,13,14
 304 0 304 0 292.5 7.5 c 128,-1,15
 281 15 281 15 281 60 c 2,16,-1
 281 267 l 2,17,18
 281 361 281 361 276 398.5 c 128,-1,19
 271 436 271 436 260.5 447 c 128,-1,20
 250 458 250 458 232 459 c 1,21,-1
 140 432 l 1,22,-1
 149 404 l 1,23,-1
 149 60 l 2,0,1
EndSplineSet
EndChar

StartChar: i
Encoding: 105 105 76
Width: 230
GlyphClass: 2
Flags: W
LayerCount: 2
Fore
SplineSet
73 606.5 m 128,-1,1
 55 625 55 625 55 649.5 c 128,-1,2
 55 674 55 674 73 691 c 128,-1,3
 91 708 91 708 115 708 c 128,-1,4
 139 708 139 708 157 691 c 128,-1,5
 175 674 175 674 175 649.5 c 128,-1,6
 175 625 175 625 157 606.5 c 128,-1,7
 139 588 139 588 115 588 c 128,-1,0
 91 588 91 588 73 606.5 c 128,-1,1
71 56 m 2,8,-1
 71 537 l 1,9,10
 138 537 138 537 149 529.5 c 128,-1,11
 160 522 160 522 160 477 c 2,12,-1
 160 -4 l 1,13,14
 93 -4 93 -4 82 3.5 c 128,-1,15
 71 11 71 11 71 56 c 2,8,-1
EndSplineSet
EndChar

StartChar: j
Encoding: 106 106 77
Width: 209
GlyphClass: 2
Flags: W
LayerCount: 2
Fore
SplineSet
57 606.5 m 128,-1,1
 39 625 39 625 39 649.5 c 128,-1,2
 39 674 39 674 57 691 c 128,-1,3
 75 708 75 708 99 708 c 128,-1,4
 123 708 123 708 141 691 c 128,-1,5
 159 674 159 674 159 649.5 c 128,-1,6
 159 625 159 625 141 606.5 c 128,-1,7
 123 588 123 588 99 588 c 128,-1,0
 75 588 75 588 57 606.5 c 128,-1,1
145 477 m 2,8,-1
 145 17 l 2,9,10
 145 -90 145 -90 130 -116 c 0,11,12
 107 -158 107 -158 76 -169 c 0,13,14
 23 -187 23 -187 -46 -187 c 1,15,-1
 -46 -110 l 1,16,17
 18 -110 18 -110 36 -84 c 0,18,19
 43 -73 43 -73 47 -65.5 c 128,-1,20
 51 -58 51 -58 52 -42 c 0,21,22
 55 -14 55 -14 55 17 c 2,23,-1
 55 537 l 1,24,25
 122 537 122 537 133.5 529.5 c 128,-1,26
 145 522 145 522 145 477 c 2,8,-1
EndSplineSet
EndChar

StartChar: k
Encoding: 107 107 78
Width: 440
GlyphClass: 2
Flags: W
LayerCount: 2
Fore
SplineSet
149 0 m 1,0,-1
 135 0 l 2,1,2
 79 0 79 0 69.5 7.5 c 128,-1,3
 60 15 60 15 60 60 c 2,4,-1
 60 720 l 1,5,6
 127 720 127 720 138 712.5 c 128,-1,7
 149 705 149 705 149 659 c 2,8,-1
 149 0 l 1,0,-1
260 291 m 1,9,-1
 420 0 l 1,10,-1
 317 0 l 1,11,-1
 164 291 l 1,12,-1
 305 537 l 1,13,-1
 403 537 l 1,14,-1
 260 291 l 1,9,-1
EndSplineSet
EndChar

StartChar: l
Encoding: 108 108 79
Width: 199
GlyphClass: 2
Flags: W
LayerCount: 2
Fore
SplineSet
149 659 m 2,0,-1
 149 -4 l 1,1,2
 82 -4 82 -4 71 3.5 c 128,-1,3
 60 11 60 11 60 56 c 2,4,-1
 60 720 l 1,5,6
 126 720 126 720 137.5 712.5 c 128,-1,7
 149 705 149 705 149 659 c 2,0,-1
EndSplineSet
EndChar

StartChar: m
Encoding: 109 109 80
Width: 614
GlyphClass: 2
Flags: W
LayerCount: 2
Fore
SplineSet
354 0 m 1,0,1
 287 0 287 0 276 7.5 c 128,-1,2
 265 15 265 15 265 60 c 2,3,-1
 264 305 l 1,4,-1
 264 344 l 2,5,6
 264 367 264 367 264.5 379 c 128,-1,7
 265 391 265 391 264 406.5 c 128,-1,8
 263 422 263 422 260.5 429.5 c 128,-1,9
 258 437 258 437 254 445 c 0,10,11
 247 459 247 459 224 459 c 1,12,-1
 135 433 l 1,13,-1
 144 404 l 1,14,-1
 144 0 l 1,15,16
 77 0 77 0 66 7.5 c 128,-1,17
 55 15 55 15 55 60 c 2,18,-1
 55 537 l 1,19,20
 110 537 110 537 125 534 c 128,-1,21
 140 531 140 531 143 516 c 1,22,-1
 218 544 l 1,23,24
 262 544 262 544 285 536.5 c 128,-1,25
 308 529 308 529 326 508 c 1,26,-1
 418 544 l 1,27,28
 477 544 477 544 497.5 535.5 c 128,-1,29
 518 527 518 527 527.5 521 c 128,-1,30
 537 515 537 515 544.5 496 c 128,-1,31
 552 477 552 477 555.5 462 c 128,-1,32
 559 447 559 447 561 412 c 0,33,34
 564 360 564 360 564 266 c 2,35,-1
 564 0 l 1,36,37
 496 0 496 0 485 7.5 c 128,-1,38
 474 15 474 15 474 60 c 2,39,-1
 474 267 l 2,40,41
 474 405 474 405 471 421 c 0,42,43
 466 450 466 450 443 456 c 0,44,45
 435 458 435 458 423 459 c 1,46,-1
 345 436 l 1,47,-1
 354 408 l 1,48,-1
 354 0 l 1,0,1
EndSplineSet
EndChar

StartChar: n
Encoding: 110 110 81
Width: 415
GlyphClass: 2
Flags: W
LayerCount: 2
Fore
SplineSet
275 267 m 1,0,-1
 276 355 l 2,1,2
 276 395 276 395 274 415 c 0,3,4
 270 457 270 457 227 459 c 1,5,-1
 135 432 l 1,6,-1
 144 404 l 1,7,-1
 144 0 l 1,8,9
 77 0 77 0 66 7.5 c 128,-1,10
 55 15 55 15 55 60 c 2,11,-1
 55 537 l 1,12,13
 113 537 113 537 128 534 c 128,-1,14
 143 531 143 531 144 516 c 1,15,-1
 218 544 l 1,16,17
 279 544 279 544 298 536 c 128,-1,18
 317 528 317 528 327 522 c 128,-1,19
 337 516 337 516 345 497.5 c 128,-1,20
 353 479 353 479 356 463.5 c 128,-1,21
 359 448 359 448 362 414 c 0,22,23
 365 365 365 365 365 266 c 2,24,-1
 365 0 l 1,25,26
 298 0 298 0 286.5 7.5 c 128,-1,27
 275 15 275 15 275 60 c 2,28,-1
 275 267 l 1,0,-1
EndSplineSet
EndChar

StartChar: o
Encoding: 111 111 82
Width: 399
GlyphClass: 2
Flags: W
LayerCount: 2
Fore
SplineSet
45 266 m 2,0,1
 45 266 45 266 45 328 c 256,2,3
 45 390 45 390 48 411 c 128,-1,4
 51 432 51 432 55 452.5 c 128,-1,5
 59 473 59 473 64.5 482.5 c 128,-1,6
 70 492 70 492 78.5 505 c 128,-1,7
 87 518 87 518 98 523 c 128,-1,8
 109 528 109 528 124 534 c 0,9,10
 149 544 149 544 197 544 c 128,-1,11
 245 544 245 544 274.5 532.5 c 128,-1,12
 304 521 304 521 320.5 506.5 c 128,-1,13
 337 492 337 492 344 450.5 c 128,-1,14
 351 409 351 409 352.5 377 c 128,-1,15
 354 345 354 345 354 290 c 2,16,-1
 354 215 l 2,17,18
 354 151 354 151 351 130 c 128,-1,19
 348 109 348 109 344 88 c 128,-1,20
 340 67 340 67 334.5 57.5 c 128,-1,21
 329 48 329 48 320.5 34.5 c 128,-1,22
 312 21 312 21 300.5 15.5 c 128,-1,23
 289 10 289 10 274 4 c 0,24,25
 250 -7 250 -7 210 -7 c 128,-1,26
 170 -7 170 -7 148.5 -4 c 128,-1,27
 127 -1 127 -1 110.5 9 c 128,-1,28
 94 19 94 19 83 28 c 128,-1,29
 72 37 72 37 64.5 58.5 c 128,-1,30
 57 80 57 80 53 95 c 128,-1,31
 49 110 49 110 48 144 c 0,32,33
 45 201 45 201 45 266 c 2,0,1
199 459 m 0,34,35
 154 459 154 459 144 422.5 c 128,-1,36
 134 386 134 386 134 296.5 c 128,-1,37
 134 207 134 207 135 180.5 c 128,-1,38
 136 154 136 154 142 124.5 c 128,-1,39
 148 95 148 95 161.5 86.5 c 128,-1,40
 175 78 175 78 199 78 c 0,41,42
 244 78 244 78 254 116 c 128,-1,43
 264 154 264 154 264 244 c 128,-1,44
 264 334 264 334 263 360 c 128,-1,45
 262 386 262 386 256 414 c 128,-1,46
 250 442 250 442 236.5 450.5 c 128,-1,47
 223 459 223 459 199 459 c 0,34,35
EndSplineSet
EndChar

StartChar: p
Encoding: 112 112 83
Width: 415
GlyphClass: 2
Flags: W
LayerCount: 2
Fore
SplineSet
60 -127 m 2,0,-1
 60 537 l 1,1,2
 125 537 125 537 136 534 c 128,-1,3
 147 531 147 531 147 514 c 1,4,-1
 220 544 l 1,5,6
 257 544 257 544 299 532 c 0,7,8
 314 527 314 527 325.5 514 c 128,-1,9
 337 501 337 501 344.5 491.5 c 128,-1,10
 352 482 352 482 357 459.5 c 128,-1,11
 362 437 362 437 364.5 423 c 128,-1,12
 367 409 367 409 368.5 377 c 128,-1,13
 370 345 370 345 370 326 c 2,14,-1
 370 266 l 2,15,16
 370 122 370 122 364 99.5 c 128,-1,17
 358 77 358 77 350.5 56 c 128,-1,18
 343 35 343 35 332.5 26.5 c 128,-1,19
 322 18 322 18 306 8 c 0,20,21
 279 -7 279 -7 218 -7 c 1,22,-1
 148 28 l 1,23,-1
 148 -187 l 1,24,25
 82 -187 82 -187 71 -179.5 c 128,-1,26
 60 -172 60 -172 60 -127 c 2,0,-1
271 116 m 128,-1,28
 280 153 280 153 280 263.5 c 128,-1,29
 280 374 280 374 271 415 c 128,-1,30
 262 456 262 456 224 459 c 1,31,-1
 140 440 l 1,32,-1
 149 413 l 1,33,-1
 149 143 l 1,34,-1
 138 112 l 1,35,-1
 222 78 l 1,36,27
 262 79 262 79 271 116 c 128,-1,28
EndSplineSet
EndChar

StartChar: q
Encoding: 113 113 84
Width: 410
GlyphClass: 2
Flags: W
LayerCount: 2
Fore
SplineSet
266 537 m 1,0,1
 333 537 333 537 344 529.5 c 128,-1,2
 355 522 355 522 355 477 c 2,3,-1
 355 -187 l 1,4,5
 288 -187 288 -187 277 -179.5 c 128,-1,6
 266 -172 266 -172 266 -127 c 2,7,-1
 266 27 l 1,8,-1
 196 -7 l 1,9,10
 91 -7 91 -7 68 46 c 128,-1,11
 45 99 45 99 45 266 c 0,12,13
 45 338 45 338 46 370 c 128,-1,14
 47 402 47 402 54.5 444.5 c 128,-1,15
 62 487 62 487 78 503 c 0,16,17
 117 544 117 544 194 544 c 1,18,-1
 266 514 l 1,19,-1
 266 537 l 1,0,1
142.5 415 m 128,-1,21
 134 374 134 374 134 289.5 c 128,-1,22
 134 205 134 205 135 179 c 128,-1,23
 136 153 136 153 141.5 124.5 c 128,-1,24
 147 96 147 96 158.5 87.5 c 128,-1,25
 170 79 170 79 192 78 c 1,26,-1
 276 112 l 1,27,-1
 265 142 l 1,28,-1
 265 411 l 1,29,-1
 275 438 l 1,30,-1
 189 459 l 1,31,20
 151 456 151 456 142.5 415 c 128,-1,21
EndSplineSet
EndChar

StartChar: r
Encoding: 114 114 85
Width: 296
GlyphClass: 2
Flags: W
LayerCount: 2
Fore
SplineSet
145 0 m 1,0,1
 78 0 78 0 66.5 7.5 c 128,-1,2
 55 15 55 15 55 60 c 2,3,-1
 55 537 l 1,4,5
 121 537 121 537 132 533 c 128,-1,6
 143 529 143 529 143 506 c 1,7,-1
 207 544 l 1,8,9
 236 544 236 544 260 538 c 1,10,-1
 276 537 l 1,11,12
 276 480 276 480 268 469.5 c 128,-1,13
 260 459 260 459 217 459 c 1,14,-1
 135 431 l 1,15,-1
 145 403 l 1,16,-1
 145 0 l 1,0,1
EndSplineSet
EndChar

StartChar: s
Encoding: 115 115 86
Width: 347
GlyphClass: 2
Flags: W
LayerCount: 2
Fore
SplineSet
36 88 m 1,0,1
 126 78 126 78 155 78 c 128,-1,2
 184 78 184 78 193 83 c 128,-1,3
 202 88 202 88 206.5 93.5 c 128,-1,4
 211 99 211 99 213 114 c 0,5,6
 216 135 216 135 216 167 c 0,7,8
 216 191 216 191 126 259 c 0,9,10
 92 284 92 284 63.5 321.5 c 128,-1,11
 35 359 35 359 35 392 c 128,-1,12
 35 425 35 425 36 441 c 128,-1,13
 37 457 37 457 44.5 480.5 c 128,-1,14
 52 504 52 504 66 515 c 0,15,16
 105 544 105 544 179 544 c 1,17,-1
 296 520 l 1,18,19
 288 462 288 462 280.5 455.5 c 128,-1,20
 273 449 273 449 257.5 449 c 128,-1,21
 242 449 242 449 221 452 c 2,22,-1
 182 459 l 1,23,24
 141 459 141 459 132 441 c 0,25,26
 125 427 125 427 125 404 c 128,-1,27
 125 381 125 381 154 355 c 128,-1,28
 183 329 183 329 218.5 305 c 128,-1,29
 254 281 254 281 283 245.5 c 128,-1,30
 312 210 312 210 312 175 c 128,-1,31
 312 140 312 140 311 122 c 128,-1,32
 310 104 310 104 302.5 75 c 128,-1,33
 295 46 295 46 281 31 c 128,-1,34
 267 16 267 16 238.5 4.5 c 128,-1,35
 210 -7 210 -7 179.5 -7 c 128,-1,36
 149 -7 149 -7 127.5 -4.5 c 128,-1,37
 106 -2 106 -2 77.5 3 c 128,-1,38
 49 8 49 8 36 10 c 1,39,-1
 36 88 l 1,0,1
EndSplineSet
EndChar

StartChar: t
Encoding: 116 116 87
Width: 285
GlyphClass: 2
Flags: W
LayerCount: 2
Fore
SplineSet
247 537 m 1,0,1
 247 480 247 480 236.5 466.5 c 128,-1,2
 226 453 226 453 175 453 c 2,3,-1
 146 453 l 1,4,-1
 155 428 l 1,5,-1
 155 230 l 2,6,7
 155 145 155 145 161.5 113.5 c 128,-1,8
 168 82 168 82 189 78 c 1,9,-1
 265 78 l 1,10,-1
 265 0 l 1,11,-1
 184 -5 l 1,12,13
 134 -5 134 -5 118 5 c 128,-1,14
 102 15 102 15 94 21 c 128,-1,15
 86 27 86 27 80 45.5 c 128,-1,16
 74 64 74 64 71 75.5 c 128,-1,17
 68 87 68 87 66.5 117.5 c 128,-1,18
 65 148 65 148 65 168 c 2,19,-1
 65 428 l 1,20,-1
 73 453 l 1,21,-1
 20 453 l 1,22,-1
 20 537 l 1,23,-1
 73 537 l 1,24,-1
 65 574 l 1,25,-1
 65 625 l 1,26,27
 132 625 132 625 143.5 618.5 c 128,-1,28
 155 612 155 612 155 571 c 1,29,-1
 147 537 l 1,30,-1
 247 537 l 1,0,1
EndSplineSet
EndChar

StartChar: u
Encoding: 117 117 88
Width: 411
GlyphClass: 2
Flags: W
LayerCount: 2
Fore
SplineSet
281 113 m 1,0,-1
 271 143 l 1,1,-1
 271 537 l 1,2,3
 338 537 338 537 349.5 529.5 c 128,-1,4
 361 522 361 522 361 477 c 2,5,-1
 361 0 l 1,6,7
 302 0 302 0 287 3.5 c 128,-1,8
 272 7 272 7 271 27 c 1,9,-1
 207 -7 l 1,10,11
 128 -7 128 -7 84 32 c 0,12,13
 56 56 56 56 52 164 c 0,14,15
 50 197 50 197 50 271 c 2,16,-1
 50 537 l 1,17,18
 117 537 117 537 128 529.5 c 128,-1,19
 139 522 139 522 139 477 c 2,20,-1
 139 273 l 2,21,22
 139 156 139 156 144.5 137 c 128,-1,23
 150 118 150 118 156 104 c 0,24,25
 166 80 166 80 197 78 c 1,26,-1
 281 113 l 1,0,-1
EndSplineSet
EndChar

StartChar: v
Encoding: 118 118 89
Width: 365
GlyphClass: 2
Flags: W
LayerCount: 2
Fore
SplineSet
340 526 m 0,0,1
 345 520 345 520 345 515 c 128,-1,2
 345 510 345 510 344 508 c 0,3,4
 343 500 343 500 337 472 c 2,5,-1
 241 0 l 1,6,-1
 130 0 l 1,7,-1
 20 537 l 1,8,9
 64 537 64 537 82 532.5 c 128,-1,10
 100 528 100 528 106.5 518 c 128,-1,11
 113 508 113 508 119 480 c 2,12,-1
 186 119 l 1,13,-1
 189 119 l 1,14,-1
 263 537 l 1,15,16
 331 537 331 537 340 526 c 0,0,1
EndSplineSet
EndChar

StartChar: w
Encoding: 119 119 90
Width: 559
GlyphClass: 2
Flags: W
LayerCount: 2
Fore
SplineSet
536 526 m 0,0,1
 539 521 539 521 539 514.5 c 128,-1,2
 539 508 539 508 533 477 c 2,3,-1
 440 0 l 1,4,-1
 329 0 l 1,5,-1
 284 340 l 1,6,-1
 239 0 l 1,7,-1
 127 0 l 1,8,-1
 20 537 l 1,9,10
 88 537 88 537 100.5 530 c 128,-1,11
 113 523 113 523 121 480 c 2,12,-1
 181 133 l 1,13,-1
 184 133 l 1,14,-1
 227 415 l 1,15,-1
 246 487 l 1,16,-1
 324 487 l 1,17,-1
 342 414 l 1,18,-1
 387 132 l 1,19,-1
 390 132 l 1,20,-1
 459 537 l 1,21,22
 528 537 528 537 536 526 c 0,0,1
EndSplineSet
EndChar

StartChar: x
Encoding: 120 120 91
Width: 359
GlyphClass: 2
Flags: W
LayerCount: 2
Fore
SplineSet
289 533 m 128,-1,1
 307 529 307 529 307 513.5 c 128,-1,2
 307 498 307 498 226 281 c 1,3,-1
 339 0 l 1,4,-1
 246 0 l 1,5,-1
 172 208 l 1,6,-1
 164 208 l 1,7,-1
 99 0 l 1,8,9
 34 0 34 0 27 6 c 0,10,11
 16 17 16 17 23 31 c 1,12,-1
 120 290 l 1,13,-1
 22 537 l 1,14,15
 91 537 91 537 106 530.5 c 128,-1,16
 121 524 121 524 135 486 c 1,17,-1
 171 362 l 1,18,-1
 180 362 l 1,19,-1
 231 537 l 1,20,0
 271 537 271 537 289 533 c 128,-1,1
EndSplineSet
EndChar

StartChar: y
Encoding: 121 121 92
Width: 356
GlyphClass: 2
Flags: W
LayerCount: 2
Fore
SplineSet
40 -187 m 1,0,-1
 40 -115 l 1,1,2
 79 -115 79 -115 106.5 -90.5 c 128,-1,3
 134 -66 134 -66 134 -34 c 0,4,5
 134 -26 134 -26 133 -21 c 2,6,-1
 20 537 l 1,7,-1
 59 537 l 2,8,9
 89 537 89 537 97 532.5 c 128,-1,10
 105 528 105 528 110.5 520 c 128,-1,11
 116 512 116 512 117 504.5 c 128,-1,12
 118 497 118 497 121 480 c 2,13,-1
 178 120 l 1,14,-1
 193 120 l 1,15,-1
 254 537 l 1,16,17
 307 537 307 537 321.5 532.5 c 128,-1,18
 336 528 336 528 336 505 c 1,19,-1
 230 -16 l 1,20,21
 215 -96 215 -96 197 -122 c 0,22,23
 172 -157 172 -157 149 -167 c 1,24,25
 97 -187 97 -187 40 -187 c 1,0,-1
EndSplineSet
EndChar

StartChar: z
Encoding: 122 122 93
Width: 361
GlyphClass: 2
Flags: W
LayerCount: 2
Fore
SplineSet
326 0 m 1,0,-1
 35 0 l 1,1,-1
 35 70 l 1,2,-1
 207 453 l 1,3,-1
 54 453 l 1,4,5
 54 516 54 516 61.5 526.5 c 128,-1,6
 69 537 69 537 114 537 c 2,7,-1
 314 537 l 1,8,-1
 314 466 l 1,9,-1
 134 84 l 1,10,-1
 254 84 l 2,11,12
 308 84 308 84 317 73.5 c 128,-1,13
 326 63 326 63 326 0 c 1,0,-1
EndSplineSet
EndChar

StartChar: braceleft
Encoding: 123 123 94
Width: 268
GlyphClass: 2
Flags: W
LayerCount: 2
Fore
SplineSet
81 757 m 1,0,-1
 173 757 l 2,1,2
 223 757 223 757 231.5 747.5 c 128,-1,3
 240 738 240 738 240 680 c 1,4,-1
 165 680 l 1,5,-1
 165 505 l 1,6,-1
 95 351 l 1,7,-1
 165 197 l 1,8,-1
 165 12 l 1,9,-1
 173 12 l 2,10,11
 223 12 223 12 231.5 2.5 c 128,-1,12
 240 -7 240 -7 240 -65 c 1,13,-1
 148 -65 l 2,14,15
 98 -65 98 -65 89.5 -57.5 c 128,-1,16
 81 -50 81 -50 81 -5 c 2,17,-1
 81 192 l 1,18,-1
 15 335 l 1,19,-1
 15 365 l 1,20,-1
 81 510 l 1,21,-1
 81 757 l 1,0,-1
EndSplineSet
EndChar

StartChar: bar
Encoding: 124 124 95
Width: 186
GlyphClass: 2
Flags: W
LayerCount: 2
Fore
SplineSet
45 -127 m 2,0,-1
 45 720 l 1,1,2
 111 720 111 720 124.5 712 c 128,-1,3
 138 704 138 704 138 659 c 2,4,-1
 138 -174 l 1,5,-1
 125 -187 l 1,6,7
 65 -187 65 -187 55 -179.5 c 128,-1,8
 45 -172 45 -172 45 -127 c 2,0,-1
EndSplineSet
EndChar

StartChar: braceright
Encoding: 125 125 96
Width: 268
GlyphClass: 2
Flags: W
LayerCount: 2
Fore
SplineSet
186 -5 m 2,0,1
 186 -50 186 -50 178 -57.5 c 128,-1,2
 170 -65 170 -65 120 -65 c 2,3,-1
 28 -65 l 1,4,5
 28 -7 28 -7 36.5 2.5 c 128,-1,6
 45 12 45 12 95 12 c 2,7,-1
 102 12 l 1,8,-1
 102 197 l 1,9,-1
 171 351 l 1,10,-1
 102 505 l 1,11,-1
 102 680 l 1,12,-1
 28 680 l 1,13,14
 28 738 28 738 36.5 747.5 c 128,-1,15
 45 757 45 757 95 757 c 2,16,-1
 186 757 l 1,17,-1
 186 510 l 1,18,-1
 253 365 l 1,19,-1
 253 335 l 1,20,-1
 186 192 l 1,21,-1
 186 -5 l 2,0,1
EndSplineSet
EndChar

StartChar: asciitilde
Encoding: 126 126 97
Width: 374
GlyphClass: 2
Flags: W
LayerCount: 2
Fore
SplineSet
112 370 m 1,0,-1
 273 361 l 1,1,2
 291 361 291 361 298 363 c 1,3,-1
 331 361 l 1,4,-1
 331 324 l 2,5,6
 331 290 331 290 322 284.5 c 128,-1,7
 313 279 313 279 259 279 c 1,8,-1
 97 288 l 2,9,10
 80 288 80 288 73 286 c 1,11,-1
 40 288 l 1,12,-1
 40 325 l 2,13,14
 40 359 40 359 49 364.5 c 128,-1,15
 58 370 58 370 112 370 c 1,0,-1
EndSplineSet
EndChar

StartChar: exclamdown
Encoding: 161 161 99
Width: 161
GlyphClass: 2
Flags: W
LayerCount: 2
Fore
SplineSet
145 489 m 128,-1,1
 145 464 145 464 127 446 c 128,-1,2
 109 428 109 428 84.5 428 c 128,-1,3
 60 428 60 428 42 446 c 128,-1,4
 24 464 24 464 24 489 c 128,-1,5
 24 514 24 514 42 531.5 c 128,-1,6
 60 549 60 549 84.5 549 c 128,-1,7
 109 549 109 549 127 531.5 c 128,-1,0
 145 514 145 514 145 489 c 128,-1,1
128 379 m 1,8,-1
 119 -97 l 2,9,10
 118 -141 118 -141 103.5 -149.5 c 128,-1,11
 89 -158 89 -158 21 -158 c 1,12,-1
 40 328 l 2,13,14
 41 366 41 366 52 372.5 c 128,-1,15
 63 379 63 379 128 379 c 1,8,-1
EndSplineSet
EndChar

StartChar: cent
Encoding: 162 162 100
Width: 317
GlyphClass: 2
Flags: W
LayerCount: 2
Fore
SplineSet
128.5 81.5 m 128,-1,1
 142 72 142 72 172.5 72 c 128,-1,2
 203 72 203 72 283 82 c 1,3,-1
 283 11 l 1,4,5
 278 10 278 10 248.5 3 c 128,-1,6
 219 -4 219 -4 200 -5 c 1,7,-1
 200 -112 l 1,8,9
 143 -112 143 -112 133.5 -105 c 128,-1,10
 124 -98 124 -98 124 -54 c 2,11,-1
 124 -4 l 1,12,13
 69 4 69 4 50 37 c 0,14,15
 38 56 38 56 31.5 73 c 128,-1,16
 25 90 25 90 22 126 c 0,17,18
 18 175 18 175 18 250 c 128,-1,19
 18 325 18 325 18.5 351.5 c 128,-1,20
 19 378 19 378 22 414 c 128,-1,21
 25 450 25 450 31.5 466.5 c 128,-1,22
 38 483 38 483 50 502 c 0,23,24
 70 533 70 533 124 541 c 1,25,-1
 124 629 l 1,26,27
 181 629 181 629 190.5 621.5 c 128,-1,28
 200 614 200 614 200 571 c 2,29,-1
 200 542 l 1,30,-1
 283 537 l 1,31,32
 283 483 283 483 275.5 474 c 128,-1,33
 268 465 268 465 222 465 c 2,34,-1
 166 465 l 2,35,36
 121 465 121 465 111 427.5 c 128,-1,37
 101 390 101 390 101 298 c 128,-1,38
 101 206 101 206 102 179 c 128,-1,39
 103 152 103 152 109 121.5 c 128,-1,0
 115 91 115 91 128.5 81.5 c 128,-1,1
EndSplineSet
EndChar

StartChar: sterling
Encoding: 163 163 101
Width: 406
GlyphClass: 2
Flags: W
LayerCount: 2
Fore
SplineSet
321 205 m 128,-1,1
 312 200 312 200 274 200 c 128,-1,2
 236 200 236 200 220 201 c 1,3,-1
 224 181 l 1,4,-1
 224 100 l 1,5,-1
 218 81 l 1,6,-1
 329 81 l 2,7,8
 380 81 380 81 389 74 c 128,-1,9
 398 67 398 67 398 24 c 2,10,-1
 398 -1 l 1,11,-1
 141 -1 l 1,12,-1
 141 189 l 1,13,-1
 146 208 l 1,14,15
 129 209 129 209 110 209 c 128,-1,16
 91 209 91 209 77 207 c 1,17,-1
 48 209 l 1,18,-1
 48 243 l 2,19,20
 48 276 48 276 58 281 c 128,-1,21
 68 286 68 286 134 286 c 2,22,-1
 146 286 l 1,23,-1
 141 307 l 1,24,-1
 141 561 l 1,25,26
 202 561 202 561 213 553.5 c 128,-1,27
 224 546 224 546 224 503 c 2,28,-1
 224 298 l 1,29,-1
 219 277 l 1,30,-1
 224 277 l 1,31,32
 240 276 240 276 262.5 276 c 128,-1,33
 285 276 285 276 301 278 c 1,34,-1
 330 277 l 1,35,-1
 330 242 l 2,36,0
 330 210 330 210 321 205 c 128,-1,1
EndSplineSet
EndChar

StartChar: currency
Encoding: 164 164 102
Width: 499
GlyphClass: 2
Flags: W
LayerCount: 2
Fore
SplineSet
197.5 417.5 m 128,-1,1
 178 398 178 398 178 371 c 128,-1,2
 178 344 178 344 197.5 325.5 c 128,-1,3
 217 307 217 307 244.5 307 c 128,-1,4
 272 307 272 307 291.5 326 c 128,-1,5
 311 345 311 345 311 371.5 c 128,-1,6
 311 398 311 398 291 417.5 c 128,-1,7
 271 437 271 437 244 437 c 128,-1,0
 217 437 217 437 197.5 417.5 c 128,-1,1
388 554 m 1,8,9
 423 517 423 517 423.5 502.5 c 128,-1,10
 424 488 424 488 394 459 c 2,11,-1
 370 436 l 1,12,13
 385 406 385 406 385 371.5 c 128,-1,14
 385 337 385 337 366 304 c 1,15,-1
 430 231 l 1,16,17
 396 195 396 195 380.5 195 c 128,-1,18
 365 195 365 195 336 224 c 2,19,-1
 310 250 l 1,20,21
 278 234 278 234 245 234 c 128,-1,22
 212 234 212 234 180 249 c 1,23,-1
 107 185 l 1,24,25
 71 221 71 221 71 235 c 0,26,27
 71 240 71 240 72.5 243.5 c 128,-1,28
 74 247 74 247 74.5 249 c 128,-1,29
 75 251 75 251 77 253.5 c 128,-1,30
 79 256 79 256 80 257.5 c 128,-1,31
 81 259 81 259 84 262.5 c 128,-1,32
 87 266 87 266 89 267.5 c 128,-1,33
 91 269 91 269 101 279 c 2,34,-1
 125 303 l 1,35,36
 105 338 105 338 105 375 c 128,-1,37
 105 412 105 412 123 440 c 1,38,-1
 60 512 l 1,39,40
 96 548 96 548 111.5 548 c 128,-1,41
 127 548 127 548 155 519 c 2,42,-1
 179 493 l 1,43,44
 208 510 208 510 244.5 510 c 128,-1,45
 281 510 281 510 315 490 c 1,46,-1
 388 554 l 1,8,9
EndSplineSet
EndChar

StartChar: yen
Encoding: 165 165 103
Width: 412
GlyphClass: 2
Flags: W
LayerCount: 2
Fore
SplineSet
226 119 m 1,0,-1
 264 118 l 2,1,2
 283 118 283 118 301 121 c 1,3,-1
 331 119 l 1,4,-1
 331 85 l 2,5,6
 331 54 331 54 322 48.5 c 128,-1,7
 313 43 313 43 277 43 c 128,-1,8
 241 43 241 43 226 44 c 1,9,-1
 230 32 l 1,10,-1
 230 0 l 1,11,-1
 211 0 l 2,12,13
 162 0 162 0 154 5 c 128,-1,14
 146 10 146 10 146 38 c 1,15,-1
 150 50 l 1,16,-1
 102 51 l 2,17,18
 83 51 83 51 74 50 c 1,19,-1
 45 52 l 1,20,-1
 45 86 l 2,21,22
 45 118 45 118 54 123.5 c 128,-1,23
 63 129 63 129 99 129 c 128,-1,24
 135 129 135 129 150 128 c 1,25,-1
 146 138 l 1,26,-1
 146 165 l 1,27,-1
 150 174 l 1,28,-1
 102 175 l 2,29,30
 83 175 83 175 74 174 c 1,31,-1
 45 176 l 1,32,-1
 45 210 l 2,33,34
 45 242 45 242 54 247.5 c 128,-1,35
 63 253 63 253 99 253 c 128,-1,36
 135 253 135 253 150 252 c 1,37,-1
 150 269 l 1,38,-1
 9 537 l 1,39,-1
 46 537 l 2,40,41
 81 537 81 537 93 529 c 128,-1,42
 105 521 105 521 122 486 c 2,43,-1
 187 346 l 1,44,-1
 274 537 l 1,45,-1
 297 537 l 2,46,47
 321 537 321 537 330 536 c 0,48,49
 353 534 353 534 353 512 c 0,50,51
 353 502 353 502 226 263 c 1,52,-1
 226 243 l 1,53,54
 250 241 250 241 267 241 c 128,-1,55
 284 241 284 241 301 245 c 1,56,-1
 331 243 l 1,57,-1
 331 209 l 2,58,59
 331 178 331 178 322 172.5 c 128,-1,60
 313 167 313 167 277 167 c 128,-1,61
 241 167 241 167 226 168 c 1,62,-1
 230 137 l 1,63,-1
 230 129 l 1,64,-1
 226 119 l 1,0,-1
EndSplineSet
EndChar

StartChar: brokenbar
Encoding: 166 166 104
Width: 186
GlyphClass: 2
Flags: W
LayerCount: 2
Fore
SplineSet
138 301 m 1,0,-1
 124 301 l 2,1,2
 65 301 65 301 55 308.5 c 128,-1,3
 45 316 45 316 45 361 c 2,4,-1
 45 720 l 1,5,6
 111 720 111 720 124.5 712 c 128,-1,7
 138 704 138 704 138 659 c 2,8,-1
 138 301 l 1,0,-1
138 -184 m 1,9,-1
 124 -184 l 2,10,11
 65 -184 65 -184 55 -176.5 c 128,-1,12
 45 -169 45 -169 45 -123 c 2,13,-1
 45 235 l 1,14,15
 111 235 111 235 124.5 227 c 128,-1,16
 138 219 138 219 138 175 c 2,17,-1
 138 -184 l 1,9,-1
EndSplineSet
EndChar

StartChar: section
Encoding: 167 167 105
Width: 345
GlyphClass: 2
Flags: W
LayerCount: 2
Fore
SplineSet
36 88 m 1,0,1
 126 78 126 78 157 78 c 128,-1,2
 188 78 188 78 199 84 c 128,-1,3
 210 90 210 90 214 105 c 0,4,5
 221 127 221 127 221 167 c 0,6,7
 221 192 221 192 128 264 c 0,8,9
 94 290 94 290 65 328.5 c 128,-1,10
 36 367 36 367 36 404 c 2,11,-1
 36 415 l 2,12,13
 36 472 36 472 43.5 486.5 c 128,-1,14
 51 501 51 501 60 509 c 1,15,16
 37 544 37 544 37 577 c 128,-1,17
 37 610 37 610 38 625.5 c 128,-1,18
 39 641 39 641 46.5 662.5 c 128,-1,19
 54 684 54 684 68 694 c 0,20,21
 105 719 105 719 181 719 c 1,22,-1
 298 695 l 1,23,24
 290 636 290 636 282.5 629 c 128,-1,25
 275 622 275 622 261 622 c 128,-1,26
 247 622 247 622 223 627 c 2,27,-1
 184 635 l 1,28,29
 145 635 145 635 136 623.5 c 128,-1,30
 127 612 127 612 127 590 c 128,-1,31
 127 568 127 568 146.5 547 c 128,-1,32
 166 526 166 526 193 504 c 128,-1,33
 220 482 220 482 248 458 c 0,34,35
 314 400 314 400 314 348 c 0,36,37
 314 261 314 261 297 228 c 1,38,39
 312 198 312 198 312 168 c 128,-1,40
 312 138 312 138 311 120 c 128,-1,41
 310 102 310 102 303 73.5 c 128,-1,42
 296 45 296 45 282 30 c 0,43,44
 244 -7 244 -7 170 -7 c 0,45,46
 134 -7 134 -7 92 0.5 c 128,-1,47
 50 8 50 8 36 10 c 1,48,-1
 36 88 l 1,0,1
106 424 m 0,49,50
 106 384 106 384 200 311 c 0,51,52
 206 306 206 306 220.5 296 c 128,-1,53
 235 286 235 286 242 280 c 1,54,-1
 242 331 l 2,55,56
 242 354 242 354 186 400 c 0,57,58
 180 406 180 406 165.5 418.5 c 128,-1,59
 151 431 151 431 145 436 c 2,60,-1
 110 464 l 1,61,62
 106 447 106 447 106 424 c 0,49,50
EndSplineSet
EndChar

StartChar: dieresis
Encoding: 168 168 106
Width: 372
GlyphClass: 2
Flags: W
LayerCount: 2
Fore
SplineSet
57.5 606.5 m 128,-1,1
 39 625 39 625 39 649.5 c 128,-1,2
 39 674 39 674 57 691 c 128,-1,3
 75 708 75 708 99 708 c 128,-1,4
 123 708 123 708 141 691 c 128,-1,5
 159 674 159 674 159 649.5 c 128,-1,6
 159 625 159 625 141 606.5 c 128,-1,7
 123 588 123 588 99.5 588 c 128,-1,0
 76 588 76 588 57.5 606.5 c 128,-1,1
230.5 606.5 m 128,-1,9
 212 625 212 625 212 649.5 c 128,-1,10
 212 674 212 674 230 691 c 128,-1,11
 248 708 248 708 272.5 708 c 128,-1,12
 297 708 297 708 315 691 c 128,-1,13
 333 674 333 674 333 649.5 c 128,-1,14
 333 625 333 625 315 606.5 c 128,-1,15
 297 588 297 588 273 588 c 128,-1,8
 249 588 249 588 230.5 606.5 c 128,-1,9
EndSplineSet
EndChar

StartChar: copyright
Encoding: 169 169 107
Width: 630
GlyphClass: 2
Flags: W
LayerCount: 2
Fore
SplineSet
388 156 m 1,0,1
 323 143 323 143 302 143 c 128,-1,2
 281 143 281 143 263.5 151 c 128,-1,3
 246 159 246 159 236.5 169 c 128,-1,4
 227 179 227 179 222.5 202.5 c 128,-1,5
 218 226 218 226 217.5 243.5 c 128,-1,6
 217 261 217 261 217 298 c 128,-1,7
 217 335 217 335 217.5 352 c 128,-1,8
 218 369 218 369 222.5 392 c 128,-1,9
 227 415 227 415 236 424 c 0,10,11
 261 449 261 449 308 449 c 1,12,-1
 387 445 l 1,13,14
 387 399 387 399 381.5 391.5 c 128,-1,15
 376 384 376 384 345 384 c 2,16,-1
 308 384 l 2,17,18
 293 384 293 384 289.5 366 c 128,-1,19
 286 348 286 348 286 297.5 c 128,-1,20
 286 247 286 247 289.5 229.5 c 128,-1,21
 293 212 293 212 310.5 212 c 128,-1,22
 328 212 328 212 388 222 c 1,23,-1
 388 156 l 1,0,1
31 293 m 128,-1,25
 31 416 31 416 112 501.5 c 128,-1,26
 193 587 193 587 314.5 587 c 128,-1,27
 436 587 436 587 517.5 501.5 c 128,-1,28
 599 416 599 416 599 293 c 128,-1,29
 599 170 599 170 517.5 85 c 128,-1,30
 436 0 436 0 314.5 0 c 128,-1,31
 193 0 193 0 112 85 c 128,-1,24
 31 170 31 170 31 293 c 128,-1,25
171 443.5 m 128,-1,33
 113 382 113 382 113 293.5 c 128,-1,34
 113 205 113 205 171 143.5 c 128,-1,35
 229 82 229 82 315 82 c 128,-1,36
 401 82 401 82 459 143.5 c 128,-1,37
 517 205 517 205 517 293.5 c 128,-1,38
 517 382 517 382 459 443.5 c 128,-1,39
 401 505 401 505 315 505 c 128,-1,32
 229 505 229 505 171 443.5 c 128,-1,33
EndSplineSet
EndChar

StartChar: ordfeminine
Encoding: 170 170 108
Width: 275
GlyphClass: 2
Flags: W
LayerCount: 2
Fore
SplineSet
108 434 m 0,0,1
 111 434 111 434 157 457 c 1,2,-1
 157 532 l 1,3,4
 139 532 139 532 122.5 524.5 c 128,-1,5
 106 517 106 517 106 511 c 2,6,-1
 107 445 l 2,7,8
 107 434 107 434 108 434 c 0,0,1
43 510 m 128,-1,10
 43 553 43 553 74 571.5 c 128,-1,11
 105 590 105 590 158 593 c 1,12,-1
 158 624 l 2,13,14
 158 640 158 640 151.5 644 c 128,-1,15
 145 648 145 648 133 648 c 2,16,-1
 91 648 l 2,17,18
 54 648 54 648 47.5 656 c 128,-1,19
 41 664 41 664 41 710 c 1,20,-1
 131 721 l 1,21,22
 167 721 167 721 188 715 c 128,-1,23
 209 709 209 709 218 692.5 c 128,-1,24
 227 676 227 676 228.5 663 c 128,-1,25
 230 650 230 650 230 620 c 2,26,-1
 230 369 l 1,27,28
 167 369 167 369 159 403 c 1,29,-1
 128 364 l 1,30,31
 64 364 64 364 56 382 c 1,32,33
 44 404 44 404 43.5 435.5 c 128,-1,9
 43 467 43 467 43 510 c 128,-1,10
EndSplineSet
EndChar

StartChar: guillemotleft
Encoding: 171 171 109
Width: 354
GlyphClass: 2
Flags: W
LayerCount: 2
Fore
SplineSet
29 285 m 1,0,-1
 29 315 l 1,1,-1
 102 474 l 1,2,-1
 190 474 l 1,3,-1
 110 300 l 1,4,-1
 190 126 l 1,5,-1
 101 126 l 1,6,-1
 29 285 l 1,0,-1
165 285 m 1,7,-1
 165 315 l 1,8,-1
 238 474 l 1,9,-1
 325 474 l 1,10,-1
 246 300 l 1,11,-1
 325 126 l 1,12,-1
 237 126 l 1,13,-1
 165 285 l 1,7,-1
EndSplineSet
EndChar

StartChar: logicalnot
Encoding: 172 172 110
Width: 340
GlyphClass: 2
Flags: W
LayerCount: 2
Fore
SplineSet
218 208 m 1,0,-1
 218 283 l 1,1,-1
 12 283 l 1,2,-1
 12 367 l 1,3,-1
 295 367 l 1,4,-1
 295 275 l 2,5,6
 295 225 295 225 285.5 216.5 c 128,-1,7
 276 208 276 208 218 208 c 1,0,-1
EndSplineSet
EndChar

StartChar: registered
Encoding: 174 174 111
Width: 630
GlyphClass: 2
Flags: W
LayerCount: 2
Fore
SplineSet
305 202 m 2,0,1
 305 171 305 171 296.5 166 c 128,-1,2
 288 161 288 161 235 161 c 1,3,-1
 235 446 l 1,4,-1
 312 450 l 1,5,6
 349 450 349 450 369 447 c 128,-1,7
 389 444 389 444 398 432 c 128,-1,8
 407 420 407 420 408.5 408.5 c 128,-1,9
 410 397 410 397 410 365 c 128,-1,10
 410 333 410 333 408.5 319 c 128,-1,11
 407 305 407 305 396.5 291.5 c 128,-1,12
 386 278 386 278 362 273 c 1,13,-1
 431 161 l 1,14,15
 380 161 380 161 365.5 166.5 c 128,-1,16
 351 172 351 172 340 191 c 2,17,-1
 305 246 l 1,18,-1
 305 202 l 2,0,1
343 359 m 128,-1,20
 343 380 343 380 339 383.5 c 128,-1,21
 335 387 335 387 311 387 c 1,22,-1
 303 389 l 1,23,-1
 303 327 l 1,24,-1
 311 330 l 1,25,26
 334 330 334 330 338.5 334 c 128,-1,19
 343 338 343 338 343 359 c 128,-1,20
31 293 m 128,-1,28
 31 416 31 416 112 501.5 c 128,-1,29
 193 587 193 587 314.5 587 c 128,-1,30
 436 587 436 587 517.5 501.5 c 128,-1,31
 599 416 599 416 599 293 c 128,-1,32
 599 170 599 170 517.5 85 c 128,-1,33
 436 0 436 0 314.5 0 c 128,-1,34
 193 0 193 0 112 85 c 128,-1,27
 31 170 31 170 31 293 c 128,-1,28
171 443.5 m 128,-1,36
 113 382 113 382 113 293.5 c 128,-1,37
 113 205 113 205 171 143.5 c 128,-1,38
 229 82 229 82 315 82 c 128,-1,39
 401 82 401 82 459 143.5 c 128,-1,40
 517 205 517 205 517 293.5 c 128,-1,41
 517 382 517 382 459 443.5 c 128,-1,42
 401 505 401 505 315 505 c 128,-1,35
 229 505 229 505 171 443.5 c 128,-1,36
EndSplineSet
EndChar

StartChar: macron
Encoding: 175 175 112
Width: 326
GlyphClass: 2
Flags: W
LayerCount: 2
Fore
SplineSet
45 732 m 1,0,-1
 280 732 l 1,1,-1
 280 650 l 1,2,-1
 45 650 l 1,3,-1
 45 732 l 1,0,-1
EndSplineSet
EndChar

StartChar: degree
Encoding: 176 176 113
Width: 346
GlyphClass: 2
Flags: W
LayerCount: 2
Fore
SplineSet
31 597 m 128,-1,1
 31 653 31 653 73 692.5 c 128,-1,2
 115 732 115 732 173 732 c 128,-1,3
 231 732 231 732 273 692.5 c 128,-1,4
 315 653 315 653 315 597 c 128,-1,5
 315 541 315 541 273 501 c 128,-1,6
 231 461 231 461 173 461 c 128,-1,7
 115 461 115 461 73 501 c 128,-1,0
 31 541 31 541 31 597 c 128,-1,1
106 597 m 128,-1,9
 106 572 106 572 123 556.5 c 128,-1,10
 140 541 140 541 173 541 c 128,-1,11
 206 541 206 541 222.5 556.5 c 128,-1,12
 239 572 239 572 239 597 c 0,13,14
 239 652 239 652 173 652 c 0,15,16
 139 652 139 652 122.5 637 c 128,-1,8
 106 622 106 622 106 597 c 128,-1,9
EndSplineSet
EndChar

StartChar: plusminus
Encoding: 177 177 114
Width: 296
GlyphClass: 2
Flags: W
LayerCount: 2
Fore
SplineSet
188 315 m 1,0,-1
 106 315 l 1,1,-1
 106 387 l 1,2,-1
 112 402 l 1,3,-1
 31 402 l 1,4,-1
 31 484 l 1,5,-1
 112 484 l 1,6,-1
 106 499 l 1,7,-1
 106 570 l 1,8,-1
 188 570 l 1,9,-1
 188 499 l 1,10,-1
 182 484 l 1,11,-1
 265 484 l 1,12,-1
 265 402 l 1,13,-1
 182 402 l 1,14,-1
 188 389 l 1,15,-1
 188 315 l 1,0,-1
31 275 m 1,16,-1
 265 275 l 1,17,-1
 265 192 l 1,18,-1
 31 192 l 1,19,-1
 31 275 l 1,16,-1
EndSplineSet
EndChar

StartChar: twosuperior
Encoding: 178 178 115
Width: 264
GlyphClass: 2
Flags: W
LayerCount: 2
Fore
SplineSet
117 513 m 2,0,-1
 117 472 l 1,1,-1
 214 472 l 1,2,-1
 214 414 l 1,3,-1
 55 414 l 1,4,-1
 55 516 l 2,5,6
 55 537 55 537 69.5 557 c 128,-1,7
 84 577 84 577 102 590 c 0,8,9
 149 626 149 626 149 647 c 0,10,11
 149 665 149 665 142 669.5 c 128,-1,12
 135 674 135 674 123 674 c 2,13,-1
 93 674 l 2,14,15
 64 674 64 674 59 680.5 c 128,-1,16
 54 687 54 687 54 728 c 1,17,-1
 125 733 l 1,18,19
 182 732 182 732 197 711.5 c 128,-1,20
 212 691 212 691 212 644 c 0,21,22
 212 621 212 621 197 600 c 128,-1,23
 182 579 182 579 164 566 c 0,24,25
 117 533 117 533 117 513 c 2,0,-1
EndSplineSet
EndChar

StartChar: threesuperior
Encoding: 179 179 116
Width: 258
GlyphClass: 2
Flags: W
LayerCount: 2
Fore
SplineSet
61 726 m 1,0,-1
 215 726 l 1,1,-1
 161 632 l 1,2,3
 189 622 189 622 199.5 600.5 c 128,-1,4
 210 579 210 579 210 516 c 128,-1,5
 210 453 210 453 196 429 c 128,-1,6
 182 405 182 405 132 405 c 0,7,8
 125 405 125 405 61 413 c 1,9,-1
 61 468 l 1,10,11
 118 463 118 463 130 463 c 128,-1,12
 142 463 142 463 145 470.5 c 128,-1,13
 148 478 148 478 148 527 c 128,-1,14
 148 576 148 576 143 583 c 0,15,16
 139 588 139 588 131 588 c 2,17,-1
 85 588 l 1,18,-1
 124 668 l 1,19,-1
 61 668 l 1,20,-1
 61 726 l 1,0,-1
EndSplineSet
EndChar

StartChar: acute
Encoding: 180 180 117
Width: 213
GlyphClass: 2
Flags: W
LayerCount: 2
Fore
SplineSet
184 704 m 1,0,-1
 203 686 l 1,1,-1
 71 554 l 1,2,-1
 15 612 l 1,3,-1
 88 695 l 1,4,5
 114 721 114 721 123.5 726.5 c 128,-1,6
 133 732 133 732 144.5 732 c 128,-1,7
 156 732 156 732 184 704 c 1,0,-1
EndSplineSet
EndChar

StartChar: mu
Encoding: 181 181 118
Width: 376
GlyphClass: 2
Flags: W
LayerCount: 2
Fore
SplineSet
265 272 m 2,0,-1
 265 479 l 2,1,2
 265 524 265 524 276.5 531.5 c 128,-1,3
 288 539 288 539 355 539 c 1,4,-1
 355 210 l 2,5,6
 355 140 355 140 350.5 119 c 128,-1,7
 346 98 346 98 341 76 c 128,-1,8
 336 54 336 54 328.5 45 c 128,-1,9
 321 36 321 36 309.5 23.5 c 128,-1,10
 298 11 298 11 282 6 c 0,11,12
 243 -5 243 -5 201 -5 c 1,13,-1
 133 22 l 1,14,-1
 133 -120 l 2,15,16
 133 -166 133 -166 122 -173.5 c 128,-1,17
 111 -181 111 -181 45 -181 c 1,18,-1
 45 539 l 1,19,20
 112 539 112 539 123 531.5 c 128,-1,21
 134 524 134 524 134 479 c 2,22,-1
 134 127 l 1,23,-1
 128 109 l 1,24,-1
 208 80 l 1,25,26
 247 82 247 82 256 123 c 128,-1,27
 265 164 265 164 265 272 c 2,0,-1
EndSplineSet
EndChar

StartChar: paragraph
Encoding: 182 182 119
Width: 507
GlyphClass: 2
Flags: W
LayerCount: 2
Fore
SplineSet
59.5 486 m 128,-1,1
 24 526 24 526 24 581 c 128,-1,2
 24 636 24 636 65.5 677 c 128,-1,3
 107 718 107 718 163 720 c 1,4,-1
 479 719 l 1,5,-1
 479 625 l 1,6,-1
 377 625 l 1,7,-1
 382 603 l 1,8,-1
 382 0 l 1,9,-1
 289 0 l 1,10,-1
 289 603 l 1,11,-1
 294 625 l 1,12,-1
 234 625 l 1,13,-1
 239 603 l 1,14,-1
 239 0 l 1,15,-1
 146 0 l 1,16,-1
 146 440 l 1,17,0
 95 446 95 446 59.5 486 c 128,-1,1
EndSplineSet
EndChar

StartChar: periodcentered
Encoding: 183 183 120
Width: 198
GlyphClass: 2
Flags: W
LayerCount: 2
Fore
SplineSet
51.5 250.5 m 128,-1,1
 31 271 31 271 31 299 c 128,-1,2
 31 327 31 327 51 346 c 128,-1,3
 71 365 71 365 98.5 365 c 128,-1,4
 126 365 126 365 146.5 345.5 c 128,-1,5
 167 326 167 326 167 298.5 c 128,-1,6
 167 271 167 271 146 250.5 c 128,-1,7
 125 230 125 230 98.5 230 c 128,-1,0
 72 230 72 230 51.5 250.5 c 128,-1,1
EndSplineSet
EndChar

StartChar: cedilla
Encoding: 184 184 121
Width: 212
GlyphClass: 2
Flags: W
LayerCount: 2
Fore
SplineSet
15 -103 m 1,0,-1
 98 -103 l 1,1,-1
 98 0 l 1,2,-1
 170 0 l 1,3,-1
 170 -117 l 2,4,5
 170 -155 170 -155 160.5 -165 c 128,-1,6
 151 -175 151 -175 113 -175 c 2,7,-1
 80 -175 l 2,8,9
 31 -175 31 -175 23 -166 c 128,-1,10
 15 -157 15 -157 15 -103 c 1,0,-1
EndSplineSet
EndChar

StartChar: onesuperior
Encoding: 185 185 122
Width: 212
GlyphClass: 2
Flags: W
LayerCount: 2
Fore
SplineSet
114 727 m 2,0,1
 143 727 143 727 148 721 c 128,-1,2
 153 715 153 715 153 678 c 2,3,-1
 153 411 l 1,4,-1
 90 411 l 1,5,-1
 90 665 l 1,6,-1
 47 654 l 1,7,-1
 47 715 l 1,8,-1
 85 727 l 1,9,-1
 114 727 l 2,0,1
EndSplineSet
EndChar

StartChar: ordmasculine
Encoding: 186 186 123
Width: 308
GlyphClass: 2
Flags: W
LayerCount: 2
Fore
SplineSet
74 412 m 128,-1,1
 54 451 54 451 54 554.5 c 128,-1,2
 54 658 54 658 74 695 c 128,-1,3
 94 732 94 732 153.5 732 c 128,-1,4
 213 732 213 732 232.5 695 c 128,-1,5
 252 658 252 658 252 554.5 c 128,-1,6
 252 451 252 451 233 412 c 128,-1,7
 214 373 214 373 154 373 c 128,-1,0
 94 373 94 373 74 412 c 128,-1,1
190 554 m 0,8,9
 190 658 190 658 153.5 658 c 128,-1,10
 117 658 117 658 117 554 c 128,-1,11
 117 450 117 450 154 450 c 0,12,13
 170 450 170 450 178.5 467.5 c 128,-1,14
 187 485 187 485 188.5 504 c 128,-1,15
 190 523 190 523 190 554 c 0,8,9
EndSplineSet
EndChar

StartChar: guillemotright
Encoding: 187 187 124
Width: 353
GlyphClass: 2
Flags: W
LayerCount: 2
Fore
SplineSet
324 315 m 1,0,-1
 324 285 l 1,1,-1
 253 126 l 1,2,-1
 165 126 l 1,3,-1
 244 300 l 1,4,-1
 165 474 l 1,5,-1
 252 474 l 1,6,-1
 324 315 l 1,0,-1
189 315 m 1,7,-1
 189 285 l 1,8,-1
 117 126 l 1,9,-1
 29 126 l 1,10,-1
 108 300 l 1,11,-1
 29 474 l 1,12,-1
 116 474 l 1,13,-1
 189 315 l 1,7,-1
EndSplineSet
EndChar

StartChar: onequarter
Encoding: 188 188 125
Width: 319
GlyphClass: 2
Flags: W
LayerCount: 2
Fore
SplineSet
142 727 m 2,0,1
 171 727 171 727 176 721 c 128,-1,2
 181 715 181 715 181 678 c 2,3,-1
 181 431 l 1,4,-1
 118 431 l 1,5,-1
 118 665 l 1,6,-1
 75 654 l 1,7,-1
 75 715 l 1,8,-1
 113 727 l 1,9,-1
 142 727 l 2,0,1
40 400 m 1,10,-1
 252 400 l 1,11,-1
 252 345 l 1,12,-1
 40 345 l 1,13,-1
 40 400 l 1,10,-1
206 125 m 1,14,-1
 206 73 l 1,15,-1
 177 73 l 1,16,-1
 184 50 l 1,17,-1
 184 0 l 1,18,-1
 129 0 l 1,19,-1
 129 50 l 1,20,-1
 136 73 l 1,21,-1
 9 73 l 1,22,-1
 124 313 l 1,23,-1
 184 313 l 1,24,-1
 184 144 l 1,25,-1
 177 125 l 1,26,-1
 206 125 l 1,14,-1
136 219 m 1,27,-1
 126 219 l 1,28,-1
 92 125 l 1,29,-1
 143 125 l 1,30,-1
 136 144 l 1,31,-1
 136 219 l 1,27,-1
EndSplineSet
EndChar

StartChar: onehalf
Encoding: 189 189 126
Width: 366
GlyphClass: 2
Flags: W
LayerCount: 2
Fore
SplineSet
139 99 m 2,0,-1
 139 58 l 1,1,-1
 236 58 l 1,2,-1
 236 0 l 1,3,-1
 77 0 l 1,4,-1
 77 102 l 2,5,6
 77 123 77 123 91.5 143 c 128,-1,7
 106 163 106 163 124 176 c 0,8,9
 171 212 171 212 171 233 c 0,10,11
 171 251 171 251 164 255.5 c 128,-1,12
 157 260 157 260 145 260 c 2,13,-1
 115 260 l 2,14,15
 86 260 86 260 81 266.5 c 128,-1,16
 76 273 76 273 76 314 c 1,17,-1
 147 319 l 1,18,19
 204 318 204 318 219 297.5 c 128,-1,20
 234 277 234 277 234 230 c 0,21,22
 234 207 234 207 219 186 c 128,-1,23
 204 165 204 165 186 152 c 0,24,25
 139 119 139 119 139 99 c 2,0,-1
155 727 m 2,26,27
 184 727 184 727 189 721 c 128,-1,28
 194 715 194 715 194 678 c 2,29,-1
 194 431 l 1,30,-1
 131 431 l 1,31,-1
 131 665 l 1,32,-1
 88 654 l 1,33,-1
 88 715 l 1,34,-1
 126 727 l 1,35,-1
 155 727 l 2,26,27
50 400 m 1,36,-1
 262 400 l 1,37,-1
 262 345 l 1,38,-1
 50 345 l 1,39,-1
 50 400 l 1,36,-1
EndSplineSet
EndChar

StartChar: threequarters
Encoding: 190 190 127
Width: 314
GlyphClass: 2
Flags: W
LayerCount: 2
Fore
SplineSet
30 400 m 1,0,-1
 243 400 l 1,1,-1
 243 345 l 1,2,-1
 30 345 l 1,3,-1
 30 400 l 1,0,-1
206 125 m 1,4,-1
 206 73 l 1,5,-1
 177 73 l 1,6,-1
 184 50 l 1,7,-1
 184 0 l 1,8,-1
 129 0 l 1,9,-1
 129 50 l 1,10,-1
 136 73 l 1,11,-1
 9 73 l 1,12,-1
 124 313 l 1,13,-1
 184 313 l 1,14,-1
 184 144 l 1,15,-1
 177 125 l 1,16,-1
 206 125 l 1,4,-1
136 219 m 1,17,-1
 126 219 l 1,18,-1
 92 125 l 1,19,-1
 143 125 l 1,20,-1
 136 144 l 1,21,-1
 136 219 l 1,17,-1
61 726 m 1,22,-1
 215 726 l 1,23,-1
 161 632 l 1,24,25
 190 622 190 622 200 604.5 c 128,-1,26
 210 587 210 587 210 526 c 128,-1,27
 210 465 210 465 197 445 c 128,-1,28
 184 425 184 425 132 425 c 0,29,30
 125 425 125 425 61 433 c 1,31,-1
 61 488 l 1,32,33
 118 483 118 483 131.5 483 c 128,-1,34
 145 483 145 483 146.5 489.5 c 128,-1,35
 148 496 148 496 148 536 c 128,-1,36
 148 576 148 576 146 582 c 128,-1,37
 144 588 144 588 131 588 c 2,38,-1
 85 588 l 1,39,-1
 124 668 l 1,40,-1
 61 668 l 1,41,-1
 61 726 l 1,22,-1
EndSplineSet
EndChar

StartChar: questiondown
Encoding: 191 191 128
Width: 340
GlyphClass: 2
Flags: W
LayerCount: 2
Fore
SplineSet
276 524 m 128,-1,1
 294 506 294 506 294 481.5 c 128,-1,2
 294 457 294 457 276 440 c 128,-1,3
 258 423 258 423 234 423 c 128,-1,4
 210 423 210 423 192 440 c 128,-1,5
 174 457 174 457 174 481.5 c 128,-1,6
 174 506 174 506 192 524 c 128,-1,7
 210 542 210 542 234 542 c 128,-1,0
 258 542 258 542 276 524 c 128,-1,1
277 354 m 1,8,-1
 277 311 l 1,9,10
 276 266 276 266 252 219 c 128,-1,11
 228 172 228 172 199.5 138.5 c 128,-1,12
 171 105 171 105 147.5 63.5 c 128,-1,13
 124 22 124 22 124 -5 c 128,-1,14
 124 -32 124 -32 126 -43.5 c 128,-1,15
 128 -55 128 -55 136 -67 c 0,16,17
 151 -90 151 -90 210 -90 c 2,18,-1
 246 -90 l 2,19,20
 294 -90 294 -90 302 -100 c 128,-1,21
 310 -110 310 -110 310 -166 c 1,22,-1
 206 -178 l 1,23,24
 134 -178 134 -178 109.5 -168 c 128,-1,25
 85 -158 85 -158 72.5 -152 c 128,-1,26
 60 -146 60 -146 52 -131 c 128,-1,27
 44 -116 44 -116 39.5 -107.5 c 128,-1,28
 35 -99 35 -99 33 -76.5 c 128,-1,29
 31 -54 31 -54 31 -44 c 2,30,-1
 31 -5 l 2,31,32
 31 42 31 42 54.5 88.5 c 128,-1,33
 78 135 78 135 106 167 c 0,34,35
 182 254 182 254 187 311 c 1,36,-1
 187 354 l 1,37,-1
 277 354 l 1,8,-1
EndSplineSet
EndChar

StartChar: Aacute
Encoding: 193 193 130
Width: 452
GlyphClass: 2
Flags: W
LayerCount: 2
Fore
SplineSet
399 0 m 2,0,1
 348 0 348 0 337.5 8 c 128,-1,2
 327 16 327 16 318 61 c 2,3,-1
 284 230 l 1,4,-1
 158 230 l 1,5,-1
 117 0 l 1,6,-1
 94 0 l 2,7,8
 46 0 46 0 33 5.5 c 128,-1,9
 20 11 20 11 20 31.5 c 128,-1,10
 20 52 20 52 172 720 c 1,11,-1
 268 720 l 1,12,-1
 432 0 l 1,13,-1
 399 0 l 2,0,1
215 538 m 1,14,-1
 178 343 l 1,15,-1
 170 326 l 1,16,-1
 273 326 l 1,17,18
 272 327 272 327 268 335.5 c 128,-1,19
 264 344 264 344 264 345 c 2,20,-1
 225 538 l 1,21,-1
 215 538 l 1,14,-1
346 899 m 1,22,-1
 365 881 l 1,23,-1
 233 749 l 1,24,-1
 177 807 l 1,25,-1
 250 890 l 1,26,27
 276 916 276 916 285.5 921.5 c 128,-1,28
 295 927 295 927 306.5 927 c 128,-1,29
 318 927 318 927 346 899 c 1,22,-1
EndSplineSet
EndChar

StartChar: Atilde
Encoding: 195 195 132
Width: 452
GlyphClass: 2
Flags: W
LayerCount: 2
Fore
SplineSet
399 0 m 2,0,1
 348 0 348 0 337.5 8 c 128,-1,2
 327 16 327 16 318 61 c 2,3,-1
 284 230 l 1,4,-1
 158 230 l 1,5,-1
 117 0 l 1,6,-1
 94 0 l 2,7,8
 46 0 46 0 33 5.5 c 128,-1,9
 20 11 20 11 20 31.5 c 128,-1,10
 20 52 20 52 172 720 c 1,11,-1
 268 720 l 1,12,-1
 432 0 l 1,13,-1
 399 0 l 2,0,1
215 538 m 1,14,-1
 178 343 l 1,15,-1
 170 326 l 1,16,-1
 273 326 l 1,17,18
 272 327 272 327 268 335.5 c 128,-1,19
 264 344 264 344 264 345 c 2,20,-1
 225 538 l 1,21,-1
 215 538 l 1,14,-1
351 853 m 2,22,23
 351 818 351 818 342 812.5 c 128,-1,24
 333 807 333 807 293 807 c 128,-1,25
 253 807 253 807 209.5 812 c 128,-1,26
 166 817 166 817 143 817 c 128,-1,27
 120 817 120 817 113 815 c 1,28,-1
 80 817 l 1,29,-1
 80 854 l 2,30,31
 80 888 80 888 89 893.5 c 128,-1,32
 98 899 98 899 137 899 c 128,-1,33
 176 899 176 899 219 894.5 c 128,-1,34
 262 890 262 890 287 890 c 128,-1,35
 312 890 312 890 319 891 c 1,36,-1
 351 890 l 1,37,-1
 351 853 l 2,22,23
EndSplineSet
EndChar

StartChar: Adieresis
Encoding: 196 196 133
Width: 452
GlyphClass: 2
Flags: W
LayerCount: 2
Fore
SplineSet
399 0 m 2,0,1
 348 0 348 0 337.5 8 c 128,-1,2
 327 16 327 16 318 61 c 2,3,-1
 284 230 l 1,4,-1
 158 230 l 1,5,-1
 117 0 l 1,6,-1
 94 0 l 2,7,8
 46 0 46 0 33 5.5 c 128,-1,9
 20 11 20 11 20 31.5 c 128,-1,10
 20 52 20 52 172 720 c 1,11,-1
 268 720 l 1,12,-1
 432 0 l 1,13,-1
 399 0 l 2,0,1
215 538 m 1,14,-1
 178 343 l 1,15,-1
 170 326 l 1,16,-1
 273 326 l 1,17,18
 272 327 272 327 268 335.5 c 128,-1,19
 264 344 264 344 264 345 c 2,20,-1
 225 538 l 1,21,-1
 215 538 l 1,14,-1
93.5 801.5 m 128,-1,23
 75 820 75 820 75 844.5 c 128,-1,24
 75 869 75 869 93 886 c 128,-1,25
 111 903 111 903 135 903 c 128,-1,26
 159 903 159 903 177 886 c 128,-1,27
 195 869 195 869 195 844.5 c 128,-1,28
 195 820 195 820 177 801.5 c 128,-1,29
 159 783 159 783 135.5 783 c 128,-1,22
 112 783 112 783 93.5 801.5 c 128,-1,23
266.5 801.5 m 128,-1,31
 248 820 248 820 248 844.5 c 128,-1,32
 248 869 248 869 266 886 c 128,-1,33
 284 903 284 903 308.5 903 c 128,-1,34
 333 903 333 903 351 886 c 128,-1,35
 369 869 369 869 369 844.5 c 128,-1,36
 369 820 369 820 351 801.5 c 128,-1,37
 333 783 333 783 309 783 c 128,-1,30
 285 783 285 783 266.5 801.5 c 128,-1,31
EndSplineSet
EndChar

StartChar: Aring
Encoding: 197 197 134
Width: 452
GlyphClass: 2
Flags: W
LayerCount: 2
Fore
SplineSet
150.5 764 m 128,-1,1
 122 792 122 792 122 830 c 128,-1,2
 122 868 122 868 150.5 895.5 c 128,-1,3
 179 923 179 923 217 923 c 128,-1,4
 255 923 255 923 283 895.5 c 128,-1,5
 311 868 311 868 311 829.5 c 128,-1,6
 311 791 311 791 283 763.5 c 128,-1,7
 255 736 255 736 217 736 c 128,-1,0
 179 736 179 736 150.5 764 c 128,-1,1
195.5 850 m 128,-1,9
 186 841 186 841 186 829.5 c 128,-1,10
 186 818 186 818 196 808 c 128,-1,11
 206 798 206 798 217.5 798 c 128,-1,12
 229 798 229 798 239 808 c 128,-1,13
 249 818 249 818 249 829.5 c 128,-1,14
 249 841 249 841 239 850 c 128,-1,15
 229 859 229 859 217 859 c 128,-1,8
 205 859 205 859 195.5 850 c 128,-1,9
399 0 m 2,16,17
 348 0 348 0 337.5 8 c 128,-1,18
 327 16 327 16 318 61 c 2,19,-1
 284 230 l 1,20,-1
 158 230 l 1,21,-1
 117 0 l 1,22,-1
 94 0 l 2,23,24
 46 0 46 0 33 5.5 c 128,-1,25
 20 11 20 11 20 31.5 c 128,-1,26
 20 52 20 52 172 720 c 1,27,-1
 268 720 l 1,28,-1
 432 0 l 1,29,-1
 399 0 l 2,16,17
215 538 m 1,30,-1
 178 343 l 1,31,-1
 170 326 l 1,32,-1
 273 326 l 1,33,34
 272 327 272 327 268 335.5 c 128,-1,35
 264 344 264 344 264 345 c 2,36,-1
 225 538 l 1,37,-1
 215 538 l 1,30,-1
EndSplineSet
EndChar

StartChar: AE
Encoding: 198 198 135
Width: 635
GlyphClass: 2
Flags: W
LayerCount: 2
Fore
SplineSet
279 0 m 1,0,-1
 279 230 l 1,1,-1
 173 230 l 1,2,-1
 125 0 l 1,3,-1
 101 0 l 2,4,5
 54 0 54 0 41 5.5 c 128,-1,6
 28 11 28 11 28 31.5 c 128,-1,7
 28 52 28 52 33 69 c 1,8,-1
 180 720 l 1,9,-1
 589 720 l 1,10,-1
 589 626 l 1,11,-1
 378 626 l 1,12,-1
 385 607 l 1,13,-1
 385 456 l 1,14,-1
 379 436 l 1,15,-1
 575 436 l 1,16,-1
 575 339 l 1,17,-1
 378 339 l 1,18,-1
 385 320 l 1,19,-1
 385 120 l 1,20,-1
 377 98 l 1,21,-1
 598 98 l 1,22,-1
 598 0 l 1,23,-1
 279 0 l 1,0,-1
279 325 m 1,24,-1
 279 326 l 1,25,-1
 279 325 l 1,24,-1
196 321 m 2,26,-1
 197 326 l 2,27,28
 196 324 196 324 196 321 c 2,26,-1
279 326 m 1,29,-1
 279 626 l 1,30,-1
 251 626 l 1,31,-1
 197 326 l 1,32,-1
 279 326 l 1,29,-1
EndSplineSet
EndChar

StartChar: Ccedilla
Encoding: 199 199 136
Width: 412
GlyphClass: 2
Flags: W
LayerCount: 2
Fore
SplineSet
372 11 m 1,0,-1
 271 -5 l 1,1,-1
 271 -117 l 2,2,3
 271 -155 271 -155 261.5 -165 c 128,-1,4
 252 -175 252 -175 214 -175 c 2,5,-1
 181 -175 l 2,6,7
 132 -175 132 -175 124 -166 c 128,-1,8
 116 -157 116 -157 116 -103 c 1,9,-1
 199 -103 l 1,10,-1
 199 -5 l 1,11,12
 143 2 143 2 104 42 c 0,13,14
 80 68 80 68 62 144 c 0,15,16
 50 192 50 192 50 366 c 2,17,-1
 50 433 l 2,18,19
 50 505 50 505 55 538.5 c 128,-1,20
 60 572 60 572 66 602 c 128,-1,21
 72 632 72 632 81 647.5 c 128,-1,22
 90 663 90 663 104 682 c 128,-1,23
 118 701 118 701 136 710 c 0,24,25
 180 732 180 732 232 732 c 1,26,-1
 371 700 l 1,27,28
 363 642 363 642 341 628 c 0,29,30
 329 621 329 621 307 621 c 128,-1,31
 285 621 285 621 255 627 c 1,32,-1
 227 634 l 1,33,34
 199 634 199 634 182 616 c 128,-1,35
 165 598 165 598 158 553.5 c 128,-1,36
 151 509 151 509 149.5 474 c 128,-1,37
 148 439 148 439 148 366 c 128,-1,38
 148 293 148 293 149.5 258 c 128,-1,39
 151 223 151 223 158 178.5 c 128,-1,40
 165 134 165 134 182 116 c 128,-1,41
 199 98 199 98 228 98 c 128,-1,42
 257 98 257 98 307 102.5 c 128,-1,43
 357 107 357 107 372 108 c 1,44,-1
 372 11 l 1,0,-1
EndSplineSet
EndChar

StartChar: Egrave
Encoding: 200 200 137
Width: 404
GlyphClass: 2
Flags: W
LayerCount: 2
Fore
SplineSet
374 89 m 1,0,-1
 374 0 l 1,1,-1
 60 0 l 1,2,-1
 60 720 l 1,3,-1
 364 720 l 1,4,-1
 364 635 l 1,5,-1
 149 635 l 1,6,-1
 158 610 l 1,7,-1
 158 457 l 1,8,-1
 149 432 l 1,9,-1
 352 432 l 1,10,-1
 352 343 l 1,11,-1
 150 343 l 1,12,-1
 158 320 l 1,13,-1
 158 114 l 1,14,-1
 149 89 l 1,15,-1
 374 89 l 1,0,-1
145 908 m 2,16,17
 164 927 164 927 175.5 927 c 128,-1,18
 187 927 187 927 195 922 c 0,19,20
 207 916 207 916 231 890 c 2,21,-1
 306 807 l 1,22,-1
 250 749 l 1,23,-1
 118 881 l 1,24,-1
 145 908 l 2,16,17
EndSplineSet
EndChar

StartChar: Eacute
Encoding: 201 201 138
Width: 404
GlyphClass: 2
Flags: W
LayerCount: 2
Fore
SplineSet
374 89 m 1,0,-1
 374 0 l 1,1,-1
 60 0 l 1,2,-1
 60 720 l 1,3,-1
 364 720 l 1,4,-1
 364 635 l 1,5,-1
 149 635 l 1,6,-1
 158 610 l 1,7,-1
 158 457 l 1,8,-1
 149 432 l 1,9,-1
 352 432 l 1,10,-1
 352 343 l 1,11,-1
 150 343 l 1,12,-1
 158 320 l 1,13,-1
 158 114 l 1,14,-1
 149 89 l 1,15,-1
 374 89 l 1,0,-1
323 899 m 1,16,-1
 342 881 l 1,17,-1
 210 749 l 1,18,-1
 154 807 l 1,19,-1
 227 890 l 1,20,21
 253 916 253 916 262.5 921.5 c 128,-1,22
 272 927 272 927 283.5 927 c 128,-1,23
 295 927 295 927 323 899 c 1,16,-1
EndSplineSet
EndChar

StartChar: Ecircumflex
Encoding: 202 202 139
Width: 404
GlyphClass: 2
Flags: W
LayerCount: 2
Fore
SplineSet
374 89 m 1,0,-1
 374 0 l 1,1,-1
 60 0 l 1,2,-1
 60 720 l 1,3,-1
 364 720 l 1,4,-1
 364 635 l 1,5,-1
 149 635 l 1,6,-1
 158 610 l 1,7,-1
 158 457 l 1,8,-1
 149 432 l 1,9,-1
 352 432 l 1,10,-1
 352 343 l 1,11,-1
 150 343 l 1,12,-1
 158 320 l 1,13,-1
 158 114 l 1,14,-1
 149 89 l 1,15,-1
 374 89 l 1,0,-1
200 927 m 1,16,-1
 234 927 l 1,17,-1
 364 854 l 1,18,-1
 364 764 l 1,19,-1
 218 844 l 1,20,-1
 72 764 l 1,21,-1
 72 855 l 1,22,-1
 200 927 l 1,16,-1
EndSplineSet
EndChar

StartChar: Edieresis
Encoding: 203 203 140
Width: 404
GlyphClass: 2
Flags: W
LayerCount: 2
Fore
SplineSet
374 89 m 1,0,-1
 374 0 l 1,1,-1
 60 0 l 1,2,-1
 60 720 l 1,3,-1
 364 720 l 1,4,-1
 364 635 l 1,5,-1
 149 635 l 1,6,-1
 158 610 l 1,7,-1
 158 457 l 1,8,-1
 149 432 l 1,9,-1
 352 432 l 1,10,-1
 352 343 l 1,11,-1
 150 343 l 1,12,-1
 158 320 l 1,13,-1
 158 114 l 1,14,-1
 149 89 l 1,15,-1
 374 89 l 1,0,-1
90.5 801.5 m 128,-1,17
 72 820 72 820 72 844.5 c 128,-1,18
 72 869 72 869 90 886 c 128,-1,19
 108 903 108 903 132 903 c 128,-1,20
 156 903 156 903 174 886 c 128,-1,21
 192 869 192 869 192 844.5 c 128,-1,22
 192 820 192 820 174 801.5 c 128,-1,23
 156 783 156 783 132.5 783 c 128,-1,16
 109 783 109 783 90.5 801.5 c 128,-1,17
263.5 801.5 m 128,-1,25
 245 820 245 820 245 844.5 c 128,-1,26
 245 869 245 869 263 886 c 128,-1,27
 281 903 281 903 305.5 903 c 128,-1,28
 330 903 330 903 348 886 c 128,-1,29
 366 869 366 869 366 844.5 c 128,-1,30
 366 820 366 820 348 801.5 c 128,-1,31
 330 783 330 783 306 783 c 128,-1,24
 282 783 282 783 263.5 801.5 c 128,-1,25
EndSplineSet
EndChar

StartChar: Iacute
Encoding: 205 205 142
Width: 215
GlyphClass: 2
Flags: W
LayerCount: 2
Fore
SplineSet
60 61 m 2,0,-1
 60 720 l 1,1,-1
 81 720 l 2,2,3
 136 720 136 720 145.5 712.5 c 128,-1,4
 155 705 155 705 155 659 c 2,5,-1
 155 0 l 1,6,-1
 132 0 l 2,7,8
 78 0 78 0 69 7.5 c 128,-1,9
 60 15 60 15 60 61 c 2,0,-1
239 899 m 1,10,-1
 258 881 l 1,11,-1
 126 749 l 1,12,-1
 70 807 l 1,13,-1
 143 890 l 1,14,15
 169 916 169 916 178.5 921.5 c 128,-1,16
 188 927 188 927 199.5 927 c 128,-1,17
 211 927 211 927 239 899 c 1,10,-1
EndSplineSet
EndChar

StartChar: Icircumflex
Encoding: 206 206 143
Width: 215
GlyphClass: 2
Flags: W
LayerCount: 2
Fore
SplineSet
60 61 m 2,0,-1
 60 720 l 1,1,-1
 81 720 l 2,2,3
 136 720 136 720 145.5 712.5 c 128,-1,4
 155 705 155 705 155 659 c 2,5,-1
 155 0 l 1,6,-1
 132 0 l 2,7,8
 78 0 78 0 69 7.5 c 128,-1,9
 60 15 60 15 60 61 c 2,0,-1
92 927 m 1,10,-1
 126 927 l 1,11,-1
 256 854 l 1,12,-1
 256 764 l 1,13,-1
 110 844 l 1,14,-1
 -36 764 l 1,15,-1
 -36 855 l 1,16,-1
 92 927 l 1,10,-1
EndSplineSet
EndChar

StartChar: Idieresis
Encoding: 207 207 144
Width: 215
GlyphClass: 2
Flags: W
LayerCount: 2
Fore
SplineSet
60 61 m 2,0,-1
 60 720 l 1,1,-1
 81 720 l 2,2,3
 136 720 136 720 145.5 712.5 c 128,-1,4
 155 705 155 705 155 659 c 2,5,-1
 155 0 l 1,6,-1
 132 0 l 2,7,8
 78 0 78 0 69 7.5 c 128,-1,9
 60 15 60 15 60 61 c 2,0,-1
-18.5 801.5 m 128,-1,11
 -37 820 -37 820 -37 844.5 c 128,-1,12
 -37 869 -37 869 -19 886 c 128,-1,13
 -1 903 -1 903 23 903 c 128,-1,14
 47 903 47 903 65 886 c 128,-1,15
 83 869 83 869 83 844.5 c 128,-1,16
 83 820 83 820 65 801.5 c 128,-1,17
 47 783 47 783 23.5 783 c 128,-1,10
 0 783 0 783 -18.5 801.5 c 128,-1,11
154.5 801.5 m 128,-1,19
 136 820 136 820 136 844.5 c 128,-1,20
 136 869 136 869 154 886 c 128,-1,21
 172 903 172 903 196.5 903 c 128,-1,22
 221 903 221 903 239 886 c 128,-1,23
 257 869 257 869 257 844.5 c 128,-1,24
 257 820 257 820 239 801.5 c 128,-1,25
 221 783 221 783 197 783 c 128,-1,18
 173 783 173 783 154.5 801.5 c 128,-1,19
EndSplineSet
EndChar

StartChar: Eth
Encoding: 208 208 145
Width: 453
GlyphClass: 2
Flags: W
LayerCount: 2
Fore
SplineSet
415 434 m 2,0,-1
 415 366 l 2,1,2
 415 184 415 184 400 132 c 0,3,4
 379 54 379 54 349 30 c 0,5,6
 302 -7 302 -7 234 -7 c 1,7,-1
 45 0 l 1,8,-1
 45 722 l 1,9,-1
 234 732 l 1,10,11
 286 732 286 732 330 710 c 0,12,13
 348 701 348 701 361.5 682 c 128,-1,14
 375 663 375 663 384 648 c 128,-1,15
 393 633 393 633 399 603 c 128,-1,16
 405 573 405 573 408 553 c 0,17,18
 415 506 415 506 415 434 c 2,0,-1
256 434 m 1,19,-1
 256 351 l 1,20,-1
 129 351 l 1,21,-1
 139 329 l 1,22,-1
 139 102 l 1,23,-1
 129 82 l 1,24,-1
 234 82 l 2,25,26
 268 82 268 82 284 105 c 0,27,28
 304 133 304 133 308.5 161.5 c 128,-1,29
 313 190 313 190 315.5 207 c 128,-1,30
 318 224 318 224 319 256.5 c 128,-1,31
 320 289 320 289 320 308 c 2,32,-1
 320 423 l 2,33,34
 320 493 320 493 316.5 515.5 c 128,-1,35
 313 538 313 538 309 561.5 c 128,-1,36
 305 585 305 585 299 596.5 c 128,-1,37
 293 608 293 608 284 620 c 0,38,39
 268 643 268 643 234 643 c 2,40,-1
 129 643 l 1,41,-1
 139 616 l 1,42,-1
 139 457 l 1,43,-1
 129 434 l 1,44,-1
 256 434 l 1,19,-1
EndSplineSet
EndChar

StartChar: Ntilde
Encoding: 209 209 146
Width: 436
GlyphClass: 2
Flags: W
LayerCount: 2
Fore
SplineSet
296 220 m 1,0,-1
 296 720 l 1,1,-1
 318 720 l 2,2,3
 372 720 372 720 381 712.5 c 128,-1,4
 390 705 390 705 390 659 c 2,5,-1
 390 0 l 1,6,-1
 360 0 l 2,7,8
 310 0 310 0 298 7.5 c 128,-1,9
 286 15 286 15 272 56 c 1,10,-1
 143 488 l 1,11,-1
 138 488 l 1,12,-1
 138 61 l 2,13,14
 138 15 138 15 129 7.5 c 128,-1,15
 120 0 120 0 66 0 c 2,16,-1
 45 0 l 1,17,-1
 45 720 l 1,18,-1
 67 720 l 2,19,20
 116 720 116 720 127 713 c 128,-1,21
 138 706 138 706 154 664 c 1,22,-1
 291 220 l 1,23,-1
 296 220 l 1,0,-1
351 853 m 2,24,25
 351 818 351 818 342 812.5 c 128,-1,26
 333 807 333 807 293 807 c 128,-1,27
 253 807 253 807 209.5 812 c 128,-1,28
 166 817 166 817 143 817 c 128,-1,29
 120 817 120 817 113 815 c 1,30,-1
 80 817 l 1,31,-1
 80 854 l 2,32,33
 80 888 80 888 89 893.5 c 128,-1,34
 98 899 98 899 137 899 c 128,-1,35
 176 899 176 899 219 894.5 c 128,-1,36
 262 890 262 890 287 890 c 128,-1,37
 312 890 312 890 319 891 c 1,38,-1
 351 890 l 1,39,-1
 351 853 l 2,24,25
EndSplineSet
EndChar

StartChar: Ograve
Encoding: 210 210 147
Width: 487
GlyphClass: 2
Flags: W
LayerCount: 2
Fore
SplineSet
90.5 79 m 128,-1,1
 50 165 50 165 50 363 c 128,-1,2
 50 561 50 561 93 646.5 c 128,-1,3
 136 732 136 732 244.5 732 c 128,-1,4
 353 732 353 732 395 647 c 128,-1,5
 437 562 437 562 437 363 c 128,-1,6
 437 164 437 164 397.5 78.5 c 128,-1,7
 358 -7 358 -7 244.5 -7 c 128,-1,0
 131 -7 131 -7 90.5 79 c 128,-1,1
145 366 m 0,8,9
 145 223 145 223 167 152.5 c 128,-1,10
 189 82 189 82 244.5 82 c 128,-1,11
 300 82 300 82 322 152.5 c 128,-1,12
 344 223 344 223 344 365 c 0,13,14
 344 643 344 643 244.5 643 c 128,-1,15
 145 643 145 643 145 366 c 0,8,9
135 918 m 2,16,17
 154 937 154 937 165.5 937 c 128,-1,18
 177 937 177 937 185 932 c 0,19,20
 197 926 197 926 221 900 c 2,21,-1
 296 817 l 1,22,-1
 240 759 l 1,23,-1
 108 891 l 1,24,-1
 135 918 l 2,16,17
EndSplineSet
EndChar

StartChar: Oacute
Encoding: 211 211 148
Width: 487
GlyphClass: 2
Flags: W
LayerCount: 2
Fore
SplineSet
90.5 79 m 128,-1,1
 50 165 50 165 50 363 c 128,-1,2
 50 561 50 561 93 646.5 c 128,-1,3
 136 732 136 732 244.5 732 c 128,-1,4
 353 732 353 732 395 647 c 128,-1,5
 437 562 437 562 437 363 c 128,-1,6
 437 164 437 164 397.5 78.5 c 128,-1,7
 358 -7 358 -7 244.5 -7 c 128,-1,0
 131 -7 131 -7 90.5 79 c 128,-1,1
145 366 m 0,8,9
 145 223 145 223 167 152.5 c 128,-1,10
 189 82 189 82 244.5 82 c 128,-1,11
 300 82 300 82 322 152.5 c 128,-1,12
 344 223 344 223 344 365 c 0,13,14
 344 643 344 643 244.5 643 c 128,-1,15
 145 643 145 643 145 366 c 0,8,9
354 909 m 1,16,-1
 373 891 l 1,17,-1
 241 759 l 1,18,-1
 185 817 l 1,19,-1
 258 900 l 1,20,21
 284 926 284 926 293.5 931.5 c 128,-1,22
 303 937 303 937 314.5 937 c 128,-1,23
 326 937 326 937 354 909 c 1,16,-1
EndSplineSet
EndChar

StartChar: Ocircumflex
Encoding: 212 212 149
Width: 487
GlyphClass: 2
Flags: W
LayerCount: 2
Fore
SplineSet
90.5 79 m 128,-1,1
 50 165 50 165 50 363 c 128,-1,2
 50 561 50 561 93 646.5 c 128,-1,3
 136 732 136 732 244.5 732 c 128,-1,4
 353 732 353 732 395 647 c 128,-1,5
 437 562 437 562 437 363 c 128,-1,6
 437 164 437 164 397.5 78.5 c 128,-1,7
 358 -7 358 -7 244.5 -7 c 128,-1,0
 131 -7 131 -7 90.5 79 c 128,-1,1
145 366 m 0,8,9
 145 223 145 223 167 152.5 c 128,-1,10
 189 82 189 82 244.5 82 c 128,-1,11
 300 82 300 82 322 152.5 c 128,-1,12
 344 223 344 223 344 365 c 0,13,14
 344 643 344 643 244.5 643 c 128,-1,15
 145 643 145 643 145 366 c 0,8,9
234 927 m 1,16,-1
 268 927 l 1,17,-1
 398 854 l 1,18,-1
 398 764 l 1,19,-1
 252 844 l 1,20,-1
 106 764 l 1,21,-1
 106 855 l 1,22,-1
 234 927 l 1,16,-1
EndSplineSet
EndChar

StartChar: Odieresis
Encoding: 214 214 151
Width: 487
GlyphClass: 2
Flags: W
LayerCount: 2
Fore
SplineSet
90.5 79 m 128,-1,1
 50 165 50 165 50 363 c 128,-1,2
 50 561 50 561 93 646.5 c 128,-1,3
 136 732 136 732 244.5 732 c 128,-1,4
 353 732 353 732 395 647 c 128,-1,5
 437 562 437 562 437 363 c 128,-1,6
 437 164 437 164 397.5 78.5 c 128,-1,7
 358 -7 358 -7 244.5 -7 c 128,-1,0
 131 -7 131 -7 90.5 79 c 128,-1,1
145 366 m 0,8,9
 145 223 145 223 167 152.5 c 128,-1,10
 189 82 189 82 244.5 82 c 128,-1,11
 300 82 300 82 322 152.5 c 128,-1,12
 344 223 344 223 344 365 c 0,13,14
 344 643 344 643 244.5 643 c 128,-1,15
 145 643 145 643 145 366 c 0,8,9
115.5 801.5 m 128,-1,17
 97 820 97 820 97 844.5 c 128,-1,18
 97 869 97 869 115 886 c 128,-1,19
 133 903 133 903 157 903 c 128,-1,20
 181 903 181 903 199 886 c 128,-1,21
 217 869 217 869 217 844.5 c 128,-1,22
 217 820 217 820 199 801.5 c 128,-1,23
 181 783 181 783 157.5 783 c 128,-1,16
 134 783 134 783 115.5 801.5 c 128,-1,17
288.5 801.5 m 128,-1,25
 270 820 270 820 270 844.5 c 128,-1,26
 270 869 270 869 288 886 c 128,-1,27
 306 903 306 903 330.5 903 c 128,-1,28
 355 903 355 903 373 886 c 128,-1,29
 391 869 391 869 391 844.5 c 128,-1,30
 391 820 391 820 373 801.5 c 128,-1,31
 355 783 355 783 331 783 c 128,-1,24
 307 783 307 783 288.5 801.5 c 128,-1,25
EndSplineSet
EndChar

StartChar: multiply
Encoding: 215 215 152
Width: 281
GlyphClass: 2
Flags: W
LayerCount: 2
Fore
SplineSet
205 308 m 1,0,-1
 253 260 l 1,1,-1
 196 202 l 1,2,-1
 149 249 l 1,3,-1
 135 270 l 1,4,-1
 71 206 l 1,5,-1
 19 258 l 1,6,-1
 83 323 l 1,7,-1
 62 337 l 1,8,-1
 16 383 l 1,9,-1
 73 440 l 1,10,-1
 119 394 l 1,11,-1
 133 372 l 1,12,-1
 198 438 l 1,13,-1
 251 385 l 1,14,-1
 185 320 l 1,15,-1
 205 308 l 1,0,-1
EndSplineSet
EndChar

StartChar: Oslash
Encoding: 216 216 153
Width: 469
GlyphClass: 2
Flags: W
LayerCount: 2
Fore
SplineSet
97 69 m 1,0,1
 54 151 54 151 54 358.5 c 128,-1,2
 54 566 54 566 91 649 c 128,-1,3
 128 732 128 732 237 732 c 0,4,5
 258 732 258 732 275 728 c 1,6,-1
 304 799 l 1,7,-1
 401 799 l 1,8,-1
 355 686 l 1,9,10
 392 647 392 647 406 571 c 128,-1,11
 420 495 420 495 420 366 c 0,12,13
 420 164 420 164 382.5 78.5 c 128,-1,14
 345 -7 345 -7 237 -7 c 0,15,16
 200 -7 200 -7 168 6 c 1,17,-1
 145 -48 l 1,18,-1
 49 -48 l 1,19,-1
 97 69 l 1,0,1
164 579 m 128,-1,21
 143 510 143 510 143 364.5 c 128,-1,22
 143 219 143 219 163.5 148 c 128,-1,23
 184 77 184 77 237 77 c 128,-1,24
 290 77 290 77 310 147.5 c 128,-1,25
 330 218 330 218 330 363.5 c 128,-1,26
 330 509 330 509 309.5 578.5 c 128,-1,27
 289 648 289 648 237 648 c 128,-1,20
 185 648 185 648 164 579 c 128,-1,21
EndSplineSet
EndChar

StartChar: Ugrave
Encoding: 217 217 154
Width: 471
GlyphClass: 2
Flags: W
LayerCount: 2
Fore
SplineSet
324 300 m 2,0,-1
 324 720 l 1,1,-1
 349 720 l 2,2,3
 402 720 402 720 411.5 712.5 c 128,-1,4
 421 705 421 705 421 659 c 2,5,-1
 421 300 l 2,6,7
 421 146 421 146 413.5 119.5 c 128,-1,8
 406 93 406 93 397.5 69 c 128,-1,9
 389 45 389 45 376 34.5 c 128,-1,10
 363 24 363 24 344 12 c 0,11,12
 312 -7 312 -7 239 -7 c 0,13,14
 180 -7 180 -7 157.5 3 c 128,-1,15
 135 13 135 13 122 19.5 c 128,-1,16
 109 26 109 26 99 42 c 128,-1,17
 89 58 89 58 82.5 68 c 128,-1,18
 76 78 76 78 72 102.5 c 128,-1,19
 68 127 68 127 65.5 141 c 128,-1,20
 63 155 63 155 62 188.5 c 128,-1,21
 61 222 61 222 61 240 c 2,22,-1
 61 720 l 1,23,-1
 85 720 l 2,24,25
 139 720 139 720 148 712.5 c 128,-1,26
 157 705 157 705 157 659 c 2,27,-1
 157 268 l 2,28,29
 157 159 157 159 170.5 120.5 c 128,-1,30
 184 82 184 82 239 82 c 0,31,32
 260 82 260 82 274.5 86.5 c 128,-1,33
 289 91 289 91 298.5 106 c 128,-1,34
 308 121 308 121 313.5 133.5 c 128,-1,35
 319 146 319 146 321 178 c 0,36,37
 324 225 324 225 324 300 c 2,0,-1
148 908 m 2,38,39
 167 927 167 927 178.5 927 c 128,-1,40
 190 927 190 927 198 922 c 0,41,42
 210 916 210 916 234 890 c 2,43,-1
 309 807 l 1,44,-1
 253 749 l 1,45,-1
 121 881 l 1,46,-1
 148 908 l 2,38,39
EndSplineSet
EndChar

StartChar: Uacute
Encoding: 218 218 155
Width: 471
GlyphClass: 2
Flags: W
LayerCount: 2
Fore
SplineSet
324 300 m 2,0,-1
 324 720 l 1,1,-1
 349 720 l 2,2,3
 402 720 402 720 411.5 712.5 c 128,-1,4
 421 705 421 705 421 659 c 2,5,-1
 421 300 l 2,6,7
 421 146 421 146 413.5 119.5 c 128,-1,8
 406 93 406 93 397.5 69 c 128,-1,9
 389 45 389 45 376 34.5 c 128,-1,10
 363 24 363 24 344 12 c 0,11,12
 312 -7 312 -7 239 -7 c 0,13,14
 180 -7 180 -7 157.5 3 c 128,-1,15
 135 13 135 13 122 19.5 c 128,-1,16
 109 26 109 26 99 42 c 128,-1,17
 89 58 89 58 82.5 68 c 128,-1,18
 76 78 76 78 72 102.5 c 128,-1,19
 68 127 68 127 65.5 141 c 128,-1,20
 63 155 63 155 62 188.5 c 128,-1,21
 61 222 61 222 61 240 c 2,22,-1
 61 720 l 1,23,-1
 85 720 l 2,24,25
 139 720 139 720 148 712.5 c 128,-1,26
 157 705 157 705 157 659 c 2,27,-1
 157 268 l 2,28,29
 157 159 157 159 170.5 120.5 c 128,-1,30
 184 82 184 82 239 82 c 0,31,32
 260 82 260 82 274.5 86.5 c 128,-1,33
 289 91 289 91 298.5 106 c 128,-1,34
 308 121 308 121 313.5 133.5 c 128,-1,35
 319 146 319 146 321 178 c 0,36,37
 324 225 324 225 324 300 c 2,0,-1
360 899 m 1,38,-1
 379 881 l 1,39,-1
 247 749 l 1,40,-1
 191 807 l 1,41,-1
 264 890 l 1,42,43
 290 916 290 916 299.5 921.5 c 128,-1,44
 309 927 309 927 320.5 927 c 128,-1,45
 332 927 332 927 360 899 c 1,38,-1
EndSplineSet
EndChar

StartChar: Udieresis
Encoding: 220 220 157
Width: 471
GlyphClass: 2
Flags: W
LayerCount: 2
Fore
SplineSet
324 300 m 2,0,-1
 324 720 l 1,1,-1
 349 720 l 2,2,3
 402 720 402 720 411.5 712.5 c 128,-1,4
 421 705 421 705 421 659 c 2,5,-1
 421 300 l 2,6,7
 421 146 421 146 413.5 119.5 c 128,-1,8
 406 93 406 93 397.5 69 c 128,-1,9
 389 45 389 45 376 34.5 c 128,-1,10
 363 24 363 24 344 12 c 0,11,12
 312 -7 312 -7 239 -7 c 0,13,14
 180 -7 180 -7 157.5 3 c 128,-1,15
 135 13 135 13 122 19.5 c 128,-1,16
 109 26 109 26 99 42 c 128,-1,17
 89 58 89 58 82.5 68 c 128,-1,18
 76 78 76 78 72 102.5 c 128,-1,19
 68 127 68 127 65.5 141 c 128,-1,20
 63 155 63 155 62 188.5 c 128,-1,21
 61 222 61 222 61 240 c 2,22,-1
 61 720 l 1,23,-1
 85 720 l 2,24,25
 139 720 139 720 148 712.5 c 128,-1,26
 157 705 157 705 157 659 c 2,27,-1
 157 268 l 2,28,29
 157 159 157 159 170.5 120.5 c 128,-1,30
 184 82 184 82 239 82 c 0,31,32
 260 82 260 82 274.5 86.5 c 128,-1,33
 289 91 289 91 298.5 106 c 128,-1,34
 308 121 308 121 313.5 133.5 c 128,-1,35
 319 146 319 146 321 178 c 0,36,37
 324 225 324 225 324 300 c 2,0,-1
111.5 801.5 m 128,-1,39
 93 820 93 820 93 844.5 c 128,-1,40
 93 869 93 869 111 886 c 128,-1,41
 129 903 129 903 153 903 c 128,-1,42
 177 903 177 903 195 886 c 128,-1,43
 213 869 213 869 213 844.5 c 128,-1,44
 213 820 213 820 195 801.5 c 128,-1,45
 177 783 177 783 153.5 783 c 128,-1,38
 130 783 130 783 111.5 801.5 c 128,-1,39
284.5 801.5 m 128,-1,47
 266 820 266 820 266 844.5 c 128,-1,48
 266 869 266 869 284 886 c 128,-1,49
 302 903 302 903 326.5 903 c 128,-1,50
 351 903 351 903 369 886 c 128,-1,51
 387 869 387 869 387 844.5 c 128,-1,52
 387 820 387 820 369 801.5 c 128,-1,53
 351 783 351 783 327 783 c 128,-1,46
 303 783 303 783 284.5 801.5 c 128,-1,47
EndSplineSet
EndChar

StartChar: Thorn
Encoding: 222 222 159
Width: 373
GlyphClass: 2
Flags: W
LayerCount: 2
Fore
SplineSet
45 -129 m 2,0,-1
 45 674 l 2,1,2
 45 720 45 720 56.5 728 c 128,-1,3
 68 736 68 736 135 736 c 1,4,-1
 135 589 l 1,5,-1
 207 609 l 1,6,7
 286 609 286 609 327 564 c 0,8,9
 343 547 343 547 350.5 502.5 c 128,-1,10
 358 458 358 458 359 425 c 128,-1,11
 360 392 360 392 360 331 c 128,-1,12
 360 270 360 270 359.5 246 c 128,-1,13
 359 222 359 222 357.5 184 c 128,-1,14
 356 146 356 146 351.5 127 c 128,-1,15
 347 108 347 108 340 81.5 c 128,-1,16
 333 55 333 55 322 42.5 c 128,-1,17
 311 30 311 30 295 16 c 0,18,19
 267 -7 267 -7 206 -7 c 1,20,-1
 135 28 l 1,21,-1
 135 -191 l 1,22,23
 68 -191 68 -191 56.5 -183.5 c 128,-1,24
 45 -176 45 -176 45 -129 c 2,0,-1
268.5 252 m 128,-1,26
 269 274 269 274 269 361.5 c 128,-1,27
 269 449 269 449 259 482 c 0,28,29
 246 523 246 523 211 524 c 1,30,-1
 129 504 l 1,31,-1
 136 487 l 1,32,-1
 136 136 l 1,33,-1
 128 113 l 1,34,-1
 209 78 l 1,35,36
 240 80 240 80 252 112 c 0,37,38
 264 147 264 147 266 188.5 c 128,-1,25
 268 230 268 230 268.5 252 c 128,-1,26
EndSplineSet
EndChar

StartChar: germandbls
Encoding: 223 223 160
Width: 472
GlyphClass: 2
Flags: W
LayerCount: 2
Fore
SplineSet
165 88 m 1,0,1
 255 78 255 78 300 78 c 128,-1,2
 345 78 345 78 345 130 c 2,3,-1
 345 167 l 2,4,5
 345 182 345 182 316.5 207.5 c 128,-1,6
 288 233 288 233 254.5 258.5 c 128,-1,7
 221 284 221 284 192.5 321 c 128,-1,8
 164 358 164 358 164 392.5 c 128,-1,9
 164 427 164 427 168.5 450 c 128,-1,10
 173 473 173 473 186 496 c 0,11,12
 211 543 211 543 300 543 c 0,13,14
 306 543 306 543 307 554 c 128,-1,15
 308 565 308 565 308 619 c 0,16,17
 308 639 308 639 255 639 c 2,18,-1
 210 639 l 2,19,20
 154 639 154 639 145 629 c 128,-1,21
 136 619 136 619 136 558 c 2,22,-1
 135 71 l 2,23,24
 135 18 135 18 123.5 9 c 128,-1,25
 112 0 112 0 45 0 c 1,26,-1
 46 558 l 1,27,-1
 46 608 l 2,28,29
 46 656 46 656 52 669 c 128,-1,30
 58 682 58 682 67 694 c 128,-1,31
 76 706 76 706 86 708.5 c 128,-1,32
 96 711 96 711 116 715 c 0,33,34
 140 720 140 720 210 720 c 2,35,-1
 260 720 l 2,36,37
 342 720 342 720 378 674 c 0,38,39
 393 655 393 655 393 630 c 0,40,41
 393 518 393 518 381 488.5 c 128,-1,42
 369 459 369 459 310 459 c 0,43,44
 270 459 270 459 261 441 c 0,45,46
 254 427 254 427 254 399 c 0,47,48
 254 373 254 373 320 325 c 0,49,50
 348 305 348 305 375 283 c 128,-1,51
 402 261 402 261 421.5 232.5 c 128,-1,52
 441 204 441 204 441 172 c 128,-1,53
 441 140 441 140 440 122 c 128,-1,54
 439 104 439 104 431.5 75 c 128,-1,55
 424 46 424 46 410 31 c 128,-1,56
 396 16 396 16 367.5 4.5 c 128,-1,57
 339 -7 339 -7 308.5 -7 c 128,-1,58
 278 -7 278 -7 256.5 -4.5 c 128,-1,59
 235 -2 235 -2 206.5 3 c 128,-1,60
 178 8 178 8 165 10 c 1,61,-1
 165 88 l 1,0,1
EndSplineSet
EndChar

StartChar: atilde
Encoding: 227 227 164
Width: 362
GlyphClass: 2
Flags: W
LayerCount: 2
Fore
SplineSet
234 413 m 1,0,-1
 235 440 l 2,1,2
 235 454 235 454 232 455 c 128,-1,3
 229 456 229 456 225 459.5 c 128,-1,4
 221 463 221 463 214.5 461 c 128,-1,5
 208 459 208 459 199 460 c 1,6,-1
 145 453 l 2,7,8
 124 450 124 450 109 450 c 128,-1,9
 94 450 94 450 86 457 c 128,-1,10
 78 464 78 464 70 521 c 1,11,-1
 186 544 l 1,12,13
 257 544 257 544 275 533.5 c 128,-1,14
 293 523 293 523 301 516 c 128,-1,15
 309 509 309 509 312 488 c 1,16,17
 317 462 317 462 317 406 c 2,18,-1
 317 0 l 1,19,20
 259 0 259 0 244 6 c 128,-1,21
 229 12 229 12 228 35 c 1,22,-1
 145 -7 l 1,23,24
 117 -7 117 -7 103.5 -6.5 c 128,-1,25
 90 -6 90 -6 76.5 2 c 128,-1,26
 63 10 63 10 58.5 18 c 128,-1,27
 54 26 54 26 50 52 c 0,28,29
 45 83 45 83 45 179 c 2,30,-1
 45 248 l 2,31,32
 45 361 45 361 242 365 c 1,33,-1
 234 389 l 1,34,-1
 234 413 l 1,0,-1
139 78 m 0,35,36
 140 78 140 78 240 116 c 1,37,-1
 230 145 l 1,38,-1
 230 264 l 1,39,-1
 238 287 l 1,40,41
 197 286 197 286 166 279 c 128,-1,42
 135 272 135 272 135 260 c 2,43,-1
 134 128 l 2,44,45
 134 78 134 78 139 78 c 0,35,36
123 716 m 1,46,-1
 264 707 l 1,47,48
 283 707 283 707 290 708 c 1,49,-1
 322 707 l 1,50,-1
 322 670 l 2,51,52
 322 636 322 636 313 630 c 128,-1,53
 304 624 304 624 264 624 c 128,-1,54
 224 624 224 624 180.5 629 c 128,-1,55
 137 634 137 634 114 634 c 128,-1,56
 91 634 91 634 84 632 c 1,57,-1
 51 634 l 1,58,-1
 51 671 l 2,59,60
 51 705 51 705 60 710.5 c 128,-1,61
 69 716 69 716 123 716 c 1,46,-1
EndSplineSet
EndChar

StartChar: aring
Encoding: 229 229 166
Width: 362
GlyphClass: 2
Flags: W
LayerCount: 2
Fore
SplineSet
122.5 601 m 128,-1,1
 94 629 94 629 94 667 c 128,-1,2
 94 705 94 705 122.5 732.5 c 128,-1,3
 151 760 151 760 189 760 c 128,-1,4
 227 760 227 760 255 732.5 c 128,-1,5
 283 705 283 705 283 666.5 c 128,-1,6
 283 628 283 628 255 600.5 c 128,-1,7
 227 573 227 573 189 573 c 128,-1,0
 151 573 151 573 122.5 601 c 128,-1,1
167.5 687 m 128,-1,9
 158 678 158 678 158 666.5 c 128,-1,10
 158 655 158 655 168 645 c 128,-1,11
 178 635 178 635 189.5 635 c 128,-1,12
 201 635 201 635 211 645 c 128,-1,13
 221 655 221 655 221 666.5 c 128,-1,14
 221 678 221 678 211 687 c 128,-1,15
 201 696 201 696 189 696 c 128,-1,8
 177 696 177 696 167.5 687 c 128,-1,9
234 413 m 1,16,-1
 235 440 l 2,17,18
 235 454 235 454 232 455 c 128,-1,19
 229 456 229 456 225 459.5 c 128,-1,20
 221 463 221 463 214.5 461 c 128,-1,21
 208 459 208 459 199 460 c 1,22,-1
 145 453 l 2,23,24
 124 450 124 450 109 450 c 128,-1,25
 94 450 94 450 86 457 c 128,-1,26
 78 464 78 464 70 521 c 1,27,-1
 186 544 l 1,28,29
 257 544 257 544 275 533.5 c 128,-1,30
 293 523 293 523 301 516 c 128,-1,31
 309 509 309 509 312 488 c 1,32,33
 317 462 317 462 317 406 c 2,34,-1
 317 0 l 1,35,36
 259 0 259 0 244 6 c 128,-1,37
 229 12 229 12 228 35 c 1,38,-1
 145 -7 l 1,39,40
 117 -7 117 -7 103.5 -6.5 c 128,-1,41
 90 -6 90 -6 76.5 2 c 128,-1,42
 63 10 63 10 58.5 18 c 128,-1,43
 54 26 54 26 50 52 c 0,44,45
 45 83 45 83 45 179 c 2,46,-1
 45 248 l 2,47,48
 45 361 45 361 242 365 c 1,49,-1
 234 389 l 1,50,-1
 234 413 l 1,16,-1
139 78 m 0,51,52
 140 78 140 78 240 116 c 1,53,-1
 230 145 l 1,54,-1
 230 264 l 1,55,-1
 238 287 l 1,56,57
 197 286 197 286 166 279 c 128,-1,58
 135 272 135 272 135 260 c 2,59,-1
 134 128 l 2,60,61
 134 78 134 78 139 78 c 0,51,52
EndSplineSet
EndChar

StartChar: ae
Encoding: 230 230 167
Width: 576
GlyphClass: 2
Flags: W
LayerCount: 2
Fore
SplineSet
379 459 m 0,0,1
 340 459 340 459 329.5 437 c 128,-1,2
 319 415 319 415 319 357 c 1,3,-1
 314 341 l 1,4,-1
 425 341 l 1,5,-1
 420 357 l 1,6,7
 420 414 420 414 412.5 436.5 c 128,-1,8
 405 459 405 459 379 459 c 0,0,1
225 116 m 1,9,-1
 224 258 l 1,10,11
 129 256 129 256 129 235 c 2,12,-1
 128 128 l 2,13,14
 128 84 128 84 134 78 c 1,15,-1
 225 116 l 1,9,-1
308 255 m 1,16,-1
 314 237 l 1,17,18
 314 140 314 140 325 109 c 128,-1,19
 336 78 336 78 379 78 c 0,20,21
 407 78 407 78 454.5 82.5 c 128,-1,22
 502 87 502 87 516 88 c 1,23,-1
 516 10 l 1,24,25
 499 8 499 8 472 4 c 0,26,27
 409 -7 409 -7 379 -7 c 0,28,29
 282 -7 282 -7 253 49 c 1,30,-1
 140 -7 l 1,31,32
 90 -7 90 -7 75 6.5 c 128,-1,33
 60 20 60 20 54 30.5 c 128,-1,34
 48 41 48 41 45 68 c 0,35,36
 41 104 41 104 41 186 c 2,37,-1
 41 228 l 2,38,39
 41 341 41 341 224 345 c 1,40,-1
 224 413 l 2,41,42
 224 450 224 450 206 456 c 0,43,44
 196 459 196 459 181 459 c 1,45,-1
 139 453 l 2,46,47
 118 450 118 450 103 450 c 128,-1,48
 88 450 88 450 80 457 c 128,-1,49
 72 464 72 464 64 521 c 1,50,-1
 180 544 l 1,51,52
 251 544 251 544 281 520 c 1,53,54
 319 544 319 544 379 544 c 0,55,56
 463 544 463 544 486 504 c 0,57,58
 495 487 495 487 500 474.5 c 128,-1,59
 505 462 505 462 507 434 c 0,60,61
 510 391 510 391 510 328 c 2,62,-1
 510 260 l 1,63,-1
 308 255 l 1,16,-1
EndSplineSet
EndChar

StartChar: ccedilla
Encoding: 231 231 168
Width: 334
GlyphClass: 2
Flags: W
LayerCount: 2
Fore
SplineSet
134 271 m 128,-1,1
 134 208 134 208 135 181.5 c 128,-1,2
 136 155 136 155 141.5 125.5 c 128,-1,3
 147 96 147 96 159.5 87 c 128,-1,4
 172 78 172 78 192.5 78 c 128,-1,5
 213 78 213 78 230.5 81.5 c 128,-1,6
 248 85 248 85 269 90.5 c 128,-1,7
 290 96 290 96 304 98 c 1,8,-1
 304 20 l 1,9,10
 291 17 291 17 263.5 7.5 c 128,-1,11
 236 -2 236 -2 221 -4 c 1,12,-1
 221 -117 l 2,13,14
 221 -155 221 -155 211.5 -165 c 128,-1,15
 202 -175 202 -175 164 -175 c 2,16,-1
 131 -175 l 2,17,18
 82 -175 82 -175 74 -166 c 128,-1,19
 66 -157 66 -157 66 -103 c 1,20,-1
 149 -103 l 1,21,-1
 149 -3 l 1,22,23
 111 2 111 2 83 26 c 0,24,25
 67 41 67 41 53 94 c 0,26,27
 45 125 45 125 45 219 c 2,28,-1
 45 332 l 2,29,30
 45 400 45 400 49 421.5 c 128,-1,31
 53 443 53 443 58 465 c 128,-1,32
 63 487 63 487 70.5 495.5 c 128,-1,33
 78 504 78 504 89 516 c 128,-1,34
 100 528 100 528 116 532 c 0,35,36
 155 544 155 544 195 544 c 1,37,-1
 308 520 l 1,38,39
 300 463 300 463 292 456 c 128,-1,40
 284 449 284 449 269 449 c 128,-1,41
 254 449 254 449 233 452 c 2,42,-1
 195 459 l 1,43,44
 172 459 172 459 159.5 451 c 128,-1,45
 147 443 147 443 141.5 414.5 c 128,-1,46
 136 386 136 386 135 360 c 128,-1,0
 134 334 134 334 134 271 c 128,-1,1
EndSplineSet
EndChar

StartChar: egrave
Encoding: 232 232 169
Width: 369
GlyphClass: 2
Flags: W
LayerCount: 2
Fore
SplineSet
201 78 m 0,0,1
 269 78 269 78 339 88 c 1,2,-1
 339 10 l 1,3,4
 246 -7 246 -7 207 -7 c 128,-1,5
 168 -7 168 -7 144.5 -1.5 c 128,-1,6
 121 4 121 4 104 11.5 c 128,-1,7
 87 19 87 19 76 37 c 128,-1,8
 65 55 65 55 59 70.5 c 128,-1,9
 53 86 53 86 50 118 c 0,10,11
 46 161 46 161 46 209.5 c 128,-1,12
 46 258 46 258 46 291 c 2,13,-1
 46 343 l 2,14,15
 46 414 46 414 50 431.5 c 128,-1,16
 54 449 54 449 59 469.5 c 128,-1,17
 64 490 64 490 72 498.5 c 128,-1,18
 80 507 80 507 91.5 518.5 c 128,-1,19
 103 530 103 530 118 534 c 0,20,21
 165 544 165 544 202 544 c 128,-1,22
 239 544 239 544 265.5 532.5 c 128,-1,23
 292 521 292 521 306.5 504 c 128,-1,24
 321 487 321 487 329 456 c 0,25,26
 342 407 342 407 342 328 c 1,27,-1
 345 260 l 1,28,-1
 127 255 l 1,29,-1
 135 232 l 1,30,31
 135 133 135 133 144.5 105.5 c 128,-1,32
 154 78 154 78 201 78 c 0,0,1
242.5 438.5 m 128,-1,34
 233 459 233 459 197 459 c 128,-1,35
 161 459 161 459 150.5 441 c 128,-1,36
 140 423 140 423 140 363 c 1,37,-1
 132 341 l 1,38,-1
 263 341 l 1,39,-1
 253 363 l 1,40,33
 252 418 252 418 242.5 438.5 c 128,-1,34
132 752 m 2,41,42
 151 771 151 771 162.5 771 c 128,-1,43
 174 771 174 771 182 766 c 0,44,45
 194 760 194 760 218 734 c 2,46,-1
 293 651 l 1,47,-1
 237 593 l 1,48,-1
 105 725 l 1,49,-1
 132 752 l 2,41,42
EndSplineSet
EndChar

StartChar: eacute
Encoding: 233 233 170
Width: 369
GlyphClass: 2
Flags: W
LayerCount: 2
Fore
SplineSet
201 78 m 0,0,1
 269 78 269 78 339 88 c 1,2,-1
 339 10 l 1,3,4
 246 -7 246 -7 207 -7 c 128,-1,5
 168 -7 168 -7 144.5 -1.5 c 128,-1,6
 121 4 121 4 104 11.5 c 128,-1,7
 87 19 87 19 76 37 c 128,-1,8
 65 55 65 55 59 70.5 c 128,-1,9
 53 86 53 86 50 118 c 0,10,11
 46 161 46 161 46 209.5 c 128,-1,12
 46 258 46 258 46 291 c 2,13,-1
 46 343 l 2,14,15
 46 414 46 414 50 431.5 c 128,-1,16
 54 449 54 449 59 469.5 c 128,-1,17
 64 490 64 490 72 498.5 c 128,-1,18
 80 507 80 507 91.5 518.5 c 128,-1,19
 103 530 103 530 118 534 c 0,20,21
 165 544 165 544 202 544 c 128,-1,22
 239 544 239 544 265.5 532.5 c 128,-1,23
 292 521 292 521 306.5 504 c 128,-1,24
 321 487 321 487 329 456 c 0,25,26
 342 407 342 407 342 328 c 1,27,-1
 345 260 l 1,28,-1
 127 255 l 1,29,-1
 135 232 l 1,30,31
 135 133 135 133 144.5 105.5 c 128,-1,32
 154 78 154 78 201 78 c 0,0,1
242.5 438.5 m 128,-1,34
 233 459 233 459 197 459 c 128,-1,35
 161 459 161 459 150.5 441 c 128,-1,36
 140 423 140 423 140 363 c 1,37,-1
 132 341 l 1,38,-1
 263 341 l 1,39,-1
 253 363 l 1,40,33
 252 418 252 418 242.5 438.5 c 128,-1,34
325 745 m 1,41,-1
 344 727 l 1,42,-1
 212 595 l 1,43,-1
 156 653 l 1,44,-1
 229 736 l 1,45,46
 255 762 255 762 264.5 767.5 c 128,-1,47
 274 773 274 773 285.5 773 c 128,-1,48
 297 773 297 773 325 745 c 1,41,-1
EndSplineSet
EndChar

StartChar: ecircumflex
Encoding: 234 234 171
Width: 369
GlyphClass: 2
Flags: W
LayerCount: 2
Fore
SplineSet
201 78 m 0,0,1
 269 78 269 78 339 88 c 1,2,-1
 339 10 l 1,3,4
 246 -7 246 -7 207 -7 c 128,-1,5
 168 -7 168 -7 144.5 -1.5 c 128,-1,6
 121 4 121 4 104 11.5 c 128,-1,7
 87 19 87 19 76 37 c 128,-1,8
 65 55 65 55 59 70.5 c 128,-1,9
 53 86 53 86 50 118 c 0,10,11
 46 161 46 161 46 209.5 c 128,-1,12
 46 258 46 258 46 291 c 2,13,-1
 46 343 l 2,14,15
 46 414 46 414 50 431.5 c 128,-1,16
 54 449 54 449 59 469.5 c 128,-1,17
 64 490 64 490 72 498.5 c 128,-1,18
 80 507 80 507 91.5 518.5 c 128,-1,19
 103 530 103 530 118 534 c 0,20,21
 165 544 165 544 202 544 c 128,-1,22
 239 544 239 544 265.5 532.5 c 128,-1,23
 292 521 292 521 306.5 504 c 128,-1,24
 321 487 321 487 329 456 c 0,25,26
 342 407 342 407 342 328 c 1,27,-1
 345 260 l 1,28,-1
 127 255 l 1,29,-1
 135 232 l 1,30,31
 135 133 135 133 144.5 105.5 c 128,-1,32
 154 78 154 78 201 78 c 0,0,1
242.5 438.5 m 128,-1,34
 233 459 233 459 197 459 c 128,-1,35
 161 459 161 459 150.5 441 c 128,-1,36
 140 423 140 423 140 363 c 1,37,-1
 132 341 l 1,38,-1
 263 341 l 1,39,-1
 253 363 l 1,40,33
 252 418 252 418 242.5 438.5 c 128,-1,34
200 769 m 1,41,-1
 234 769 l 1,42,-1
 364 696 l 1,43,-1
 364 606 l 1,44,-1
 218 686 l 1,45,-1
 72 606 l 1,46,-1
 72 697 l 1,47,-1
 200 769 l 1,41,-1
EndSplineSet
EndChar

StartChar: edieresis
Encoding: 235 235 172
Width: 369
GlyphClass: 2
Flags: W
LayerCount: 2
Fore
SplineSet
201 78 m 0,0,1
 269 78 269 78 339 88 c 1,2,-1
 339 10 l 1,3,4
 246 -7 246 -7 207 -7 c 128,-1,5
 168 -7 168 -7 144.5 -1.5 c 128,-1,6
 121 4 121 4 104 11.5 c 128,-1,7
 87 19 87 19 76 37 c 128,-1,8
 65 55 65 55 59 70.5 c 128,-1,9
 53 86 53 86 50 118 c 0,10,11
 46 161 46 161 46 209.5 c 128,-1,12
 46 258 46 258 46 291 c 2,13,-1
 46 343 l 2,14,15
 46 414 46 414 50 431.5 c 128,-1,16
 54 449 54 449 59 469.5 c 128,-1,17
 64 490 64 490 72 498.5 c 128,-1,18
 80 507 80 507 91.5 518.5 c 128,-1,19
 103 530 103 530 118 534 c 0,20,21
 165 544 165 544 202 544 c 128,-1,22
 239 544 239 544 265.5 532.5 c 128,-1,23
 292 521 292 521 306.5 504 c 128,-1,24
 321 487 321 487 329 456 c 0,25,26
 342 407 342 407 342 328 c 1,27,-1
 345 260 l 1,28,-1
 127 255 l 1,29,-1
 135 232 l 1,30,31
 135 133 135 133 144.5 105.5 c 128,-1,32
 154 78 154 78 201 78 c 0,0,1
242.5 438.5 m 128,-1,34
 233 459 233 459 197 459 c 128,-1,35
 161 459 161 459 150.5 441 c 128,-1,36
 140 423 140 423 140 363 c 1,37,-1
 132 341 l 1,38,-1
 263 341 l 1,39,-1
 253 363 l 1,40,33
 252 418 252 418 242.5 438.5 c 128,-1,34
86.5 618.5 m 128,-1,42
 68 637 68 637 68 661.5 c 128,-1,43
 68 686 68 686 86 703 c 128,-1,44
 104 720 104 720 128 720 c 128,-1,45
 152 720 152 720 170 703 c 128,-1,46
 188 686 188 686 188 661.5 c 128,-1,47
 188 637 188 637 170 618.5 c 128,-1,48
 152 600 152 600 128.5 600 c 128,-1,41
 105 600 105 600 86.5 618.5 c 128,-1,42
259.5 618.5 m 128,-1,50
 241 637 241 637 241 661.5 c 128,-1,51
 241 686 241 686 259 703 c 128,-1,52
 277 720 277 720 301.5 720 c 128,-1,53
 326 720 326 720 344 703 c 128,-1,54
 362 686 362 686 362 661.5 c 128,-1,55
 362 637 362 637 344 618.5 c 128,-1,56
 326 600 326 600 302 600 c 128,-1,49
 278 600 278 600 259.5 618.5 c 128,-1,50
EndSplineSet
EndChar

StartChar: igrave
Encoding: 236 236 173
Width: 216
GlyphClass: 2
Flags: W
LayerCount: 2
Fore
SplineSet
57 56 m 2,0,-1
 57 537 l 1,1,2
 124 537 124 537 135 529.5 c 128,-1,3
 146 522 146 522 146 477 c 2,4,-1
 146 -4 l 1,5,6
 79 -4 79 -4 68 3.5 c 128,-1,7
 57 11 57 11 57 56 c 2,0,-1
25 758 m 2,8,9
 44 777 44 777 55.5 777 c 128,-1,10
 67 777 67 777 75 772 c 0,11,12
 87 766 87 766 111 740 c 2,13,-1
 186 657 l 1,14,-1
 130 599 l 1,15,-1
 -2 731 l 1,16,-1
 25 758 l 2,8,9
EndSplineSet
EndChar

StartChar: iacute
Encoding: 237 237 174
Width: 194
GlyphClass: 2
Flags: W
LayerCount: 2
Fore
SplineSet
45 56 m 2,0,-1
 45 537 l 1,1,2
 112 537 112 537 123 529.5 c 128,-1,3
 134 522 134 522 134 477 c 2,4,-1
 134 -4 l 1,5,6
 67 -4 67 -4 56 3.5 c 128,-1,7
 45 11 45 11 45 56 c 2,0,-1
179 747 m 1,8,-1
 198 729 l 1,9,-1
 66 597 l 1,10,-1
 10 655 l 1,11,-1
 83 738 l 1,12,13
 109 764 109 764 118.5 769.5 c 128,-1,14
 128 775 128 775 139.5 775 c 128,-1,15
 151 775 151 775 179 747 c 1,8,-1
EndSplineSet
EndChar

StartChar: icircumflex
Encoding: 238 238 175
Width: 324
GlyphClass: 2
Flags: W
LayerCount: 2
Fore
SplineSet
116 56 m 2,0,-1
 116 537 l 1,1,2
 183 537 183 537 194 529.5 c 128,-1,3
 205 522 205 522 205 477 c 2,4,-1
 205 -4 l 1,5,6
 138 -4 138 -4 127 3.5 c 128,-1,7
 116 11 116 11 116 56 c 2,0,-1
146 766 m 1,8,-1
 180 766 l 1,9,-1
 310 693 l 1,10,-1
 310 603 l 1,11,-1
 164 683 l 1,12,-1
 18 603 l 1,13,-1
 18 694 l 1,14,-1
 146 766 l 1,8,-1
EndSplineSet
EndChar

StartChar: idieresis
Encoding: 239 239 176
Width: 331
GlyphClass: 2
Flags: W
LayerCount: 2
Fore
SplineSet
105 56 m 2,0,-1
 105 537 l 1,1,2
 172 537 172 537 183 529.5 c 128,-1,3
 194 522 194 522 194 477 c 2,4,-1
 194 -4 l 1,5,6
 127 -4 127 -4 116 3.5 c 128,-1,7
 105 11 105 11 105 56 c 2,0,-1
17.5 624.5 m 128,-1,9
 -1 643 -1 643 -1 667.5 c 128,-1,10
 -1 692 -1 692 17 709 c 128,-1,11
 35 726 35 726 59 726 c 128,-1,12
 83 726 83 726 101 709 c 128,-1,13
 119 692 119 692 119 667.5 c 128,-1,14
 119 643 119 643 101 624.5 c 128,-1,15
 83 606 83 606 59.5 606 c 128,-1,8
 36 606 36 606 17.5 624.5 c 128,-1,9
190.5 624.5 m 128,-1,17
 172 643 172 643 172 667.5 c 128,-1,18
 172 692 172 692 190 709 c 128,-1,19
 208 726 208 726 232.5 726 c 128,-1,20
 257 726 257 726 275 709 c 128,-1,21
 293 692 293 692 293 667.5 c 128,-1,22
 293 643 293 643 275 624.5 c 128,-1,23
 257 606 257 606 233 606 c 128,-1,16
 209 606 209 606 190.5 624.5 c 128,-1,17
EndSplineSet
EndChar

StartChar: eth
Encoding: 240 240 177
Width: 374
GlyphClass: 2
Flags: W
LayerCount: 2
Fore
SplineSet
179 410 m 1,0,-1
 177 411 l 1,1,-1
 179 410 l 1,0,-1
129 380 m 128,-1,3
 119 351 119 351 119 245.5 c 128,-1,4
 119 140 119 140 128 112 c 128,-1,5
 137 84 137 84 181.5 84 c 128,-1,6
 226 84 226 84 236 120 c 1,7,8
 243 149 243 149 243 210 c 128,-1,9
 243 271 243 271 243 295 c 2,10,-1
 242 385 l 1,11,-1
 179 410 l 1,12,2
 139 409 139 409 129 380 c 128,-1,3
142 632 m 1,13,-1
 142 720 l 1,14,15
 203 720 203 720 236 698 c 0,16,17
 254 686 254 686 268.5 673.5 c 128,-1,18
 283 661 283 661 293.5 638 c 128,-1,19
 304 615 304 615 311 597 c 128,-1,20
 318 579 318 579 323 546.5 c 128,-1,21
 328 514 328 514 330.5 491.5 c 128,-1,22
 333 469 333 469 334 430 c 0,23,24
 336 350 336 350 336 295 c 0,25,26
 336 100 336 100 313 50 c 128,-1,27
 290 0 290 0 180 0 c 0,28,29
 126 0 126 0 108 6 c 128,-1,30
 90 12 90 12 79 16 c 128,-1,31
 68 20 68 20 59.5 31 c 128,-1,32
 51 42 51 42 45.5 49.5 c 128,-1,33
 40 57 40 57 36 76 c 128,-1,34
 32 95 32 95 30 107.5 c 128,-1,35
 28 120 28 120 27 147.5 c 128,-1,36
 26 175 26 175 26 194 c 2,37,-1
 26 250 l 2,38,39
 26 410 26 410 48.5 452 c 128,-1,40
 71 494 71 494 183 494 c 1,41,-1
 234 471 l 1,42,43
 226 556 226 556 205.5 594 c 128,-1,44
 185 632 185 632 142 632 c 1,13,-1
EndSplineSet
EndChar

StartChar: ograve
Encoding: 242 242 179
Width: 399
GlyphClass: 2
Flags: W
LayerCount: 2
Fore
SplineSet
45 266 m 2,0,1
 45 266 45 266 45 328 c 256,2,3
 45 390 45 390 48 411 c 128,-1,4
 51 432 51 432 55 452.5 c 128,-1,5
 59 473 59 473 64.5 482.5 c 128,-1,6
 70 492 70 492 78.5 505 c 128,-1,7
 87 518 87 518 98 523 c 128,-1,8
 109 528 109 528 124 534 c 0,9,10
 149 544 149 544 197 544 c 128,-1,11
 245 544 245 544 274.5 532.5 c 128,-1,12
 304 521 304 521 320.5 506.5 c 128,-1,13
 337 492 337 492 344 450.5 c 128,-1,14
 351 409 351 409 352.5 377 c 128,-1,15
 354 345 354 345 354 290 c 2,16,-1
 354 215 l 2,17,18
 354 151 354 151 351 130 c 128,-1,19
 348 109 348 109 344 88 c 128,-1,20
 340 67 340 67 334.5 57.5 c 128,-1,21
 329 48 329 48 320.5 34.5 c 128,-1,22
 312 21 312 21 300.5 15.5 c 128,-1,23
 289 10 289 10 274 4 c 0,24,25
 250 -7 250 -7 210 -7 c 128,-1,26
 170 -7 170 -7 148.5 -4 c 128,-1,27
 127 -1 127 -1 110.5 9 c 128,-1,28
 94 19 94 19 83 28 c 128,-1,29
 72 37 72 37 64.5 58.5 c 128,-1,30
 57 80 57 80 53 95 c 128,-1,31
 49 110 49 110 48 144 c 0,32,33
 45 201 45 201 45 266 c 2,0,1
199 459 m 0,34,35
 154 459 154 459 144 422.5 c 128,-1,36
 134 386 134 386 134 296.5 c 128,-1,37
 134 207 134 207 135 180.5 c 128,-1,38
 136 154 136 154 142 124.5 c 128,-1,39
 148 95 148 95 161.5 86.5 c 128,-1,40
 175 78 175 78 199 78 c 0,41,42
 244 78 244 78 254 116 c 128,-1,43
 264 154 264 154 264 244 c 128,-1,44
 264 334 264 334 263 360 c 128,-1,45
 262 386 262 386 256 414 c 128,-1,46
 250 442 250 442 236.5 450.5 c 128,-1,47
 223 459 223 459 199 459 c 0,34,35
132 758 m 2,48,49
 151 777 151 777 162.5 777 c 128,-1,50
 174 777 174 777 182 772 c 0,51,52
 194 766 194 766 218 740 c 2,53,-1
 293 657 l 1,54,-1
 237 599 l 1,55,-1
 105 731 l 1,56,-1
 132 758 l 2,48,49
EndSplineSet
EndChar

StartChar: oacute
Encoding: 243 243 180
Width: 399
GlyphClass: 2
Flags: W
LayerCount: 2
Fore
SplineSet
45 266 m 2,0,1
 45 266 45 266 45 328 c 256,2,3
 45 390 45 390 48 411 c 128,-1,4
 51 432 51 432 55 452.5 c 128,-1,5
 59 473 59 473 64.5 482.5 c 128,-1,6
 70 492 70 492 78.5 505 c 128,-1,7
 87 518 87 518 98 523 c 128,-1,8
 109 528 109 528 124 534 c 0,9,10
 149 544 149 544 197 544 c 128,-1,11
 245 544 245 544 274.5 532.5 c 128,-1,12
 304 521 304 521 320.5 506.5 c 128,-1,13
 337 492 337 492 344 450.5 c 128,-1,14
 351 409 351 409 352.5 377 c 128,-1,15
 354 345 354 345 354 290 c 2,16,-1
 354 215 l 2,17,18
 354 151 354 151 351 130 c 128,-1,19
 348 109 348 109 344 88 c 128,-1,20
 340 67 340 67 334.5 57.5 c 128,-1,21
 329 48 329 48 320.5 34.5 c 128,-1,22
 312 21 312 21 300.5 15.5 c 128,-1,23
 289 10 289 10 274 4 c 0,24,25
 250 -7 250 -7 210 -7 c 128,-1,26
 170 -7 170 -7 148.5 -4 c 128,-1,27
 127 -1 127 -1 110.5 9 c 128,-1,28
 94 19 94 19 83 28 c 128,-1,29
 72 37 72 37 64.5 58.5 c 128,-1,30
 57 80 57 80 53 95 c 128,-1,31
 49 110 49 110 48 144 c 0,32,33
 45 201 45 201 45 266 c 2,0,1
199 459 m 0,34,35
 154 459 154 459 144 422.5 c 128,-1,36
 134 386 134 386 134 296.5 c 128,-1,37
 134 207 134 207 135 180.5 c 128,-1,38
 136 154 136 154 142 124.5 c 128,-1,39
 148 95 148 95 161.5 86.5 c 128,-1,40
 175 78 175 78 199 78 c 0,41,42
 244 78 244 78 254 116 c 128,-1,43
 264 154 264 154 264 244 c 128,-1,44
 264 334 264 334 263 360 c 128,-1,45
 262 386 262 386 256 414 c 128,-1,46
 250 442 250 442 236.5 450.5 c 128,-1,47
 223 459 223 459 199 459 c 0,34,35
332 745 m 1,48,-1
 351 727 l 1,49,-1
 219 595 l 1,50,-1
 163 653 l 1,51,-1
 236 736 l 1,52,53
 262 762 262 762 271.5 767.5 c 128,-1,54
 281 773 281 773 292.5 773 c 128,-1,55
 304 773 304 773 332 745 c 1,48,-1
EndSplineSet
EndChar

StartChar: otilde
Encoding: 245 245 182
Width: 399
GlyphClass: 2
Flags: W
LayerCount: 2
Fore
SplineSet
45 266 m 2,0,1
 45 266 45 266 45 328 c 256,2,3
 45 390 45 390 48 411 c 128,-1,4
 51 432 51 432 55 452.5 c 128,-1,5
 59 473 59 473 64.5 482.5 c 128,-1,6
 70 492 70 492 78.5 505 c 128,-1,7
 87 518 87 518 98 523 c 128,-1,8
 109 528 109 528 124 534 c 0,9,10
 149 544 149 544 197 544 c 128,-1,11
 245 544 245 544 274.5 532.5 c 128,-1,12
 304 521 304 521 320.5 506.5 c 128,-1,13
 337 492 337 492 344 450.5 c 128,-1,14
 351 409 351 409 352.5 377 c 128,-1,15
 354 345 354 345 354 290 c 2,16,-1
 354 215 l 2,17,18
 354 151 354 151 351 130 c 128,-1,19
 348 109 348 109 344 88 c 128,-1,20
 340 67 340 67 334.5 57.5 c 128,-1,21
 329 48 329 48 320.5 34.5 c 128,-1,22
 312 21 312 21 300.5 15.5 c 128,-1,23
 289 10 289 10 274 4 c 0,24,25
 250 -7 250 -7 210 -7 c 128,-1,26
 170 -7 170 -7 148.5 -4 c 128,-1,27
 127 -1 127 -1 110.5 9 c 128,-1,28
 94 19 94 19 83 28 c 128,-1,29
 72 37 72 37 64.5 58.5 c 128,-1,30
 57 80 57 80 53 95 c 128,-1,31
 49 110 49 110 48 144 c 0,32,33
 45 201 45 201 45 266 c 2,0,1
199 459 m 0,34,35
 154 459 154 459 144 422.5 c 128,-1,36
 134 386 134 386 134 296.5 c 128,-1,37
 134 207 134 207 135 180.5 c 128,-1,38
 136 154 136 154 142 124.5 c 128,-1,39
 148 95 148 95 161.5 86.5 c 128,-1,40
 175 78 175 78 199 78 c 0,41,42
 244 78 244 78 254 116 c 128,-1,43
 264 154 264 154 264 244 c 128,-1,44
 264 334 264 334 263 360 c 128,-1,45
 262 386 262 386 256 414 c 128,-1,46
 250 442 250 442 236.5 450.5 c 128,-1,47
 223 459 223 459 199 459 c 0,34,35
341 670 m 2,48,49
 341 636 341 636 332 630 c 128,-1,50
 323 624 323 624 283 624 c 128,-1,51
 243 624 243 624 199.5 629 c 128,-1,52
 156 634 156 634 133 634 c 128,-1,53
 110 634 110 634 103 632 c 1,54,-1
 70 634 l 1,55,-1
 70 671 l 2,56,57
 70 705 70 705 79 710.5 c 128,-1,58
 88 716 88 716 127 716 c 128,-1,59
 166 716 166 716 209 711.5 c 128,-1,60
 252 707 252 707 277 707 c 128,-1,61
 302 707 302 707 309 708 c 1,62,-1
 341 707 l 1,63,-1
 341 670 l 2,48,49
EndSplineSet
EndChar

StartChar: odieresis
Encoding: 246 246 183
Width: 399
GlyphClass: 2
Flags: W
LayerCount: 2
Fore
SplineSet
45 266 m 2,0,1
 45 266 45 266 45 328 c 256,2,3
 45 390 45 390 48 411 c 128,-1,4
 51 432 51 432 55 452.5 c 128,-1,5
 59 473 59 473 64.5 482.5 c 128,-1,6
 70 492 70 492 78.5 505 c 128,-1,7
 87 518 87 518 98 523 c 128,-1,8
 109 528 109 528 124 534 c 0,9,10
 149 544 149 544 197 544 c 128,-1,11
 245 544 245 544 274.5 532.5 c 128,-1,12
 304 521 304 521 320.5 506.5 c 128,-1,13
 337 492 337 492 344 450.5 c 128,-1,14
 351 409 351 409 352.5 377 c 128,-1,15
 354 345 354 345 354 290 c 2,16,-1
 354 215 l 2,17,18
 354 151 354 151 351 130 c 128,-1,19
 348 109 348 109 344 88 c 128,-1,20
 340 67 340 67 334.5 57.5 c 128,-1,21
 329 48 329 48 320.5 34.5 c 128,-1,22
 312 21 312 21 300.5 15.5 c 128,-1,23
 289 10 289 10 274 4 c 0,24,25
 250 -7 250 -7 210 -7 c 128,-1,26
 170 -7 170 -7 148.5 -4 c 128,-1,27
 127 -1 127 -1 110.5 9 c 128,-1,28
 94 19 94 19 83 28 c 128,-1,29
 72 37 72 37 64.5 58.5 c 128,-1,30
 57 80 57 80 53 95 c 128,-1,31
 49 110 49 110 48 144 c 0,32,33
 45 201 45 201 45 266 c 2,0,1
199 459 m 0,34,35
 154 459 154 459 144 422.5 c 128,-1,36
 134 386 134 386 134 296.5 c 128,-1,37
 134 207 134 207 135 180.5 c 128,-1,38
 136 154 136 154 142 124.5 c 128,-1,39
 148 95 148 95 161.5 86.5 c 128,-1,40
 175 78 175 78 199 78 c 0,41,42
 244 78 244 78 254 116 c 128,-1,43
 264 154 264 154 264 244 c 128,-1,44
 264 334 264 334 263 360 c 128,-1,45
 262 386 262 386 256 414 c 128,-1,46
 250 442 250 442 236.5 450.5 c 128,-1,47
 223 459 223 459 199 459 c 0,34,35
72.5 626.5 m 128,-1,49
 54 645 54 645 54 669.5 c 128,-1,50
 54 694 54 694 72 711 c 128,-1,51
 90 728 90 728 114 728 c 128,-1,52
 138 728 138 728 156 711 c 128,-1,53
 174 694 174 694 174 669.5 c 128,-1,54
 174 645 174 645 156 626.5 c 128,-1,55
 138 608 138 608 114.5 608 c 128,-1,48
 91 608 91 608 72.5 626.5 c 128,-1,49
245.5 626.5 m 128,-1,57
 227 645 227 645 227 669.5 c 128,-1,58
 227 694 227 694 245 711 c 128,-1,59
 263 728 263 728 287.5 728 c 128,-1,60
 312 728 312 728 330 711 c 128,-1,61
 348 694 348 694 348 669.5 c 128,-1,62
 348 645 348 645 330 626.5 c 128,-1,63
 312 608 312 608 288 608 c 128,-1,56
 264 608 264 608 245.5 626.5 c 128,-1,57
EndSplineSet
EndChar

StartChar: divide
Encoding: 247 247 184
Width: 275
GlyphClass: 2
Flags: W
LayerCount: 2
Fore
SplineSet
96 18 m 128,-1,1
 78 36 78 36 78 60.5 c 128,-1,2
 78 85 78 85 96 102 c 128,-1,3
 114 119 114 119 138 119 c 128,-1,4
 162 119 162 119 180 102 c 128,-1,5
 198 85 198 85 198 60.5 c 128,-1,6
 198 36 198 36 180 18 c 128,-1,7
 162 0 162 0 138 0 c 128,-1,0
 114 0 114 0 96 18 c 128,-1,1
102 436 m 128,-1,9
 84 454 84 454 84 478.5 c 128,-1,10
 84 503 84 503 102 520 c 128,-1,11
 120 537 120 537 144.5 537 c 128,-1,12
 169 537 169 537 187 520 c 128,-1,13
 205 503 205 503 205 478.5 c 128,-1,14
 205 454 205 454 186.5 436 c 128,-1,15
 168 418 168 418 144 418 c 128,-1,8
 120 418 120 418 102 436 c 128,-1,9
26 333 m 1,16,-1
 261 333 l 1,17,-1
 261 251 l 1,18,-1
 26 251 l 1,19,-1
 26 333 l 1,16,-1
EndSplineSet
EndChar

StartChar: oslash
Encoding: 248 248 185
Width: 394
GlyphClass: 2
Flags: W
LayerCount: 2
Fore
SplineSet
54.5 112 m 128,-1,1
 49 162 49 162 49 238 c 2,2,-1
 49 334 l 2,3,4
 49 402 49 402 53 423.5 c 128,-1,5
 57 445 57 445 61.5 467 c 128,-1,6
 66 489 66 489 73.5 497.5 c 128,-1,7
 81 506 81 506 91.5 518 c 128,-1,8
 102 530 102 530 116 534 c 0,9,10
 156 545 156 545 184.5 545 c 128,-1,11
 213 545 213 545 222 544 c 1,12,-1
 258 634 l 1,13,-1
 353 634 l 1,14,-1
 301 507 l 1,15,16
 324 478 324 478 330 428 c 128,-1,17
 336 378 336 378 336 324 c 2,18,19
 336 324 336 324 336 268 c 0,20,21
 336 126 336 126 330.5 103 c 128,-1,22
 325 80 325 80 318 58.5 c 128,-1,23
 311 37 311 37 301 28.5 c 128,-1,24
 291 20 291 20 276 10 c 0,25,26
 252 -6 252 -6 193 -6 c 0,27,28
 180 -6 180 -6 162 -4 c 1,29,-1
 129 -88 l 1,30,-1
 35 -88 l 1,31,-1
 84 33 l 1,32,0
 60 62 60 62 54.5 112 c 128,-1,1
227.5 457.5 m 128,-1,34
 215 466 215 466 196.5 466 c 128,-1,35
 178 466 178 466 168 462.5 c 128,-1,36
 158 459 158 459 151.5 447.5 c 128,-1,37
 145 436 145 436 141.5 425 c 128,-1,38
 138 414 138 414 136 389 c 0,39,40
 134 347 134 347 134 246.5 c 128,-1,41
 134 146 134 146 142 115 c 0,42,43
 153 73 153 73 193 73 c 128,-1,44
 233 73 233 73 242.5 108.5 c 128,-1,45
 252 144 252 144 252 247 c 0,46,47
 252 258 252 258 252 299.5 c 128,-1,48
 252 341 252 341 251 367 c 128,-1,49
 250 393 250 393 245 421 c 128,-1,33
 240 449 240 449 227.5 457.5 c 128,-1,34
EndSplineSet
EndChar

StartChar: ugrave
Encoding: 249 249 186
Width: 411
GlyphClass: 2
Flags: W
LayerCount: 2
Fore
SplineSet
281 113 m 1,0,-1
 271 143 l 1,1,-1
 271 537 l 1,2,3
 338 537 338 537 349.5 529.5 c 128,-1,4
 361 522 361 522 361 477 c 2,5,-1
 361 0 l 1,6,7
 302 0 302 0 287 3.5 c 128,-1,8
 272 7 272 7 271 27 c 1,9,-1
 207 -7 l 1,10,11
 128 -7 128 -7 84 32 c 0,12,13
 56 56 56 56 52 164 c 0,14,15
 50 197 50 197 50 271 c 2,16,-1
 50 537 l 1,17,18
 117 537 117 537 128 529.5 c 128,-1,19
 139 522 139 522 139 477 c 2,20,-1
 139 273 l 2,21,22
 139 156 139 156 144.5 137 c 128,-1,23
 150 118 150 118 156 104 c 0,24,25
 166 80 166 80 197 78 c 1,26,-1
 281 113 l 1,0,-1
130 754 m 2,27,28
 149 773 149 773 160.5 773 c 128,-1,29
 172 773 172 773 180 768 c 0,30,31
 192 762 192 762 216 736 c 2,32,-1
 291 653 l 1,33,-1
 235 595 l 1,34,-1
 103 727 l 1,35,-1
 130 754 l 2,27,28
EndSplineSet
EndChar

StartChar: uacute
Encoding: 250 250 187
Width: 411
GlyphClass: 2
Flags: W
LayerCount: 2
Fore
SplineSet
281 113 m 1,0,-1
 271 143 l 1,1,-1
 271 537 l 1,2,3
 338 537 338 537 349.5 529.5 c 128,-1,4
 361 522 361 522 361 477 c 2,5,-1
 361 0 l 1,6,7
 302 0 302 0 287 3.5 c 128,-1,8
 272 7 272 7 271 27 c 1,9,-1
 207 -7 l 1,10,11
 128 -7 128 -7 84 32 c 0,12,13
 56 56 56 56 52 164 c 0,14,15
 50 197 50 197 50 271 c 2,16,-1
 50 537 l 1,17,18
 117 537 117 537 128 529.5 c 128,-1,19
 139 522 139 522 139 477 c 2,20,-1
 139 273 l 2,21,22
 139 156 139 156 144.5 137 c 128,-1,23
 150 118 150 118 156 104 c 0,24,25
 166 80 166 80 197 78 c 1,26,-1
 281 113 l 1,0,-1
287 745 m 1,27,-1
 306 727 l 1,28,-1
 174 595 l 1,29,-1
 118 653 l 1,30,-1
 191 736 l 1,31,32
 217 762 217 762 226.5 767.5 c 128,-1,33
 236 773 236 773 247.5 773 c 128,-1,34
 259 773 259 773 287 745 c 1,27,-1
EndSplineSet
EndChar

StartChar: ucircumflex
Encoding: 251 251 188
Width: 411
GlyphClass: 2
Flags: W
LayerCount: 2
Fore
SplineSet
281 113 m 1,0,-1
 271 143 l 1,1,-1
 271 537 l 1,2,3
 338 537 338 537 349.5 529.5 c 128,-1,4
 361 522 361 522 361 477 c 2,5,-1
 361 0 l 1,6,7
 302 0 302 0 287 3.5 c 128,-1,8
 272 7 272 7 271 27 c 1,9,-1
 207 -7 l 1,10,11
 128 -7 128 -7 84 32 c 0,12,13
 56 56 56 56 52 164 c 0,14,15
 50 197 50 197 50 271 c 2,16,-1
 50 537 l 1,17,18
 117 537 117 537 128 529.5 c 128,-1,19
 139 522 139 522 139 477 c 2,20,-1
 139 273 l 2,21,22
 139 156 139 156 144.5 137 c 128,-1,23
 150 118 150 118 156 104 c 0,24,25
 166 80 166 80 197 78 c 1,26,-1
 281 113 l 1,0,-1
184 771 m 1,27,-1
 218 771 l 1,28,-1
 348 698 l 1,29,-1
 348 608 l 1,30,-1
 202 688 l 1,31,-1
 56 608 l 1,32,-1
 56 699 l 1,33,-1
 184 771 l 1,27,-1
EndSplineSet
EndChar

StartChar: udieresis
Encoding: 252 252 189
Width: 411
GlyphClass: 2
Flags: W
LayerCount: 2
Fore
SplineSet
281 113 m 1,0,-1
 271 143 l 1,1,-1
 271 537 l 1,2,3
 338 537 338 537 349.5 529.5 c 128,-1,4
 361 522 361 522 361 477 c 2,5,-1
 361 0 l 1,6,7
 302 0 302 0 287 3.5 c 128,-1,8
 272 7 272 7 271 27 c 1,9,-1
 207 -7 l 1,10,11
 128 -7 128 -7 84 32 c 0,12,13
 56 56 56 56 52 164 c 0,14,15
 50 197 50 197 50 271 c 2,16,-1
 50 537 l 1,17,18
 117 537 117 537 128 529.5 c 128,-1,19
 139 522 139 522 139 477 c 2,20,-1
 139 273 l 2,21,22
 139 156 139 156 144.5 137 c 128,-1,23
 150 118 150 118 156 104 c 0,24,25
 166 80 166 80 197 78 c 1,26,-1
 281 113 l 1,0,-1
80.5 628.5 m 128,-1,28
 62 647 62 647 62 671.5 c 128,-1,29
 62 696 62 696 80 713 c 128,-1,30
 98 730 98 730 122 730 c 128,-1,31
 146 730 146 730 164 713 c 128,-1,32
 182 696 182 696 182 671.5 c 128,-1,33
 182 647 182 647 164 628.5 c 128,-1,34
 146 610 146 610 122.5 610 c 128,-1,27
 99 610 99 610 80.5 628.5 c 128,-1,28
253.5 628.5 m 128,-1,36
 235 647 235 647 235 671.5 c 128,-1,37
 235 696 235 696 253 713 c 128,-1,38
 271 730 271 730 295.5 730 c 128,-1,39
 320 730 320 730 338 713 c 128,-1,40
 356 696 356 696 356 671.5 c 128,-1,41
 356 647 356 647 338 628.5 c 128,-1,42
 320 610 320 610 296 610 c 128,-1,35
 272 610 272 610 253.5 628.5 c 128,-1,36
EndSplineSet
EndChar

StartChar: thorn
Encoding: 254 254 191
Width: 358
GlyphClass: 2
Flags: W
LayerCount: 2
Fore
SplineSet
250 116 m 128,-1,1
 259 153 259 153 259 262.5 c 128,-1,2
 259 372 259 372 250 414 c 128,-1,3
 241 456 241 456 203 459 c 1,4,-1
 133 441 l 1,5,-1
 133 112 l 1,6,-1
 201 78 l 1,7,0
 241 79 241 79 250 116 c 128,-1,1
45 -187 m 1,8,-1
 45 720 l 1,9,10
 110 720 110 720 121.5 712.5 c 128,-1,11
 133 705 133 705 133 659 c 2,12,-1
 133 524 l 1,13,-1
 190 544 l 1,14,15
 254 544 254 544 276 531 c 128,-1,16
 298 518 298 518 309.5 509 c 128,-1,17
 321 500 321 500 328.5 479 c 128,-1,18
 336 458 336 458 340 442 c 128,-1,19
 344 426 344 426 346 393 c 0,20,21
 349 344 349 344 349 268.5 c 128,-1,22
 349 193 349 193 347.5 160.5 c 128,-1,23
 346 128 346 128 339 86.5 c 128,-1,24
 332 45 332 45 316 30 c 0,25,26
 273 -7 273 -7 193 -7 c 1,27,-1
 133 34 l 1,28,-1
 133 -120 l 2,29,30
 133 -170 133 -170 122 -178.5 c 128,-1,31
 111 -187 111 -187 45 -187 c 1,8,-1
EndSplineSet
EndChar

StartChar: dotlessi
Encoding: 305 305 193
Width: 221
GlyphClass: 2
Flags: W
LayerCount: 2
Fore
SplineSet
90 378 m 1,0,-1
 15 378 l 1,1,2
 15 435 15 435 23.5 444.5 c 128,-1,3
 32 454 32 454 82 454 c 2,4,-1
 174 454 l 1,5,-1
 174 119 l 1,6,-1
 90 119 l 1,7,-1
 90 378 l 1,0,-1
EndSplineSet
EndChar

StartChar: lslash
Encoding: 322 322 195
Width: 199
GlyphClass: 2
Flags: W
LayerCount: 2
Fore
SplineSet
149 659 m 2,0,-1
 149 -4 l 1,1,2
 82 -4 82 -4 71 3.5 c 128,-1,3
 60 11 60 11 60 56 c 2,4,-1
 60 720 l 1,5,6
 126 720 126 720 137.5 712.5 c 128,-1,7
 149 705 149 705 149 659 c 2,0,-1
-27 378 m 1,8,-1
 262 378 l 1,9,-1
 262 296 l 1,10,-1
 -27 296 l 1,11,-1
 -27 378 l 1,8,-1
EndSplineSet
EndChar

StartChar: OE
Encoding: 338 338 196
Width: 650
GlyphClass: 2
Flags: W
LayerCount: 2
Fore
SplineSet
136.5 448.5 m 128,-1,1
 136 419 136 419 136 363.5 c 128,-1,2
 136 308 136 308 136.5 281.5 c 128,-1,3
 137 255 137 255 139.5 214.5 c 128,-1,4
 142 174 142 174 148 156 c 128,-1,5
 154 138 154 138 165 118 c 0,6,7
 184 82 184 82 234 82 c 1,8,-1
 305 89 l 1,9,-1
 305 634 l 1,10,-1
 234 643 l 1,11,12
 185 641 185 641 166 608 c 0,13,14
 144 569 144 569 140.5 523.5 c 128,-1,0
 137 478 137 478 136.5 448.5 c 128,-1,1
609 635 m 1,15,-1
 395 635 l 1,16,-1
 403 599 l 1,17,-1
 403 468 l 1,18,-1
 395 432 l 1,19,-1
 596 432 l 1,20,-1
 596 343 l 1,21,-1
 395 343 l 1,22,-1
 403 308 l 1,23,-1
 403 124 l 1,24,-1
 395 89 l 1,25,-1
 618 89 l 1,26,-1
 618 0 l 1,27,-1
 325 0 l 1,28,-1
 236 -7 l 1,29,30
 188 -7 188 -7 154 1 c 128,-1,31
 120 9 120 9 98.5 35 c 128,-1,32
 77 61 77 61 65.5 83 c 128,-1,33
 54 105 54 105 48 158 c 0,34,35
 41 231 41 231 41 346.5 c 128,-1,36
 41 462 41 462 42.5 504 c 128,-1,37
 44 546 44 546 53.5 602 c 128,-1,38
 63 658 63 658 84 679 c 0,39,40
 135 732 135 732 238 732 c 1,41,-1
 325 720 l 1,42,-1
 609 720 l 1,43,-1
 609 635 l 1,15,-1
EndSplineSet
EndChar

StartChar: oe
Encoding: 339 339 197
Width: 612
GlyphClass: 2
Flags: W
LayerCount: 2
Fore
SplineSet
360 116.5 m 128,-1,1
 373 78 373 78 420.5 78 c 128,-1,2
 468 78 468 78 568 88 c 1,3,-1
 568 10 l 1,4,5
 553 8 553 8 522 3 c 0,6,7
 460 -7 460 -7 421 -7 c 0,8,9
 343 -7 343 -7 305 26 c 1,10,11
 272 -7 272 -7 196 -7 c 0,12,13
 134 -7 134 -7 112.5 6 c 128,-1,14
 91 19 91 19 80 28 c 128,-1,15
 69 37 69 37 61.5 58.5 c 128,-1,16
 54 80 54 80 50 95 c 128,-1,17
 46 110 46 110 44 144 c 0,18,19
 42 201 42 201 42 255 c 2,20,-1
 42 328 l 2,21,22
 42 390 42 390 45 411 c 128,-1,23
 48 432 48 432 52 452.5 c 128,-1,24
 56 473 56 473 61.5 482.5 c 128,-1,25
 67 492 67 492 75.5 505 c 128,-1,26
 84 518 84 518 95 523 c 128,-1,27
 106 528 106 528 121 534 c 0,28,29
 146 544 146 544 208 544 c 128,-1,30
 270 544 270 544 305 515 c 1,31,32
 340 544 340 544 421 544 c 0,33,34
 477 544 477 544 497 533 c 128,-1,35
 517 522 517 522 527.5 514.5 c 128,-1,36
 538 507 538 507 544.5 489.5 c 128,-1,37
 551 472 551 472 554.5 460.5 c 128,-1,38
 558 449 558 449 560 422 c 0,39,40
 562 378 562 378 562 328 c 1,41,-1
 572 260 l 1,42,-1
 347 255 l 1,43,0
 347 155 347 155 360 116.5 c 128,-1,1
473 341 m 1,44,45
 473 410 473 410 464 434.5 c 128,-1,46
 455 459 455 459 415.5 459 c 128,-1,47
 376 459 376 459 364.5 442.5 c 128,-1,48
 353 426 353 426 353 372 c 1,49,-1
 343 341 l 1,50,-1
 473 341 l 1,44,45
251 116 m 128,-1,52
 261 154 261 154 261 244 c 128,-1,53
 261 334 261 334 260 360 c 128,-1,54
 259 386 259 386 253 414 c 128,-1,55
 247 442 247 442 233.5 450.5 c 128,-1,56
 220 459 220 459 196 459 c 0,57,58
 151 459 151 459 141 422.5 c 128,-1,59
 131 386 131 386 131 296.5 c 128,-1,60
 131 207 131 207 132 180.5 c 128,-1,61
 133 154 133 154 139 124.5 c 128,-1,62
 145 95 145 95 158.5 86.5 c 128,-1,63
 172 78 172 78 196 78 c 0,64,51
 241 78 241 78 251 116 c 128,-1,52
EndSplineSet
EndChar

StartChar: Scaron
Encoding: 352 352 198
Width: 436
GlyphClass: 2
Flags: W
LayerCount: 2
Fore
SplineSet
249.5 96 m 128,-1,1
 267 103 267 103 276 112.5 c 128,-1,2
 285 122 285 122 289 141 c 128,-1,3
 293 160 293 160 293.5 173 c 128,-1,4
 294 186 294 186 294 210.5 c 128,-1,5
 294 235 294 235 277 261 c 128,-1,6
 260 287 260 287 245.5 300 c 128,-1,7
 231 313 231 313 193 346 c 128,-1,8
 155 379 155 379 139.5 393.5 c 128,-1,9
 124 408 124 408 96 439 c 128,-1,10
 68 470 68 470 56.5 498 c 128,-1,11
 45 526 45 526 45 569.5 c 128,-1,12
 45 613 45 613 52 649 c 0,13,14
 56 674 56 674 67 685.5 c 128,-1,15
 78 697 78 697 98 710 c 0,16,17
 130 732 130 732 223 732 c 1,18,-1
 359 703 l 1,19,20
 351 646 351 646 336 636 c 1,21,22
 329 630 329 630 311.5 630 c 128,-1,23
 294 630 294 630 266 636 c 2,24,-1
 228 643 l 1,25,26
 169 643 169 643 156 619 c 0,27,28
 148 606 148 606 146.5 595 c 128,-1,29
 145 584 145 584 145 562 c 128,-1,30
 145 540 145 540 164 514.5 c 128,-1,31
 183 489 183 489 256 427 c 1,32,33
 319 377 319 377 357.5 331.5 c 128,-1,34
 396 286 396 286 396 233 c 128,-1,35
 396 180 396 180 392 140 c 0,36,37
 388 110 388 110 381 93 c 128,-1,38
 374 76 374 76 360 54 c 128,-1,39
 346 32 346 32 326 21 c 128,-1,40
 306 10 306 10 275 1.5 c 128,-1,41
 244 -7 244 -7 204 -7 c 128,-1,42
 164 -7 164 -7 92 6 c 0,43,44
 58 12 58 12 40 14 c 1,45,-1
 40 99 l 1,46,47
 140 89 140 89 186 89 c 128,-1,0
 232 89 232 89 249.5 96 c 128,-1,1
230 763 m 1,48,-1
 196 763 l 1,49,-1
 68 835 l 1,50,-1
 68 927 l 1,51,-1
 214 846 l 1,52,-1
 360 927 l 1,53,-1
 360 836 l 1,54,-1
 230 763 l 1,48,-1
EndSplineSet
EndChar

StartChar: scaron
Encoding: 353 353 199
Width: 347
GlyphClass: 2
Flags: W
LayerCount: 2
Fore
SplineSet
36 88 m 1,0,1
 126 78 126 78 155 78 c 128,-1,2
 184 78 184 78 193 83 c 128,-1,3
 202 88 202 88 206.5 93.5 c 128,-1,4
 211 99 211 99 213 114 c 0,5,6
 216 135 216 135 216 167 c 0,7,8
 216 191 216 191 126 259 c 0,9,10
 92 284 92 284 63.5 321.5 c 128,-1,11
 35 359 35 359 35 392 c 128,-1,12
 35 425 35 425 36 441 c 128,-1,13
 37 457 37 457 44.5 480.5 c 128,-1,14
 52 504 52 504 66 515 c 0,15,16
 105 544 105 544 179 544 c 1,17,-1
 296 520 l 1,18,19
 288 462 288 462 280.5 455.5 c 128,-1,20
 273 449 273 449 257.5 449 c 128,-1,21
 242 449 242 449 221 452 c 2,22,-1
 182 459 l 1,23,24
 141 459 141 459 132 441 c 0,25,26
 125 427 125 427 125 404 c 128,-1,27
 125 381 125 381 154 355 c 128,-1,28
 183 329 183 329 218.5 305 c 128,-1,29
 254 281 254 281 283 245.5 c 128,-1,30
 312 210 312 210 312 175 c 128,-1,31
 312 140 312 140 311 122 c 128,-1,32
 310 104 310 104 302.5 75 c 128,-1,33
 295 46 295 46 281 31 c 128,-1,34
 267 16 267 16 238.5 4.5 c 128,-1,35
 210 -7 210 -7 179.5 -7 c 128,-1,36
 149 -7 149 -7 127.5 -4.5 c 128,-1,37
 106 -2 106 -2 77.5 3 c 128,-1,38
 49 8 49 8 36 10 c 1,39,-1
 36 88 l 1,0,1
189 577 m 1,40,-1
 155 577 l 1,41,-1
 27 649 l 1,42,-1
 27 741 l 1,43,-1
 173 660 l 1,44,-1
 319 741 l 1,45,-1
 319 650 l 1,46,-1
 189 577 l 1,40,-1
EndSplineSet
EndChar

StartChar: zcaron
Encoding: 382 382 202
Width: 361
GlyphClass: 2
Flags: W
LayerCount: 2
Fore
SplineSet
326 0 m 1,0,-1
 35 0 l 1,1,-1
 35 70 l 1,2,-1
 207 453 l 1,3,-1
 54 453 l 1,4,5
 54 516 54 516 61.5 526.5 c 128,-1,6
 69 537 69 537 114 537 c 2,7,-1
 314 537 l 1,8,-1
 314 466 l 1,9,-1
 134 84 l 1,10,-1
 254 84 l 2,11,12
 308 84 308 84 317 73.5 c 128,-1,13
 326 63 326 63 326 0 c 1,0,-1
210 568 m 1,14,-1
 176 568 l 1,15,-1
 48 640 l 1,16,-1
 48 732 l 1,17,-1
 194 651 l 1,18,-1
 340 732 l 1,19,-1
 340 641 l 1,20,-1
 210 568 l 1,14,-1
EndSplineSet
EndChar

StartChar: florin
Encoding: 402 402 203
Width: 292
GlyphClass: 2
Flags: W
LayerCount: 2
Fore
SplineSet
266 351 m 1,0,-1
 266 272 l 1,1,-1
 169 272 l 1,2,-1
 175 254 l 1,3,-1
 175 -104 l 1,4,5
 146 -104 146 -104 134.5 -103 c 128,-1,6
 123 -102 123 -102 110 -96 c 128,-1,7
 97 -90 97 -90 93.5 -77 c 128,-1,8
 90 -64 90 -64 90 -41 c 2,9,-1
 91 253 l 1,10,-1
 97 272 l 1,11,-1
 45 272 l 1,12,-1
 45 351 l 1,13,-1
 97 351 l 1,14,-1
 91 376 l 1,15,16
 91 487 91 487 110 511 c 0,17,18
 132 540 132 540 176 540 c 1,19,-1
 271 536 l 1,20,21
 271 487 271 487 263 478 c 128,-1,22
 255 469 255 469 209 468 c 2,23,-1
 183 467 l 2,24,25
 176 467 176 467 176 376 c 1,26,-1
 170 351 l 1,27,-1
 266 351 l 1,0,-1
EndSplineSet
EndChar

StartChar: circumflex
Encoding: 710 710 204
Width: 356
GlyphClass: 2
Flags: W
LayerCount: 2
Fore
SplineSet
160 732 m 1,0,-1
 194 732 l 1,1,-1
 324 659 l 1,2,-1
 324 569 l 1,3,-1
 178 649 l 1,4,-1
 32 569 l 1,5,-1
 32 660 l 1,6,-1
 160 732 l 1,0,-1
EndSplineSet
EndChar

StartChar: caron
Encoding: 711 711 205
Width: 354
GlyphClass: 2
Flags: W
LayerCount: 2
Fore
SplineSet
193 568 m 1,0,-1
 159 568 l 1,1,-1
 31 640 l 1,2,-1
 31 732 l 1,3,-1
 177 651 l 1,4,-1
 323 732 l 1,5,-1
 323 641 l 1,6,-1
 193 568 l 1,0,-1
EndSplineSet
EndChar

StartChar: breve
Encoding: 728 728 206
Width: 356
GlyphClass: 2
Flags: W
LayerCount: 2
Fore
SplineSet
160 732 m 1,0,-1
 194 732 l 1,1,-1
 324 659 l 1,2,-1
 324 569 l 1,3,-1
 178 649 l 1,4,-1
 32 569 l 1,5,-1
 32 660 l 1,6,-1
 160 732 l 1,0,-1
EndSplineSet
EndChar

StartChar: dotaccent
Encoding: 729 729 207
Width: 182
GlyphClass: 2
Flags: W
LayerCount: 2
Fore
SplineSet
51.5 618.5 m 128,-1,1
 31 639 31 639 31 667 c 128,-1,2
 31 695 31 695 51 714 c 128,-1,3
 71 733 71 733 98.5 733 c 128,-1,4
 126 733 126 733 146.5 713.5 c 128,-1,5
 167 694 167 694 167 666.5 c 128,-1,6
 167 639 167 639 146 618.5 c 128,-1,7
 125 598 125 598 98.5 598 c 128,-1,0
 72 598 72 598 51.5 618.5 c 128,-1,1
EndSplineSet
EndChar

StartChar: ring
Encoding: 730 730 208
Width: 251
GlyphClass: 2
Flags: W
LayerCount: 2
Fore
SplineSet
59.5 573 m 128,-1,1
 31 601 31 601 31 639 c 128,-1,2
 31 677 31 677 59.5 704.5 c 128,-1,3
 88 732 88 732 126 732 c 128,-1,4
 164 732 164 732 192 704.5 c 128,-1,5
 220 677 220 677 220 638.5 c 128,-1,6
 220 600 220 600 192 572.5 c 128,-1,7
 164 545 164 545 126 545 c 128,-1,0
 88 545 88 545 59.5 573 c 128,-1,1
99 638 m 128,-1,9
 99 628 99 628 107.5 619.5 c 128,-1,10
 116 611 116 611 126 611 c 128,-1,11
 136 611 136 611 144 619.5 c 128,-1,12
 152 628 152 628 152 638.5 c 128,-1,13
 152 649 152 649 144 657.5 c 128,-1,14
 136 666 136 666 126 666 c 128,-1,15
 116 666 116 666 107.5 657 c 128,-1,8
 99 648 99 648 99 638 c 128,-1,9
EndSplineSet
EndChar

StartChar: ogonek
Encoding: 731 731 209
Width: 251
GlyphClass: 2
Flags: W
LayerCount: 2
Fore
SplineSet
25 -95 m 1,0,-1
 25 -61 l 1,1,-1
 70 34 l 1,2,-1
 157 34 l 1,3,-1
 109 -73 l 1,4,-1
 235 -187 l 1,5,-1
 124 -187 l 1,6,-1
 25 -95 l 1,0,-1
EndSplineSet
EndChar

StartChar: tilde
Encoding: 732 732 210
Width: 375
GlyphClass: 2
Flags: W
LayerCount: 2
Fore
SplineSet
123 716 m 1,0,-1
 264 707 l 1,1,2
 283 707 283 707 290 708 c 1,3,-1
 322 707 l 1,4,-1
 322 670 l 2,5,6
 322 636 322 636 313 630 c 128,-1,7
 304 624 304 624 264 624 c 128,-1,8
 224 624 224 624 180.5 629 c 128,-1,9
 137 634 137 634 114 634 c 128,-1,10
 91 634 91 634 84 632 c 1,11,-1
 51 634 l 1,12,-1
 51 671 l 2,13,14
 51 705 51 705 60 710.5 c 128,-1,15
 69 716 69 716 123 716 c 1,0,-1
EndSplineSet
EndChar

StartChar: hungarumlaut
Encoding: 733 733 211
Width: 405
GlyphClass: 2
Flags: W
LayerCount: 2
Fore
SplineSet
101 695 m 2,0,1
 135 732 135 732 153 732 c 128,-1,2
 171 732 171 732 194 707 c 1,3,-1
 216 686 l 1,4,-1
 84 554 l 1,5,-1
 27 612 l 1,6,-1
 101 695 l 2,0,1
329 732 m 0,7,8
 341 732 341 732 364 711 c 2,9,-1
 390 686 l 1,10,-1
 258 554 l 1,11,-1
 202 612 l 1,12,-1
 275 695 l 2,13,14
 307 732 307 732 329 732 c 0,7,8
EndSplineSet
EndChar

StartChar: endash
Encoding: 8211 8211 215
Width: 380
GlyphClass: 2
Flags: W
LayerCount: 2
Fore
SplineSet
45 363 m 1,0,-1
 334 363 l 1,1,-1
 334 281 l 1,2,-1
 45 281 l 1,3,-1
 45 363 l 1,0,-1
EndSplineSet
EndChar

StartChar: emdash
Encoding: 8212 8212 216
Width: 585
GlyphClass: 2
Flags: W
LayerCount: 2
Fore
SplineSet
45 363 m 1,0,-1
 539 363 l 1,1,-1
 539 281 l 1,2,-1
 45 281 l 1,3,-1
 45 363 l 1,0,-1
EndSplineSet
EndChar

StartChar: quoteleft
Encoding: 8216 8216 217
Width: 188
GlyphClass: 2
Flags: W
LayerCount: 2
Fore
SplineSet
140 538 m 0,0,1
 140 513 140 513 122 496 c 128,-1,2
 104 479 104 479 79.5 479 c 128,-1,3
 55 479 55 479 37.5 496.5 c 128,-1,4
 20 514 20 514 20 537 c 0,5,6
 20 580 20 580 80 694 c 2,7,-1
 100 732 l 1,8,-1
 153 699 l 1,9,-1
 161 682 l 1,10,11
 143 629 143 629 141 607.5 c 128,-1,12
 139 586 139 586 139.5 566.5 c 128,-1,13
 140 547 140 547 140 538 c 0,0,1
EndSplineSet
EndChar

StartChar: quoteright
Encoding: 8217 8217 218
Width: 186
GlyphClass: 2
Flags: W
LayerCount: 2
Fore
SplineSet
27 529 m 1,0,1
 50 611 50 611 50 638 c 128,-1,2
 50 665 50 665 47 672 c 1,3,4
 47 697 47 697 65 714.5 c 128,-1,5
 83 732 83 732 107.5 732 c 128,-1,6
 132 732 132 732 150 714.5 c 128,-1,7
 168 697 168 697 168 674 c 0,8,9
 168 632 168 632 108 516 c 2,10,-1
 88 478 l 1,11,-1
 35 511 l 1,12,-1
 27 529 l 1,0,1
EndSplineSet
EndChar

StartChar: quotesinglbase
Encoding: 8218 8218 219
Width: 171
GlyphClass: 2
Flags: W
LayerCount: 2
Fore
SplineSet
26 -91 m 1,0,1
 46 -19 46 -19 46 16 c 2,2,-1
 46 57 l 2,3,4
 46 79 46 79 62 94.5 c 128,-1,5
 78 110 78 110 100 110 c 128,-1,6
 122 110 122 110 138 94.5 c 128,-1,7
 154 79 154 79 154 57.5 c 128,-1,8
 154 36 154 36 135 -11 c 128,-1,9
 116 -58 116 -58 96 -95 c 2,10,-1
 77 -132 l 1,11,-1
 31 -103 l 1,12,-1
 26 -91 l 1,0,1
EndSplineSet
EndChar

StartChar: quotedblleft
Encoding: 8220 8220 220
Width: 340
GlyphClass: 2
Flags: W
LayerCount: 2
Fore
SplineSet
297 538 m 0,0,1
 297 513 297 513 279 496 c 128,-1,2
 261 479 261 479 236.5 479 c 128,-1,3
 212 479 212 479 194.5 496.5 c 128,-1,4
 177 514 177 514 177 537 c 128,-1,5
 177 560 177 560 196.5 608 c 128,-1,6
 216 656 216 656 236 694 c 2,7,-1
 256 732 l 1,8,-1
 310 699 l 1,9,-1
 317 682 l 1,10,11
 297 617 297 617 297 538 c 0,0,1
151 538 m 0,12,13
 151 513 151 513 133 496 c 128,-1,14
 115 479 115 479 90.5 479 c 128,-1,15
 66 479 66 479 48.5 496.5 c 128,-1,16
 31 514 31 514 31 537 c 128,-1,17
 31 560 31 560 50.5 608 c 128,-1,18
 70 656 70 656 90 694 c 2,19,-1
 110 732 l 1,20,-1
 164 699 l 1,21,-1
 171 682 l 1,22,23
 151 617 151 617 151 538 c 0,12,13
EndSplineSet
EndChar

StartChar: quotedblright
Encoding: 8221 8221 221
Width: 340
GlyphClass: 2
Flags: W
LayerCount: 2
Fore
SplineSet
56 672 m 0,0,1
 56 697 56 697 74 714.5 c 128,-1,2
 92 732 92 732 116 732 c 128,-1,3
 140 732 140 732 158 714 c 128,-1,4
 176 696 176 696 176 674 c 0,5,6
 176 634 176 634 116 516 c 2,7,-1
 97 478 l 1,8,-1
 43 511 l 1,9,-1
 36 529 l 1,10,11
 56 601 56 601 56 672 c 0,0,1
201 672 m 0,12,13
 201 697 201 697 219 714.5 c 128,-1,14
 237 732 237 732 261.5 732 c 128,-1,15
 286 732 286 732 303.5 714 c 128,-1,16
 321 696 321 696 321 673.5 c 128,-1,17
 321 651 321 651 301.5 603 c 128,-1,18
 282 555 282 555 262 516 c 2,19,-1
 242 478 l 1,20,-1
 186 512 l 1,21,-1
 181 529 l 1,22,23
 201 601 201 601 201 672 c 0,12,13
EndSplineSet
EndChar

StartChar: quotedblbase
Encoding: 8222 8222 222
Width: 334
GlyphClass: 2
Flags: W
LayerCount: 2
Fore
SplineSet
55 57 m 0,0,1
 55 79 55 79 71 94.5 c 128,-1,2
 87 110 87 110 109 110 c 128,-1,3
 131 110 131 110 147 94.5 c 128,-1,4
 163 79 163 79 163 58 c 0,5,6
 163 18 163 18 105 -95 c 2,7,-1
 86 -132 l 1,8,-1
 40 -103 l 1,9,-1
 35 -91 l 1,10,11
 49 -43 49 -43 52 -17.5 c 128,-1,12
 55 8 55 8 55 57 c 0,0,1
196 13 m 2,13,-1
 196 57 l 2,14,15
 196 79 196 79 212 94.5 c 128,-1,16
 228 110 228 110 250 110 c 128,-1,17
 272 110 272 110 288 94.5 c 128,-1,18
 304 79 304 79 304 57.5 c 128,-1,19
 304 36 304 36 285 -11 c 128,-1,20
 266 -58 266 -58 246 -95 c 2,21,-1
 227 -132 l 1,22,-1
 180 -103 l 1,23,-1
 176 -91 l 1,24,25
 179 -81 179 -81 182 -71.5 c 128,-1,26
 185 -62 185 -62 187 -55 c 128,-1,27
 189 -48 189 -48 190.5 -39.5 c 128,-1,28
 192 -31 192 -31 193 -26 c 128,-1,29
 194 -21 194 -21 194.5 -12.5 c 128,-1,30
 195 -4 195 -4 195.5 -0.5 c 128,-1,31
 196 3 196 3 196 13 c 2,13,-1
EndSplineSet
EndChar

StartChar: dagger
Encoding: 8224 8224 223
Width: 297
GlyphClass: 2
Flags: W
LayerCount: 2
Fore
SplineSet
188 3 m 1,0,-1
 108 3 l 1,1,-1
 108 309 l 1,2,-1
 118 342 l 1,3,-1
 8 342 l 1,4,-1
 8 411 l 1,5,-1
 118 411 l 1,6,-1
 108 444 l 1,7,-1
 108 728 l 1,8,-1
 188 728 l 1,9,-1
 188 444 l 1,10,-1
 178 411 l 1,11,-1
 290 411 l 1,12,-1
 290 342 l 1,13,-1
 178 342 l 1,14,-1
 188 309 l 1,15,-1
 188 3 l 1,0,-1
EndSplineSet
EndChar

StartChar: daggerdbl
Encoding: 8225 8225 224
Width: 302
GlyphClass: 2
Flags: W
LayerCount: 2
Fore
SplineSet
10 306 m 1,0,-1
 10 375 l 1,1,-1
 121 375 l 1,2,-1
 113 412 l 1,3,-1
 120 443 l 1,4,-1
 10 443 l 1,5,-1
 10 511 l 1,6,-1
 120 511 l 1,7,-1
 110 545 l 1,8,-1
 110 728 l 1,9,-1
 190 728 l 1,10,-1
 190 545 l 1,11,-1
 180 511 l 1,12,-1
 292 511 l 1,13,-1
 292 443 l 1,14,-1
 179 443 l 1,15,-1
 187 409 l 1,16,-1
 180 375 l 1,17,-1
 292 375 l 1,18,-1
 292 306 l 1,19,-1
 180 306 l 1,20,-1
 190 273 l 1,21,-1
 190 3 l 1,22,-1
 110 3 l 1,23,-1
 110 274 l 1,24,-1
 120 306 l 1,25,-1
 10 306 l 1,0,-1
EndSplineSet
EndChar

StartChar: bullet
Encoding: 8226 8226 225
Width: 226
GlyphClass: 2
Flags: W
LayerCount: 2
Fore
SplineSet
56 242 m 128,-1,1
 32 266 32 266 32 299.5 c 128,-1,2
 32 333 32 333 56 356.5 c 128,-1,3
 80 380 80 380 113 380 c 128,-1,4
 146 380 146 380 170.5 356 c 128,-1,5
 195 332 195 332 195 299 c 128,-1,6
 195 266 195 266 170.5 242 c 128,-1,7
 146 218 146 218 113 218 c 128,-1,0
 80 218 80 218 56 242 c 128,-1,1
EndSplineSet
EndChar

StartChar: ellipsis
Encoding: 8230 8230 226
Width: 465
GlyphClass: 2
Flags: W
LayerCount: 2
Fore
SplineSet
41 57 m 128,-1,1
 41 79 41 79 57 94.5 c 128,-1,2
 73 110 73 110 95 110 c 128,-1,3
 117 110 117 110 133 94.5 c 128,-1,4
 149 79 149 79 149 57 c 128,-1,5
 149 35 149 35 133 19 c 128,-1,6
 117 3 117 3 95 3 c 128,-1,7
 73 3 73 3 57 19 c 128,-1,0
 41 35 41 35 41 57 c 128,-1,1
182 57 m 128,-1,9
 182 79 182 79 198 94.5 c 128,-1,10
 214 110 214 110 235.5 110 c 128,-1,11
 257 110 257 110 273 94.5 c 128,-1,12
 289 79 289 79 289 57 c 128,-1,13
 289 35 289 35 273 19 c 128,-1,14
 257 3 257 3 235.5 3 c 128,-1,15
 214 3 214 3 198 19 c 128,-1,8
 182 35 182 35 182 57 c 128,-1,9
316 57 m 128,-1,17
 316 79 316 79 332.5 94.5 c 128,-1,18
 349 110 349 110 370.5 110 c 128,-1,19
 392 110 392 110 408 94.5 c 128,-1,20
 424 79 424 79 424 57 c 128,-1,21
 424 35 424 35 408 19 c 128,-1,22
 392 3 392 3 370.5 3 c 128,-1,23
 349 3 349 3 332.5 19 c 128,-1,16
 316 35 316 35 316 57 c 128,-1,17
EndSplineSet
EndChar

StartChar: perthousand
Encoding: 8240 8240 227
Width: 374
GlyphClass: 2
Flags: W
LayerCount: 2
Fore
SplineSet
394 720 m 1,0,-1
 106 0 l 1,1,-1
 6 0 l 1,2,-1
 295 720 l 1,3,-1
 394 720 l 1,0,-1
EndSplineSet
EndChar

StartChar: guilsinglleft
Encoding: 8249 8249 228
Width: 212
GlyphClass: 2
Flags: W
LayerCount: 2
Fore
SplineSet
18 285 m 1,0,-1
 18 315 l 1,1,-1
 92 474 l 1,2,-1
 178 474 l 1,3,-1
 100 300 l 1,4,-1
 178 126 l 1,5,-1
 91 126 l 1,6,-1
 18 285 l 1,0,-1
EndSplineSet
EndChar

StartChar: guilsinglright
Encoding: 8250 8250 229
Width: 212
GlyphClass: 2
Flags: W
LayerCount: 2
Fore
SplineSet
194 315 m 1,0,-1
 194 285 l 1,1,-1
 122 126 l 1,2,-1
 35 126 l 1,3,-1
 114 300 l 1,4,-1
 35 474 l 1,5,-1
 121 474 l 1,6,-1
 194 315 l 1,0,-1
EndSplineSet
EndChar

StartChar: fraction
Encoding: 8260 8260 230
Width: 399
GlyphClass: 2
Flags: W
LayerCount: 2
Fore
SplineSet
394 720 m 1,0,-1
 106 0 l 1,1,-1
 6 0 l 1,2,-1
 295 720 l 1,3,-1
 394 720 l 1,0,-1
EndSplineSet
EndChar

StartChar: Euro
Encoding: 8364 8364 231
Width: 445
GlyphClass: 2
Flags: W
LayerCount: 2
Fore
SplineSet
269 466 m 2,0,-1
 223 466 l 2,1,2
 193 466 193 466 182 449 c 128,-1,3
 171 432 171 432 169 383 c 1,4,-1
 161 366 l 1,5,-1
 168 366 l 1,6,7
 237 360 237 360 247.5 360 c 128,-1,8
 258 360 258 360 276 363 c 1,9,-1
 305 361 l 1,10,-1
 305 327 l 2,11,12
 305 295 305 295 296.5 289.5 c 128,-1,13
 288 284 288 284 242 284 c 128,-1,14
 196 284 196 284 168 287 c 1,15,-1
 163 287 l 1,16,-1
 168 274 l 1,17,-1
 164 257 l 1,18,-1
 168 257 l 1,19,20
 223 252 223 252 239 252 c 128,-1,21
 255 252 255 252 273 255 c 1,22,-1
 302 253 l 1,23,-1
 302 219 l 2,24,25
 302 188 302 188 293 182.5 c 128,-1,26
 284 177 284 177 246 177 c 128,-1,27
 208 177 208 177 168 180 c 1,28,-1
 164 180 l 1,29,-1
 168 170 l 1,30,31
 170 115 170 115 181.5 94 c 128,-1,32
 193 73 193 73 223 73 c 2,33,-1
 331 73 l 1,34,-1
 331 2 l 1,35,-1
 223 -6 l 1,36,37
 140 -6 140 -6 113.5 32.5 c 128,-1,38
 87 71 87 71 84 176 c 1,39,-1
 88 186 l 1,40,-1
 84 186 l 2,41,42
 51 186 51 186 44 184 c 1,43,-1
 13 186 l 1,44,-1
 13 220 l 2,45,46
 13 252 13 252 22 257.5 c 128,-1,47
 31 263 31 263 84 263 c 2,48,-1
 89 263 l 1,49,-1
 84 275 l 1,50,-1
 84 281 l 1,51,-1
 89 294 l 1,52,-1
 84 294 l 2,53,54
 54 294 54 294 46 292 c 1,55,-1
 16 294 l 1,56,-1
 16 328 l 2,57,58
 16 360 16 360 24.5 365.5 c 128,-1,59
 33 371 33 371 84 371 c 2,60,-1
 90 371 l 1,61,-1
 85 388 l 1,62,63
 90 478 90 478 117.5 511.5 c 128,-1,64
 145 545 145 545 223 545 c 1,65,-1
 331 537 l 1,66,67
 331 484 331 484 323.5 475 c 128,-1,68
 316 466 316 466 269 466 c 2,0,-1
EndSplineSet
EndChar

StartChar: trademark
Encoding: 8482 8482 232
Width: 559
GlyphClass: 2
Flags: W
LayerCount: 2
Fore
SplineSet
321 548 m 1,0,-1
 321 349 l 1,1,-1
 246 349 l 1,2,-1
 246 720 l 1,3,-1
 314 720 l 1,4,-1
 373 580 l 1,5,-1
 386 580 l 1,6,-1
 446 720 l 1,7,-1
 513 720 l 1,8,-1
 513 349 l 1,9,-1
 439 349 l 1,10,-1
 439 548 l 1,11,-1
 430 548 l 1,12,-1
 414 488 l 1,13,-1
 346 488 l 1,14,-1
 329 548 l 1,15,-1
 321 548 l 1,0,-1
157 641 m 1,16,-1
 162 624 l 1,17,-1
 162 349 l 1,18,-1
 87 349 l 1,19,-1
 87 623 l 1,20,-1
 93 641 l 1,21,-1
 37 641 l 1,22,-1
 37 720 l 1,23,-1
 213 720 l 1,24,-1
 213 641 l 1,25,-1
 157 641 l 1,16,-1
EndSplineSet
EndChar

StartChar: minus
Encoding: 8722 8722 236
Width: 326
GlyphClass: 2
Flags: W
LayerCount: 2
Fore
SplineSet
45 363 m 1,0,-1
 280 363 l 1,1,-1
 280 281 l 1,2,-1
 45 281 l 1,3,-1
 45 363 l 1,0,-1
EndSplineSet
EndChar

StartChar: fi
Encoding: 64257 64257 245
Width: 422
GlyphClass: 3
Flags: W
LayerCount: 2
Fore
SplineSet
280 537 m 2,0,1
 347 537 347 537 358 529.5 c 128,-1,2
 369 522 369 522 369 477 c 2,3,-1
 369 -4 l 1,4,5
 302 -4 302 -4 291 3.5 c 128,-1,6
 280 11 280 11 280 56 c 2,7,-1
 280 453 l 1,8,-1
 144 453 l 1,9,-1
 154 424 l 1,10,-1
 154 -117 l 1,11,12
 153 -170 153 -170 142.5 -178.5 c 128,-1,13
 132 -187 132 -187 65 -187 c 1,14,-1
 66 424 l 1,15,-1
 75 453 l 1,16,-1
 20 453 l 1,17,-1
 20 537 l 1,18,-1
 75 537 l 1,19,-1
 66 562 l 1,20,-1
 66 612 l 2,21,22
 66 627 66 627 69 649.5 c 128,-1,23
 72 672 72 672 75 678.5 c 128,-1,24
 78 685 78 685 88.5 696.5 c 128,-1,25
 99 708 99 708 109 710 c 128,-1,26
 119 712 119 712 141.5 716 c 128,-1,27
 164 720 164 720 186 720 c 2,28,-1
 370 720 l 1,29,-1
 370 649 l 1,30,-1
 246 649 l 2,31,32
 178 649 178 649 166.5 638 c 128,-1,33
 155 627 155 627 155 560 c 1,34,-1
 145 537 l 1,35,-1
 280 537 l 2,0,1
EndSplineSet
Ligature2: "'liga' Standard Ligatures in Latin lookup 0 subtable" f i
EndChar

StartChar: fl
Encoding: 64258 64258 246
Width: 434
GlyphClass: 3
Flags: W
LayerCount: 2
Fore
SplineSet
246 649 m 2,0,1
 178 649 178 649 166.5 638 c 128,-1,2
 155 627 155 627 155 560 c 1,3,-1
 145 537 l 1,4,-1
 244 537 l 1,5,-1
 244 453 l 1,6,-1
 144 453 l 1,7,-1
 154 424 l 1,8,-1
 154 -117 l 1,9,10
 153 -170 153 -170 142.5 -178.5 c 128,-1,11
 132 -187 132 -187 65 -187 c 1,12,-1
 66 424 l 1,13,-1
 75 453 l 1,14,-1
 20 453 l 1,15,-1
 20 537 l 1,16,-1
 75 537 l 1,17,-1
 66 562 l 1,18,19
 66 562 66 562 66 612 c 0,20,21
 66 627 66 627 69 649.5 c 128,-1,22
 72 672 72 672 75 678.5 c 128,-1,23
 78 685 78 685 88.5 696.5 c 128,-1,24
 99 708 99 708 109 710 c 128,-1,25
 119 712 119 712 141.5 716 c 128,-1,26
 164 720 164 720 186 720 c 2,27,-1
 297 720 l 2,28,29
 363 720 363 720 374.5 712.5 c 128,-1,30
 386 705 386 705 386 659 c 2,31,-1
 386 -4 l 1,32,33
 319 -4 319 -4 308 3.5 c 128,-1,34
 297 11 297 11 297 56 c 2,35,-1
 297 649 l 1,36,-1
 246 649 l 2,0,1
EndSplineSet
Ligature2: "'liga' Standard Ligatures in Latin lookup 0 subtable" f l
EndChar

StartChar: f_f_i
Encoding: 64259 64259 247
Width: 661
GlyphClass: 3
Flags: W
LayerCount: 2
Fore
SplineSet
515 56 m 2,0,-1
 515 453 l 1,1,-1
 365 453 l 1,2,-1
 375 424 l 1,3,-1
 375 -147 l 2,4,5
 375 -155 375 -155 371 -166 c 128,-1,6
 367 -177 367 -177 364 -179 c 128,-1,7
 361 -181 361 -181 348 -184 c 128,-1,8
 335 -187 335 -187 324 -187 c 2,9,10
 324 -187 324 -187 286 -187 c 1,11,-1
 287 424 l 1,12,-1
 296 453 l 1,13,-1
 144 453 l 1,14,-1
 154 424 l 1,15,-1
 154 -117 l 1,16,17
 153 -170 153 -170 142.5 -178.5 c 128,-1,18
 132 -187 132 -187 65 -187 c 1,19,-1
 66 424 l 1,20,-1
 75 453 l 1,21,-1
 20 453 l 1,22,-1
 20 537 l 1,23,-1
 75 537 l 1,24,-1
 66 562 l 1,25,26
 66 562 66 562 66 612 c 0,27,28
 66 627 66 627 69 649.5 c 128,-1,29
 72 672 72 672 75 678.5 c 128,-1,30
 78 685 78 685 88.5 696.5 c 128,-1,31
 99 708 99 708 109 710 c 128,-1,32
 119 712 119 712 141.5 716 c 128,-1,33
 164 720 164 720 186 720 c 2,34,-1
 246 720 l 1,35,-1
 246 649 l 1,36,37
 178 649 178 649 166.5 638 c 128,-1,38
 155 627 155 627 155 560 c 1,39,-1
 145 537 l 1,40,-1
 296 537 l 1,41,-1
 287 562 l 1,42,-1
 287 612 l 2,43,44
 287 627 287 627 290 649.5 c 128,-1,45
 293 672 293 672 296 678.5 c 128,-1,46
 299 685 299 685 309.5 696.5 c 128,-1,47
 320 708 320 708 330 710 c 128,-1,48
 340 712 340 712 362.5 716 c 128,-1,49
 385 720 385 720 407 720 c 2,50,-1
 604 720 l 1,51,-1
 604 649 l 1,52,-1
 466 649 l 2,53,54
 399 649 399 649 387.5 637.5 c 128,-1,55
 376 626 376 626 376 560 c 1,56,-1
 366 537 l 1,57,-1
 515 537 l 2,58,59
 582 537 582 537 593 529.5 c 128,-1,60
 604 522 604 522 604 477 c 2,61,-1
 604 -4 l 1,62,63
 537 -4 537 -4 526 3.5 c 128,-1,64
 515 11 515 11 515 56 c 2,0,-1
EndSplineSet
Ligature2: "'liga' Standard Ligatures in Latin lookup 0 subtable" f f i
EndChar

StartChar: f_f_l
Encoding: 64260 64260 248
Width: 676
GlyphClass: 3
Flags: W
LayerCount: 2
Fore
SplineSet
626 659 m 2,0,-1
 626 -4 l 1,1,2
 559 -4 559 -4 548 3.5 c 128,-1,3
 537 11 537 11 537 56 c 2,4,-1
 537 649 l 1,5,-1
 469 649 l 2,6,7
 401 649 401 649 389.5 638 c 128,-1,8
 378 627 378 627 378 560 c 1,9,-1
 368 537 l 1,10,-1
 467 537 l 1,11,-1
 467 453 l 1,12,-1
 367 453 l 1,13,-1
 377 424 l 1,14,-1
 377 -117 l 1,15,16
 376 -170 376 -170 365.5 -178.5 c 128,-1,17
 355 -187 355 -187 288 -187 c 1,18,-1
 289 424 l 1,19,-1
 298 453 l 1,20,-1
 144 453 l 1,21,-1
 154 424 l 1,22,-1
 154 -117 l 1,23,24
 153 -170 153 -170 142.5 -178.5 c 128,-1,25
 132 -187 132 -187 65 -187 c 1,26,-1
 66 424 l 1,27,-1
 75 453 l 1,28,-1
 20 453 l 1,29,-1
 20 537 l 1,30,-1
 75 537 l 1,31,-1
 66 562 l 1,32,33
 66 562 66 562 66 612 c 0,34,35
 66 627 66 627 69 649.5 c 128,-1,36
 72 672 72 672 75 678.5 c 128,-1,37
 78 685 78 685 88.5 696.5 c 128,-1,38
 99 708 99 708 109 710 c 128,-1,39
 119 712 119 712 141.5 716 c 128,-1,40
 164 720 164 720 186 720 c 2,41,-1
 246 720 l 1,42,-1
 246 649 l 1,43,44
 178 649 178 649 166.5 638 c 128,-1,45
 155 627 155 627 155 560 c 1,46,-1
 145 537 l 1,47,-1
 298 537 l 1,48,-1
 289 562 l 1,49,-1
 289 612 l 2,50,51
 289 627 289 627 292 649.5 c 128,-1,52
 295 672 295 672 298 678.5 c 128,-1,53
 301 685 301 685 311.5 696.5 c 128,-1,54
 322 708 322 708 332 710 c 128,-1,55
 342 712 342 712 364.5 716 c 128,-1,56
 387 720 387 720 409 720 c 2,57,-1
 537 720 l 2,58,59
 603 720 603 720 614.5 712.5 c 128,-1,60
 626 705 626 705 626 659 c 2,0,-1
EndSplineSet
Ligature2: "'liga' Standard Ligatures in Latin lookup 0 subtable" f f l
EndChar

StartChar: E_s
Encoding: 65539 -1 249
Width: 681
GlyphClass: 3
Flags: W
LayerCount: 2
Fore
SplineSet
553 164 m 0,0,1
 553 182 553 182 524.5 208 c 128,-1,2
 496 234 496 234 462.5 259 c 128,-1,3
 429 284 429 284 400.5 321.5 c 128,-1,4
 372 359 372 359 372 392 c 128,-1,5
 372 425 372 425 373 441 c 128,-1,6
 374 457 374 457 381.5 480.5 c 128,-1,7
 389 504 389 504 404 515 c 0,8,9
 442 544 442 544 516 544 c 1,10,-1
 633 520 l 1,11,12
 625 462 625 462 617.5 455.5 c 128,-1,13
 610 449 610 449 594.5 449 c 128,-1,14
 579 449 579 449 558 452 c 2,15,-1
 519 459 l 1,16,17
 478 459 478 459 469 441 c 0,18,19
 462 427 462 427 462 404 c 128,-1,20
 462 381 462 381 491 355 c 128,-1,21
 520 329 520 329 555.5 305 c 128,-1,22
 591 281 591 281 620 245.5 c 128,-1,23
 649 210 649 210 649 175 c 128,-1,24
 649 140 649 140 648 122 c 128,-1,25
 647 104 647 104 639.5 75 c 128,-1,26
 632 46 632 46 618 31 c 128,-1,27
 604 16 604 16 575.5 4.5 c 128,-1,28
 547 -7 547 -7 506 -7 c 2,29,-1
 60 0 l 1,30,-1
 60 720 l 1,31,-1
 344 720 l 1,32,-1
 344 635 l 1,33,-1
 149 635 l 1,34,-1
 158 610 l 1,35,-1
 158 457 l 1,36,-1
 149 432 l 1,37,-1
 332 432 l 1,38,-1
 332 343 l 1,39,-1
 150 343 l 1,40,-1
 158 320 l 1,41,-1
 158 114 l 1,42,-1
 149 89 l 1,43,-1
 507 78 l 2,44,45
 531 78 531 78 544 94 c 0,46,47
 553 105 553 105 553 164 c 0,0,1
EndSplineSet
Ligature2: "'liga' Standard Ligatures in Latin lookup 0 subtable" E s
EndChar

StartChar: E_S
Encoding: 65540 -1 250
Width: 756
GlyphClass: 3
Flags: W
LayerCount: 2
Fore
SplineSet
537 89 m 2,0,1
 585 89 585 89 607 112 c 0,2,3
 623 129 623 129 624 173 c 0,4,5
 625 186 625 186 625 210.5 c 128,-1,6
 625 235 625 235 608 261 c 128,-1,7
 591 287 591 287 576.5 300 c 128,-1,8
 562 313 562 313 524 346 c 128,-1,9
 486 379 486 379 470.5 393.5 c 128,-1,10
 455 408 455 408 427 439 c 0,11,12
 376 495 376 495 376 556 c 0,13,14
 376 662 376 662 398 686 c 0,15,16
 432 721 432 721 471 726.5 c 128,-1,17
 510 732 510 732 554 732 c 1,18,-1
 690 703 l 1,19,20
 682 646 682 646 667 636 c 1,21,22
 660 630 660 630 642.5 630 c 128,-1,23
 625 630 625 630 597 636 c 2,24,-1
 559 643 l 1,25,26
 500 643 500 643 486 619 c 0,27,28
 479 606 479 606 477.5 595 c 128,-1,29
 476 584 476 584 476 562 c 0,30,31
 476 521 476 521 577 436 c 1,32,33
 625 398 625 398 652 372 c 128,-1,34
 679 346 679 346 703 309 c 128,-1,35
 727 272 727 272 727 239 c 128,-1,36
 727 206 727 206 726.5 188.5 c 128,-1,37
 726 171 726 171 722.5 140.5 c 128,-1,38
 719 110 719 110 712 93 c 128,-1,39
 705 76 705 76 691 54 c 128,-1,40
 677 32 677 32 657 21 c 0,41,42
 606 -7 606 -7 535 -7 c 1,43,-1
 60 0 l 1,44,-1
 60 720 l 1,45,-1
 344 720 l 1,46,-1
 344 635 l 1,47,-1
 149 635 l 1,48,-1
 158 610 l 1,49,-1
 158 457 l 1,50,-1
 149 432 l 1,51,-1
 332 432 l 1,52,-1
 332 343 l 1,53,-1
 150 343 l 1,54,-1
 158 320 l 1,55,-1
 158 114 l 1,56,-1
 149 89 l 1,57,-1
 537 89 l 2,0,1
EndSplineSet
Ligature2: "'liga' Standard Ligatures in Latin lookup 0 subtable" E S
EndChar

StartChar: c_s
Encoding: 65541 -1 251
Width: 628
GlyphClass: 3
Flags: W
LayerCount: 2
Fore
SplineSet
393 398 m 0,0,1
 393 381 393 381 422 355 c 128,-1,2
 451 329 451 329 486.5 305 c 128,-1,3
 522 281 522 281 551 245.5 c 128,-1,4
 580 210 580 210 580 175 c 128,-1,5
 580 140 580 140 579 122 c 128,-1,6
 578 104 578 104 570.5 75 c 128,-1,7
 563 46 563 46 549 31 c 128,-1,8
 535 16 535 16 506.5 4.5 c 128,-1,9
 478 -7 478 -7 437 -7 c 1,10,-1
 304 10 l 1,11,-1
 195 -7 l 1,12,13
 114 -7 114 -7 89 22 c 0,14,15
 78 34 78 34 70.5 43 c 128,-1,16
 63 52 63 52 58 74 c 128,-1,17
 53 96 53 96 50.5 110 c 128,-1,18
 48 124 48 124 46.5 156.5 c 128,-1,19
 45 189 45 189 45 208 c 2,20,-1
 45 332 l 2,21,22
 45 400 45 400 49 421.5 c 128,-1,23
 53 443 53 443 58 465 c 128,-1,24
 63 487 63 487 70.5 495.5 c 128,-1,25
 78 504 78 504 89 516 c 128,-1,26
 100 528 100 528 116 532 c 0,27,28
 155 544 155 544 195 544 c 1,29,-1
 288 520 l 1,30,31
 283 487 283 487 280 473 c 128,-1,32
 277 459 277 459 268.5 449.5 c 128,-1,33
 260 440 260 440 248 441.5 c 128,-1,34
 236 443 236 443 213 452 c 2,35,-1
 195 459 l 1,36,37
 172 459 172 459 159.5 451 c 128,-1,38
 147 443 147 443 141.5 414.5 c 128,-1,39
 136 386 136 386 135 360 c 128,-1,40
 134 334 134 334 134 271 c 128,-1,41
 134 208 134 208 135 181.5 c 128,-1,42
 136 155 136 155 141.5 125.5 c 128,-1,43
 147 96 147 96 159.5 87 c 128,-1,44
 172 78 172 78 195 78 c 1,45,-1
 304 88 l 1,46,-1
 438 78 l 1,47,48
 462 78 462 78 474 94 c 1,49,50
 484 105 484 105 484 167 c 0,51,52
 484 191 484 191 394 259 c 0,53,54
 360 284 360 284 331.5 321.5 c 128,-1,55
 303 359 303 359 303 392 c 128,-1,56
 303 425 303 425 304 441 c 128,-1,57
 305 457 305 457 312.5 480.5 c 128,-1,58
 320 504 320 504 334 515 c 0,59,60
 373 544 373 544 447 544 c 1,61,-1
 564 520 l 1,62,63
 556 462 556 462 548.5 455.5 c 128,-1,64
 541 449 541 449 525.5 449 c 128,-1,65
 510 449 510 449 489 452 c 2,66,-1
 450 459 l 1,67,68
 409 459 409 459 400 441 c 0,69,70
 393 427 393 427 393 398 c 0,0,1
EndSplineSet
Ligature2: "'liga' Standard Ligatures in Latin lookup 0 subtable" c s
EndChar

StartChar: o_t
Encoding: 65542 -1 252
Width: 673
GlyphClass: 3
Flags: W
LayerCount: 2
Fore
SplineSet
45 266 m 2,0,1
 45 266 45 266 45 328 c 256,2,3
 45 390 45 390 48 411 c 128,-1,4
 51 432 51 432 55 452.5 c 128,-1,5
 59 473 59 473 64.5 482.5 c 128,-1,6
 70 492 70 492 78.5 505 c 128,-1,7
 87 518 87 518 98 523 c 128,-1,8
 109 528 109 528 124 534 c 0,9,10
 149 544 149 544 199 544 c 2,11,-1
 473 544 l 1,12,-1
 465 574 l 1,13,-1
 465 625 l 1,14,15
 532 625 532 625 543.5 618.5 c 128,-1,16
 555 612 555 612 555 571 c 1,17,-1
 547 544 l 1,18,-1
 647 544 l 1,19,20
 647 487 647 487 636.5 473 c 128,-1,21
 626 459 626 459 575 459 c 2,22,-1
 546 459 l 1,23,-1
 555 434 l 1,24,-1
 555 230 l 2,25,26
 555 145 555 145 561.5 113.5 c 128,-1,27
 568 82 568 82 589 78 c 1,28,-1
 665 78 l 1,29,-1
 665 0 l 1,30,-1
 584 -5 l 1,31,32
 534 -5 534 -5 518 5 c 128,-1,33
 502 15 502 15 494 21 c 128,-1,34
 486 27 486 27 480 45.5 c 128,-1,35
 474 64 474 64 471 75.5 c 128,-1,36
 468 87 468 87 466.5 117.5 c 128,-1,37
 465 148 465 148 465 168 c 2,38,39
 465 168 465 168 465 434 c 1,40,-1
 473 459 l 1,41,-1
 342 459 l 1,42,43
 354 415 354 415 354 271 c 2,44,-1
 354 215 l 2,45,46
 354 151 354 151 351 130 c 128,-1,47
 348 109 348 109 344 88 c 128,-1,48
 340 67 340 67 334.5 57.5 c 128,-1,49
 329 48 329 48 320.5 34.5 c 128,-1,50
 312 21 312 21 300.5 15.5 c 128,-1,51
 289 10 289 10 274 4 c 0,52,53
 250 -7 250 -7 210 -7 c 128,-1,54
 170 -7 170 -7 148.5 -4 c 128,-1,55
 127 -1 127 -1 110.5 9 c 128,-1,56
 94 19 94 19 83 28 c 128,-1,57
 72 37 72 37 64.5 58.5 c 128,-1,58
 57 80 57 80 53 95 c 128,-1,59
 49 110 49 110 48 144 c 0,60,61
 45 201 45 201 45 266 c 2,0,1
199 459 m 0,62,63
 154 459 154 459 144 422.5 c 128,-1,64
 134 386 134 386 134 296.5 c 128,-1,65
 134 207 134 207 135 180.5 c 128,-1,66
 136 154 136 154 142 124.5 c 128,-1,67
 148 95 148 95 161.5 86.5 c 128,-1,68
 175 78 175 78 199 78 c 0,69,70
 244 78 244 78 254 116 c 128,-1,71
 264 154 264 154 264 244 c 128,-1,72
 264 334 264 334 263 360 c 128,-1,73
 262 386 262 386 256 414 c 128,-1,74
 250 442 250 442 236.5 450.5 c 128,-1,75
 223 459 223 459 199 459 c 0,62,63
EndSplineSet
Ligature2: "'liga' Standard Ligatures in Latin lookup 0 subtable" o t
EndChar

StartChar: x_t
Encoding: 65543 -1 253
Width: 652
GlyphClass: 3
Flags: W
LayerCount: 2
Fore
SplineSet
231 537 m 1,0,-1
 436 537 l 1,1,-1
 428 574 l 1,2,-1
 428 625 l 1,3,4
 496 625 496 625 507 618.5 c 128,-1,5
 518 612 518 612 518 571 c 1,6,-1
 510 537 l 1,7,-1
 610 537 l 1,8,9
 610 480 610 480 599.5 466.5 c 128,-1,10
 589 453 589 453 538 453 c 2,11,-1
 509 453 l 1,12,-1
 518 428 l 1,13,-1
 518 230 l 2,14,15
 518 145 518 145 524.5 113.5 c 128,-1,16
 531 82 531 82 552 78 c 1,17,-1
 628 78 l 1,18,-1
 628 0 l 1,19,-1
 547 -5 l 1,20,21
 498 -5 498 -5 481.5 5 c 128,-1,22
 465 15 465 15 457 21 c 128,-1,23
 449 27 449 27 443 45.5 c 128,-1,24
 437 64 437 64 434 75.5 c 128,-1,25
 431 87 431 87 429.5 117.5 c 128,-1,26
 428 148 428 148 428 168 c 2,27,-1
 428 428 l 1,28,-1
 436 453 l 1,29,-1
 289 453 l 1,30,31
 279 423 279 423 226 281 c 1,32,-1
 339 0 l 1,33,-1
 246 0 l 1,34,-1
 172 208 l 1,35,-1
 164 208 l 1,36,-1
 99 0 l 1,37,38
 34 0 34 0 27 6 c 0,39,40
 16 17 16 17 23 31 c 1,41,-1
 120 290 l 1,42,-1
 22 537 l 1,43,44
 91 537 91 537 106 530.5 c 128,-1,45
 121 524 121 524 135 486 c 1,46,-1
 171 362 l 1,47,-1
 180 362 l 1,48,-1
 231 537 l 1,0,-1
EndSplineSet
Ligature2: "'liga' Standard Ligatures in Latin lookup 0 subtable" x t
EndChar

StartChar: f_u
Encoding: 65544 -1 254
Width: 608
GlyphClass: 3
Flags: W
LayerCount: 2
Fore
SplineSet
485 537 m 1,0,1
 552 537 552 537 563.5 529.5 c 128,-1,2
 575 522 575 522 575 477 c 2,3,-1
 575 0 l 1,4,5
 516 0 516 0 501 3.5 c 128,-1,6
 486 7 486 7 485 27 c 1,7,-1
 421 -7 l 1,8,9
 342 -7 342 -7 298 32 c 0,10,11
 270 56 270 56 266 164 c 0,12,13
 264 197 264 197 264 271 c 2,14,-1
 264 453 l 1,15,-1
 144 453 l 1,16,-1
 154 424 l 1,17,-1
 154 -117 l 1,18,19
 153 -170 153 -170 142.5 -178.5 c 128,-1,20
 132 -187 132 -187 65 -187 c 1,21,-1
 66 424 l 1,22,-1
 75 453 l 1,23,-1
 20 453 l 1,24,-1
 20 537 l 1,25,-1
 75 537 l 1,26,-1
 66 562 l 1,27,-1
 66 612 l 2,28,29
 66 627 66 627 69 649.5 c 128,-1,30
 72 672 72 672 75 678.5 c 128,-1,31
 78 685 78 685 88.5 696.5 c 128,-1,32
 99 708 99 708 109 710 c 128,-1,33
 119 712 119 712 141.5 716 c 128,-1,34
 164 720 164 720 186 720 c 2,35,36
 186 720 186 720 246 720 c 1,37,-1
 246 649 l 1,38,39
 178 649 178 649 166.5 638 c 128,-1,40
 155 627 155 627 155 560 c 1,41,-1
 145 537 l 1,42,-1
 264 537 l 2,43,44
 331 537 331 537 342 529.5 c 128,-1,45
 353 522 353 522 353 477 c 2,46,-1
 353 273 l 2,47,48
 353 156 353 156 358.5 137 c 128,-1,49
 364 118 364 118 370 104 c 0,50,51
 380 80 380 80 411 78 c 1,52,-1
 495 113 l 1,53,-1
 485 143 l 1,54,-1
 485 537 l 1,0,1
EndSplineSet
Ligature2: "'liga' Standard Ligatures in Latin lookup 0 subtable" f u
EndChar

StartChar: f_t
Encoding: 65545 -1 255
Width: 529
GlyphClass: 3
Flags: W
LayerCount: 2
Fore
SplineSet
286 625 m 1,0,1
 354 625 354 625 365 618.5 c 128,-1,2
 376 612 376 612 376 571 c 1,3,-1
 368 537 l 1,4,-1
 468 537 l 1,5,6
 468 480 468 480 457.5 466.5 c 128,-1,7
 447 453 447 453 396 453 c 2,8,-1
 367 453 l 1,9,-1
 376 428 l 1,10,-1
 376 230 l 2,11,12
 376 145 376 145 382.5 113.5 c 128,-1,13
 389 82 389 82 410 78 c 1,14,-1
 486 78 l 1,15,-1
 486 0 l 1,16,-1
 405 -5 l 1,17,18
 356 -5 356 -5 339.5 5 c 128,-1,19
 323 15 323 15 315 21 c 128,-1,20
 307 27 307 27 301 45.5 c 128,-1,21
 295 64 295 64 292 75.5 c 128,-1,22
 289 87 289 87 287.5 117.5 c 128,-1,23
 286 148 286 148 286 168 c 2,24,-1
 286 428 l 1,25,-1
 294 453 l 1,26,-1
 144 453 l 1,27,-1
 154 424 l 1,28,-1
 154 -117 l 1,29,30
 153 -170 153 -170 142.5 -178.5 c 128,-1,31
 132 -187 132 -187 65 -187 c 1,32,-1
 66 424 l 1,33,-1
 75 453 l 1,34,-1
 20 453 l 1,35,-1
 20 537 l 1,36,-1
 75 537 l 1,37,-1
 66 562 l 1,38,-1
 66 612 l 2,39,40
 66 627 66 627 69 649.5 c 128,-1,41
 72 672 72 672 75 678.5 c 128,-1,42
 78 685 78 685 88.5 696.5 c 128,-1,43
 99 708 99 708 109 710 c 128,-1,44
 119 712 119 712 141.5 716 c 128,-1,45
 164 720 164 720 186 720 c 2,46,-1
 246 720 l 1,47,-1
 246 649 l 1,48,49
 178 649 178 649 166.5 638 c 128,-1,50
 155 627 155 627 155 560 c 1,51,-1
 145 537 l 1,52,-1
 294 537 l 1,53,-1
 286 574 l 1,54,-1
 286 625 l 1,0,1
EndSplineSet
Ligature2: "'liga' Standard Ligatures in Latin lookup 0 subtable" f t
EndChar

